SplineFontDB: 3.2
FontName: GaramondMono
FullName: Garamond Mono
FamilyName: Garamond Mono
Weight: Regular
Copyright: Copyright 2017 The EB Garamond Project Authors (https://github.com/octaviopardo/EBGaramond12)
Version: 0.005
ItalicAngle: 0
UnderlinePosition: -125
UnderlineWidth: 50
Ascent: 800
Descent: 200
InvalidEm: 0
LayerCount: 2
Layer: 0 0 "+gMyXYgAA" 1
Layer: 1 0 "+Uk2XYgAA" 0
XUID: [1021 501 934139072 8628543]
StyleMap: 0x0040
FSType: 0
OS2Version: 4
OS2_WeightWidthSlopeOnly: 0
OS2_UseTypoMetrics: 1
CreationTime: 1508950587
ModificationTime: 1713161975
PfmFamily: 49
TTFWeight: 400
TTFWidth: 5
LineGap: 0
VLineGap: 0
OS2TypoAscent: 1007
OS2TypoAOffset: 0
OS2TypoDescent: -298
OS2TypoDOffset: 0
OS2TypoLinegap: 0
OS2WinAscent: 1047
OS2WinAOffset: 0
OS2WinDescent: 390
OS2WinDOffset: 0
HheadAscent: 1007
HheadAOffset: 0
HheadDescent: -298
HheadDOffset: 0
OS2SubXSize: 650
OS2SubYSize: 600
OS2SubXOff: 0
OS2SubYOff: 75
OS2SupXSize: 650
OS2SupYSize: 600
OS2SupXOff: 0
OS2SupYOff: 350
OS2StrikeYSize: 50
OS2StrikeYPos: 240
OS2CapHeight: 650
OS2XHeight: 400
OS2FamilyClass: 258
OS2Vendor: 'PfEd'
Lookup: 1 0 0 "'onum' Oldstyle Figures" { "'onum' Oldstyle Figures-1" ("oldstyle") } ['onum' ('DFLT' <'dflt' > 'grek' <'dflt' > 'latn' <'MOL ' 'ROM ' 'dflt' > ) ]
Lookup: 1 0 0 "'locl' Romanian comma accent" { "'locl' Romanian comma accent-1"  } ['locl' ('latn' <'MOL ' 'ROM ' > ) ]
Lookup: 1 0 0 "'ss01' Original glyphs" { "'ss01' Original glyphs-1" ("ss01") } ['ss01' ('DFLT' <'dflt' > 'latn' <'MOL ' 'ROM ' 'dflt' > ) ]
MarkAttachClasses: 1
DEI: 91125
TtTable: prep
PUSHW_1
 511
SCANCTRL
PUSHB_1
 4
SCANTYPE
EndTTInstrs
ShortTable: maxp 16
  1
  0
  3080
  580
  23
  580
  7
  1
  0
  0
  0
  0
  0
  0
  7
  1
EndShort

StartChar: A
Encoding: 65 65 0
Width: 600
GlyphClass: 2
Flags: W
LayerCount: 2
Fore
SplineSet
21 -5 m 0
 14 -5 9 -4 4 -2 c 128
 -1 0 -3 4 -3 9 c 0
 -3 14 -1 19 4 22 c 128
 9 25 15 29 23 32 c 0
 38 37 52 45 65 56 c 128
 78 67 88 83 96 105 c 0
 111 146 125 185 138 222 c 128
 151 259 164 295 176 331 c 128
 188 367 200 404 213 442 c 128
 226 480 238 522 251 565 c 0
 256 580 260 594 262 604 c 128
 264 614 266 623 267 631 c 1
 274 633 282 636 288 638 c 128
 294 640 301 643 308 648 c 0
 315 652 320 658 324 666 c 128
 328 674 330 679 332 682 c 0
 333 683 335 684 336 684 c 128
 337 684 339 683 340 680 c 0
 342 677 343 673 344 669 c 128
 345 665 346 661 347 656 c 0
 360 607 374 558 388 508 c 128
 402 458 416 408 430 360 c 128
 444 312 456 267 468 226 c 128
 480 185 489 150 498 119 c 0
 504 97 511 80 520 68 c 128
 529 56 538 48 548 42 c 128
 558 36 568 33 579 30 c 0
 588 28 594 25 598 21 c 128
 602 17 605 12 605 7 c 0
 605 3 602 0 598 -2 c 128
 594 -4 589 -4 583 -4 c 0
 574 -4 562 -3 547 -2 c 128
 532 -1 517 -1 501 0 c 128
 485 1 470 1 457 1 c 0
 441 1 442 1 422 1 c 128
 409 1 396 1 384 0 c 128
 372 -1 363 -1 354 -1 c 0
 347 -1 342 0 338 2 c 128
 334 4 331 8 331 12 c 0
 331 17 333 22 338 25 c 128
 343 28 349 31 356 32 c 0
 375 36 389 42 398 50 c 128
 407 58 411 69 409 82 c 0
 408 93 406 107 403 124 c 128
 400 141 396 159 392 178 c 128
 388 197 383 215 379 231 c 0
 378 236 375 240 372 241 c 128
 369 242 365 243 358 243 c 2
 200 243 l 2
 197 243 194 242 192 240 c 128
 190 238 188 233 185 226 c 0
 183 218 180 208 177 196 c 128
 174 184 170 170 167 156 c 128
 164 142 161 130 158 118 c 128
 155 106 154 98 153 93 c 0
 151 76 155 64 164 54 c 128
 173 44 186 36 203 31 c 0
 220 26 229 19 229 11 c 0
 229 6 226 4 222 2 c 128
 218 0 213 -1 206 -1 c 0
 195 -1 182 -1 168 0 c 128
 154 1 139 1 123 1 c 0
 105 1 87 0 70 -2 c 128
 53 -4 36 -5 21 -5 c 0
224 284 m 2
 349 284 l 2
 357 284 361 286 361 289 c 0
 361 291 360 293 360 294 c 128
 360 296 360 296 359 300 c 2
 296 537 l 2
 293 548 291 553 289 553 c 0
 288 553 286 548 283 538 c 2
 209 300 l 2
 208 296 207 293 207 292 c 0
 207 289 209 287 212 286 c 128
 215 285 219 284 224 284 c 2
EndSplineSet
EndChar

StartChar: B
Encoding: 66 66 1
Width: 600
GlyphClass: 2
Flags: W
LayerCount: 2
Fore
SplineSet
55 -5 m 0
 46 -5 39 -4 34 -2 c 128
 29 0 26 2 26 6 c 0
 26 14 37 20 59 24 c 0
 84 29 104 36 117 47 c 128
 130 58 137 75 137 99 c 2
 137 549 l 2
 137 573 132 591 122 602 c 128
 112 613 95 620 70 622 c 0
 59 623 50 626 45 630 c 128
 40 634 37 637 37 642 c 0
 37 646 40 648 45 650 c 128
 50 652 57 653 66 653 c 0
 93 653 93 653 108 653 c 128
 118 653 128 652 137 652 c 128
 146 652 157 652 170 652 c 0
 183 652 194 653 203 654 c 128
 212 655 223 655 235 656 c 128
 247 657 262 657 281 657 c 0
 359 657 417 646 455 624 c 128
 493 602 513 563 513 508 c 0
 513 485 509 465 501 448 c 128
 493 431 486 419 479 412 c 0
 468 401 459 394 450 388 c 128
 441 382 429 376 412 369 c 0
 409 368 408 366 408 364 c 128
 408 362 409 360 412 359 c 0
 427 354 443 348 459 341 c 128
 475 334 491 324 505 312 c 128
 519 300 532 285 541 266 c 128
 550 247 554 223 554 194 c 0
 554 157 549 128 537 107 c 128
 525 86 511 69 495 58 c 128
 479 47 464 37 450 30 c 0
 429 19 405 11 378 5 c 128
 351 -1 318 -4 280 -4 c 0
 271 -4 258 -3 241 -2 c 128
 224 -1 205 0 185 0 c 0
 168 0 153 0 141 -1 c 128
 129 -2 116 -3 103 -4 c 128
 90 -5 74 -5 55 -5 c 0
294 37 m 0
 323 37 351 44 376 57 c 128
 401 70 422 89 437 112 c 128
 452 135 460 160 460 189 c 0
 460 215 456 237 447 254 c 128
 438 271 428 284 417 295 c 128
 406 306 395 313 386 318 c 0
 377 323 364 328 345 334 c 128
 326 340 302 343 272 343 c 0
 251 343 235 339 227 330 c 128
 219 321 215 314 215 307 c 2
 215 108 l 2
 215 80 221 62 235 52 c 128
 249 42 269 37 294 37 c 0
261 371 m 0
 279 371 298 373 319 377 c 128
 340 381 361 389 382 400 c 0
 389 404 399 414 410 429 c 128
 421 444 427 466 427 495 c 0
 427 514 423 534 416 554 c 128
 409 574 395 592 374 606 c 128
 353 620 322 627 281 627 c 0
 254 627 235 623 227 616 c 128
 219 609 215 597 215 582 c 2
 215 408 l 2
 215 391 221 380 232 376 c 128
 243 372 253 371 261 371 c 0
EndSplineSet
EndChar

StartChar: C
Encoding: 67 67 2
Width: 600
GlyphClass: 2
Flags: W
LayerCount: 2
Fore
SplineSet
343 -15 m 0
 302 -15 263 -7 226 9 c 128
 189 25 156 48 127 77 c 128
 98 106 76 142 59 183 c 128
 42 224 34 270 34 321 c 0
 34 368 43 412 60 454 c 128
 77 496 100 533 130 564 c 128
 160 595 195 618 235 636 c 128
 275 654 318 663 365 663 c 0
 386 663 404 662 420 660 c 128
 436 658 453 654 468 650 c 128
 483 646 500 641 517 634 c 0
 524 631 530 628 534 623 c 128
 538 618 539 611 540 602 c 0
 542 585 544 567 545 548 c 128
 546 529 547 509 548 486 c 0
 548 480 546 476 542 473 c 128
 538 470 533 470 528 472 c 128
 523 474 519 478 517 485 c 0
 512 507 506 527 499 544 c 128
 492 561 483 576 470 587 c 0
 457 599 440 608 420 615 c 128
 400 622 378 625 353 625 c 0
 322 625 293 617 266 602 c 128
 239 587 216 566 198 540 c 128
 180 514 166 483 155 450 c 128
 144 417 139 382 139 346 c 0
 139 304 144 264 154 225 c 128
 164 186 179 152 198 122 c 128
 217 92 239 68 266 50 c 128
 293 32 324 24 357 24 c 0
 398 24 431 34 458 56 c 128
 485 78 507 109 525 150 c 0
 529 159 534 164 542 164 c 128
 550 164 554 159 554 148 c 0
 554 141 553 132 551 120 c 128
 549 108 546 96 543 82 c 128
 540 68 536 56 533 45 c 0
 530 36 527 30 524 27 c 128
 521 24 516 20 508 17 c 0
 487 6 461 -2 432 -7 c 128
 403 -12 374 -15 343 -15 c 0
EndSplineSet
EndChar

StartChar: D
Encoding: 68 68 3
Width: 600
GlyphClass: 2
Flags: W
LayerCount: 2
Fore
SplineSet
297 -7 m 0
 287 -7 272 -6 253 -5 c 128
 234 -4 214 -3 192 -2 c 128
 170 -1 151 0 134 0 c 0
 123 0 113 0 104 -1 c 128
 95 -2 85 -2 75 -3 c 128
 65 -4 53 -4 40 -4 c 0
 34 -4 30 -3 26 -1 c 128
 22 1 20 4 20 9 c 0
 20 14 22 18 26 20 c 128
 30 22 35 25 43 27 c 0
 63 32 76 39 84 49 c 128
 92 59 96 75 96 98 c 2
 96 550 l 2
 96 573 92 588 84 598 c 128
 76 608 63 616 43 621 c 0
 35 623 30 625 26 628 c 128
 22 631 20 635 20 640 c 0
 20 645 22 648 26 650 c 128
 30 652 35 654 40 654 c 0
 53 654 65 654 75 653 c 128
 85 652 94 652 104 652 c 128
 114 652 125 651 137 651 c 0
 146 651 157 651 170 652 c 128
 183 653 197 654 212 655 c 128
 227 656 240 657 253 658 c 128
 266 659 275 659 282 659 c 0
 331 659 373 651 410 635 c 128
 447 619 477 597 501 568 c 128
 525 539 543 505 556 466 c 128
 569 427 575 385 575 340 c 0
 575 293 568 250 554 208 c 128
 540 166 521 128 496 96 c 128
 471 64 442 38 408 20 c 128
 374 2 338 -7 297 -7 c 0
287 34 m 0
 326 34 360 46 389 70 c 128
 418 94 440 127 456 170 c 128
 472 213 480 263 480 319 c 0
 480 366 474 409 463 446 c 128
 452 483 437 514 418 540 c 128
 399 566 378 586 354 600 c 128
 330 614 303 620 276 620 c 0
 255 620 238 620 224 618 c 128
 210 616 198 611 191 604 c 128
 184 597 180 584 180 567 c 2
 180 125 l 2
 180 100 184 81 194 68 c 128
 204 55 217 46 234 41 c 128
 251 36 268 34 287 34 c 0
EndSplineSet
EndChar

StartChar: E
Encoding: 69 69 4
Width: 600
GlyphClass: 2
Flags: W
LayerCount: 2
Fore
SplineSet
84 -5 m 0
 75 -5 68 -4 63 -2 c 128
 58 0 55 2 55 6 c 0
 55 14 66 20 88 24 c 0
 113 29 132 36 144 47 c 128
 156 58 162 75 162 99 c 2
 162 549 l 2
 162 573 158 590 148 600 c 128
 138 610 120 617 95 622 c 0
 84 624 75 627 70 630 c 128
 65 633 62 637 62 642 c 0
 62 646 65 648 70 650 c 128
 75 652 82 653 91 653 c 0
 116 653 138 653 156 652 c 128
 174 651 191 650 208 650 c 128
 225 650 245 650 268 650 c 0
 290 650 314 650 338 650 c 128
 362 650 384 651 405 651 c 0
 428 652 446 652 462 652 c 128
 478 652 487 653 490 653 c 0
 493 653 497 652 501 651 c 128
 505 650 507 647 508 644 c 0
 511 625 515 606 518 588 c 128
 521 570 523 554 523 541 c 0
 523 535 521 531 518 529 c 128
 515 527 512 526 509 526 c 256
 506 526 503 526 502 528 c 128
 501 530 499 533 498 536 c 0
 495 547 491 558 488 568 c 128
 485 578 481 586 476 591 c 0
 467 602 456 608 445 612 c 128
 434 616 422 618 409 618 c 2
 278 618 l 2
 273 618 265 615 256 609 c 128
 247 603 242 595 242 586 c 2
 242 374 l 2
 242 368 244 362 248 358 c 128
 252 354 255 352 260 352 c 2
 359 352 l 2
 378 352 392 355 399 362 c 128
 406 369 412 382 417 401 c 0
 421 416 427 423 435 423 c 0
 438 423 441 422 444 419 c 128
 447 416 448 412 448 407 c 0
 448 404 448 398 448 389 c 128
 448 380 447 370 446 360 c 128
 445 350 445 342 445 337 c 0
 445 330 446 321 446 310 c 128
 446 299 446 289 446 279 c 128
 446 269 447 263 447 260 c 0
 447 255 447 251 446 248 c 128
 445 245 442 243 438 243 c 0
 428 243 420 254 415 275 c 0
 411 290 406 302 399 309 c 128
 392 316 382 320 369 320 c 2
 276 320 l 2
 265 320 256 319 250 316 c 128
 244 313 242 305 242 294 c 2
 242 102 l 2
 242 77 247 60 258 50 c 128
 269 40 285 35 308 35 c 2
 382 35 l 2
 403 35 422 36 436 38 c 128
 450 40 462 45 473 52 c 0
 484 59 494 69 502 81 c 128
 510 93 519 109 530 129 c 0
 532 133 534 136 537 139 c 128
 540 142 543 143 546 142 c 256
 549 141 552 140 554 138 c 128
 556 136 557 132 557 128 c 0
 557 122 555 111 552 96 c 128
 549 81 545 66 540 50 c 128
 535 34 530 21 526 12 c 0
 524 7 522 3 520 0 c 128
 518 -3 516 -5 512 -5 c 0
 480 -5 450 -5 423 -4 c 128
 396 -3 370 -3 345 -2 c 128
 320 -1 296 -1 272 0 c 128
 248 1 224 1 199 1 c 0
 184 1 172 1 161 0 c 128
 150 -1 139 -3 128 -4 c 128
 117 -5 102 -5 84 -5 c 0
EndSplineSet
EndChar

StartChar: F
Encoding: 70 70 5
Width: 600
GlyphClass: 2
Flags: W
LayerCount: 2
Fore
SplineSet
103 -5 m 0
 94 -5 87 -4 82 -2 c 128
 77 0 74 2 74 6 c 0
 74 14 85 20 107 24 c 0
 132 29 150 36 160 47 c 128
 170 58 174 75 174 100 c 2
 174 522 l 2
 174 552 170 575 162 591 c 128
 154 607 138 617 113 622 c 0
 102 624 93 627 88 630 c 128
 83 633 80 637 80 642 c 0
 80 646 83 648 88 650 c 128
 93 652 100 653 109 653 c 0
 134 653 155 653 172 652 c 128
 189 651 205 650 222 650 c 128
 239 650 258 650 281 650 c 0
 310 650 310 650 343 650 c 128
 376 650 376 650 407 650 c 0
 428 650 448 652 464 655 c 128
 480 658 494 660 506 660 c 0
 509 660 513 659 517 658 c 128
 521 657 523 654 524 651 c 0
 525 644 526 632 527 618 c 128
 528 604 528 590 528 577 c 128
 528 564 529 555 529 550 c 0
 529 536 526 529 520 529 c 0
 517 529 514 530 511 532 c 128
 508 534 506 538 505 541 c 0
 502 552 499 562 495 570 c 128
 491 578 487 585 482 590 c 0
 473 601 462 608 451 612 c 128
 440 616 428 617 415 617 c 2
 288 617 l 2
 273 617 263 612 260 602 c 128
 257 592 255 580 254 567 c 0
 253 554 253 538 253 520 c 128
 253 492 253 493 253 467 c 0
 253 442 253 442 253 416 c 128
 253 399 253 384 254 372 c 0
 254 367 255 362 256 357 c 128
 257 352 259 350 264 350 c 0
 285 350 307 351 329 352 c 128
 351 353 368 353 380 353 c 0
 395 353 407 357 418 365 c 128
 429 373 436 383 441 394 c 0
 442 397 445 400 449 404 c 128
 453 408 456 411 459 411 c 256
 462 411 465 409 468 406 c 128
 471 403 473 400 472 395 c 0
 471 384 471 374 470 365 c 128
 469 356 469 348 469 340 c 0
 469 330 469 320 470 310 c 128
 471 300 471 287 472 272 c 0
 472 267 471 263 470 260 c 128
 469 257 467 255 463 255 c 0
 456 255 452 258 448 264 c 128
 444 270 441 275 440 278 c 0
 435 293 428 304 419 310 c 128
 410 316 401 318 393 318 c 0
 384 318 376 318 368 318 c 128
 360 318 351 319 343 319 c 0
 326 319 326 319 310 319 c 128
 299 319 289 318 278 317 c 0
 271 316 266 314 261 310 c 128
 256 306 254 301 254 292 c 0
 254 261 254 230 254 198 c 128
 254 166 256 134 257 101 c 0
 258 80 263 63 272 50 c 128
 281 37 298 29 323 24 c 0
 334 22 343 20 348 17 c 128
 353 14 356 11 356 6 c 0
 356 2 353 0 348 -2 c 128
 343 -4 336 -5 327 -5 c 0
 309 -5 296 -4 286 -3 c 128
 276 -2 268 -1 260 0 c 128
 252 1 242 2 229 2 c 0
 213 2 198 1 186 0 c 128
 174 -1 162 -2 149 -3 c 128
 136 -4 121 -5 103 -5 c 0
EndSplineSet
EndChar

StartChar: G
Encoding: 71 71 6
Width: 600
GlyphClass: 2
Flags: W
LayerCount: 2
Fore
SplineSet
320 -14 m 0
 281 -14 244 -6 210 10 c 128
 176 26 146 49 119 78 c 128
 92 107 72 142 56 182 c 128
 40 222 32 265 32 312 c 0
 32 360 40 405 56 448 c 128
 72 491 93 528 121 560 c 128
 149 592 181 618 218 636 c 128
 255 654 296 663 340 663 c 0
 350 663 362 662 378 660 c 128
 394 658 411 655 428 652 c 128
 445 649 460 645 474 641 c 128
 488 637 498 633 505 629 c 0
 508 628 510 626 512 624 c 128
 514 622 515 618 516 613 c 0
 518 592 520 572 522 552 c 128
 524 532 524 516 524 503 c 0
 524 498 522 493 520 489 c 128
 518 485 515 483 512 483 c 0
 506 483 501 486 498 491 c 128
 495 496 493 502 491 508 c 0
 487 519 482 530 478 540 c 128
 474 550 468 559 460 569 c 0
 455 576 448 582 438 590 c 128
 428 598 414 605 398 611 c 128
 382 617 362 620 339 620 c 0
 308 620 279 612 254 596 c 128
 229 580 208 559 190 532 c 128
 172 505 158 474 149 439 c 128
 140 404 135 368 135 330 c 0
 135 283 140 241 150 204 c 128
 160 167 174 135 192 109 c 128
 210 83 232 64 256 50 c 128
 280 36 305 29 332 29 c 0
 358 29 377 33 390 41 c 128
 403 49 412 56 417 61 c 0
 423 68 428 77 433 90 c 128
 438 103 440 118 440 134 c 0
 440 140 440 147 440 155 c 128
 440 163 442 172 442 180 c 128
 442 188 442 195 442 201 c 0
 442 208 441 215 440 220 c 128
 439 225 436 230 433 233 c 0
 428 239 421 244 412 248 c 128
 403 252 393 254 384 256 c 128
 375 258 367 259 362 260 c 0
 359 260 354 262 350 266 c 128
 346 270 344 274 344 279 c 0
 344 284 346 287 350 290 c 128
 354 293 358 295 361 295 c 0
 374 295 387 295 399 294 c 128
 417 293 417 293 435 292 c 128
 447 291 460 291 474 291 c 0
 488 291 501 292 514 293 c 128
 527 294 542 295 557 295 c 0
 560 295 563 294 567 292 c 128
 571 290 573 285 573 279 c 0
 573 274 570 269 566 266 c 128
 562 263 559 261 556 260 c 0
 543 255 533 249 528 242 c 128
 523 235 520 224 518 211 c 0
 517 196 516 183 515 172 c 128
 514 161 514 149 514 136 c 2
 514 107 l 2
 514 104 515 100 516 98 c 128
 517 96 519 93 521 90 c 256
 522 87 524 83 527 80 c 128
 530 77 531 74 531 71 c 0
 531 68 530 64 528 60 c 128
 526 56 523 53 517 52 c 0
 513 51 505 47 494 40 c 128
 483 33 469 26 452 18 c 128
 435 10 416 2 394 -4 c 128
 372 -10 347 -14 320 -14 c 0
EndSplineSet
EndChar

StartChar: H
Encoding: 72 72 7
Width: 600
GlyphClass: 2
Flags: W
LayerCount: 2
Fore
SplineSet
42 -4 m 0
 37 -4 32 -2 28 -0 c 128
 24 2 23 5 23 9 c 0
 23 17 30 23 44 27 c 0
 63 32 74 39 80 49 c 128
 86 59 89 75 89 98 c 2
 89 551 l 2
 89 574 86 590 82 599 c 128
 78 608 67 616 48 621 c 0
 33 625 26 631 27 640 c 0
 27 644 29 647 32 650 c 128
 35 653 39 654 45 654 c 0
 58 654 69 654 78 653 c 128
 87 652 96 652 104 651 c 128
 112 650 121 650 131 650 c 0
 142 650 152 650 160 650 c 128
 168 650 176 651 186 652 c 128
 196 653 207 653 220 653 c 0
 233 653 239 649 239 640 c 0
 239 635 238 631 234 628 c 128
 230 625 225 623 218 621 c 0
 199 615 186 607 179 596 c 128
 172 585 168 570 168 551 c 2
 168 360 l 2
 168 355 170 352 172 351 c 128
 174 350 176 349 178 349 c 2
 427 349 l 2
 432 349 434 353 433 362 c 2
 433 551 l 2
 433 570 430 585 423 596 c 128
 416 607 403 615 384 621 c 0
 377 623 371 625 368 628 c 128
 365 631 363 635 363 640 c 0
 363 649 369 653 381 653 c 256
 394 653 406 653 416 652 c 128
 426 651 436 650 446 650 c 128
 456 650 465 650 476 650 c 0
 485 650 494 650 501 651 c 128
 508 652 516 652 524 653 c 128
 532 654 542 654 555 654 c 0
 561 654 566 653 570 650 c 128
 574 647 575 644 575 640 c 0
 575 631 568 625 553 621 c 0
 534 616 522 608 518 598 c 128
 514 588 512 572 512 552 c 2
 512 99 l 2
 512 76 515 59 520 49 c 128
 525 39 537 32 555 27 c 0
 569 23 576 17 575 9 c 0
 575 5 574 2 570 -0 c 128
 566 -2 561 -4 556 -4 c 0
 544 -4 533 -3 524 -2 c 128
 515 -1 506 -1 498 0 c 128
 490 1 481 1 471 1 c 0
 460 1 451 1 442 0 c 128
 433 -1 424 -1 414 -2 c 128
 404 -3 393 -4 381 -4 c 0
 375 -4 370 -2 367 -0 c 128
 364 2 362 5 362 9 c 0
 362 14 364 18 367 20 c 128
 370 22 376 25 383 27 c 0
 400 32 412 39 420 50 c 128
 428 61 433 76 433 97 c 2
 433 290 l 2
 433 294 432 297 432 300 c 128
 432 303 431 305 428 305 c 2
 174 305 l 2
 170 305 168 301 168 293 c 2
 168 104 l 2
 168 84 173 67 183 54 c 128
 193 41 207 32 224 27 c 0
 231 25 237 22 240 20 c 128
 243 18 245 14 245 9 c 0
 245 5 243 2 240 -0 c 128
 237 -2 232 -4 226 -4 c 0
 213 -4 202 -3 192 -2 c 128
 182 -1 172 -1 162 0 c 128
 152 1 142 1 131 1 c 0
 121 1 111 1 102 0 c 128
 93 -1 84 -1 75 -2 c 128
 66 -3 55 -4 42 -4 c 0
EndSplineSet
EndChar

StartChar: I
Encoding: 73 73 8
Width: 600
GlyphClass: 2
Flags: W
LayerCount: 2
Fore
SplineSet
178 -5 m 0
 169 -5 162 -4 157 -2 c 128
 152 0 149 2 149 6 c 0
 149 14 160 20 182 24 c 0
 207 29 227 36 240 47 c 128
 253 58 260 75 260 98 c 2
 260 550 l 2
 260 573 256 590 246 600 c 128
 236 610 218 617 193 622 c 0
 171 626 160 633 160 642 c 0
 160 646 163 648 168 650 c 128
 173 652 180 653 189 653 c 0
 207 653 222 653 234 652 c 128
 246 651 256 650 267 650 c 128
 278 650 291 650 306 650 c 0
 321 650 333 650 342 650 c 128
 351 650 361 651 372 652 c 128
 383 653 397 653 415 653 c 0
 424 653 431 652 436 650 c 128
 441 648 444 646 444 642 c 0
 444 637 441 633 436 630 c 128
 431 627 422 624 411 622 c 0
 386 617 368 610 357 600 c 128
 346 590 340 573 340 550 c 2
 340 98 l 2
 340 75 347 58 361 47 c 128
 375 36 394 29 419 24 c 0
 430 22 439 20 444 17 c 128
 449 14 452 11 452 6 c 0
 452 2 449 0 444 -2 c 128
 439 -4 432 -5 423 -5 c 0
 405 -5 390 -5 378 -4 c 128
 366 -3 356 -2 345 -1 c 128
 334 0 321 0 306 0 c 0
 289 0 274 0 262 -1 c 128
 250 -2 237 -3 224 -4 c 128
 211 -5 196 -5 178 -5 c 0
EndSplineSet
EndChar

StartChar: J
Encoding: 74 74 9
Width: 600
GlyphClass: 2
Flags: W
LayerCount: 2
Fore
SplineSet
164 -200 m 0
 95 -200 61 -184 61 -151 c 0
 61 -140 66 -129 75 -119 c 128
 84 -109 93 -104 100 -104 c 0
 109 -104 117 -106 125 -110 c 128
 133 -114 140 -120 147 -129 c 0
 156 -140 163 -147 170 -152 c 128
 177 -157 185 -159 194 -159 c 0
 217 -159 234 -144 244 -116 c 128
 254 -88 260 -50 260 -1 c 2
 260 551 l 2
 260 574 255 590 245 600 c 128
 235 610 218 617 194 622 c 0
 172 626 161 633 161 642 c 0
 161 646 164 648 169 650 c 128
 174 652 181 653 190 653 c 0
 208 653 222 653 234 652 c 128
 246 651 257 650 268 650 c 128
 279 650 292 650 307 650 c 0
 320 650 329 650 336 650 c 128
 343 650 351 651 360 652 c 128
 369 653 383 653 401 653 c 0
 410 653 417 652 422 650 c 128
 427 648 430 646 430 642 c 0
 430 637 427 633 422 630 c 128
 417 627 408 624 397 622 c 0
 372 617 357 610 350 600 c 128
 343 590 340 574 340 551 c 2
 340 47 l 2
 340 19 336 -7 327 -32 c 128
 318 -57 308 -79 296 -98 c 128
 284 -117 272 -133 261 -146 c 0
 248 -162 233 -175 217 -185 c 128
 201 -195 183 -200 164 -200 c 0
EndSplineSet
EndChar

StartChar: K
Encoding: 75 75 10
Width: 600
GlyphClass: 2
Flags: W
LayerCount: 2
Fore
SplineSet
46 -5 m 0
 39 -5 34 -4 29 -2 c 128
 24 0 22 3 22 8 c 0
 22 17 31 23 48 27 c 0
 69 32 84 40 92 50 c 128
 100 60 103 77 103 100 c 2
 103 551 l 2
 103 574 99 590 91 599 c 128
 83 608 68 616 46 621 c 0
 29 625 21 632 22 641 c 0
 22 646 24 649 28 651 c 128
 32 653 38 654 44 654 c 0
 59 654 71 654 82 653 c 128
 93 652 104 652 114 652 c 128
 124 652 136 651 148 651 c 0
 159 651 169 652 178 652 c 128
 187 652 198 652 208 652 c 128
 218 652 230 653 244 653 c 0
 251 653 256 652 260 650 c 128
 264 648 265 646 265 641 c 0
 265 636 264 631 260 628 c 128
 256 625 250 623 241 621 c 0
 220 615 206 607 201 596 c 128
 196 585 193 570 193 551 c 2
 193 358 l 2
 193 355 193 350 194 346 c 128
 195 342 196 340 199 340 c 0
 202 340 205 342 209 346 c 128
 213 350 217 353 221 357 c 2
 387 562 l 2
 392 568 396 573 398 578 c 128
 400 583 401 588 401 593 c 0
 401 606 394 614 379 618 c 0
 370 621 364 623 360 626 c 128
 356 629 355 634 355 639 c 0
 355 643 358 646 362 648 c 128
 366 650 371 651 377 651 c 2
 427 651 l 2
 444 651 463 651 482 652 c 128
 501 653 519 653 536 654 c 128
 553 655 566 655 575 655 c 0
 580 655 584 654 588 652 c 128
 592 650 594 646 594 643 c 0
 594 638 592 633 587 630 c 128
 582 627 576 624 567 622 c 0
 544 617 521 610 499 600 c 128
 477 590 457 575 439 558 c 0
 420 539 401 521 384 502 c 128
 367 483 350 464 334 444 c 128
 318 424 300 403 281 379 c 0
 276 374 277 366 285 357 c 2
 488 96 l 2
 499 82 508 70 516 62 c 128
 524 54 532 48 542 42 c 128
 552 36 564 31 579 27 c 0
 588 24 595 22 600 20 c 128
 605 18 607 13 607 8 c 0
 607 4 605 0 600 -2 c 128
 595 -4 588 -5 579 -5 c 0
 562 -5 547 -5 534 -4 c 128
 521 -3 507 -1 494 -0 c 128
 481 1 467 1 450 1 c 0
 437 1 425 1 414 -0 c 128
 403 -1 387 -2 368 -2 c 0
 362 -2 356 -1 352 1 c 128
 348 3 346 6 346 11 c 0
 346 19 353 25 368 29 c 0
 386 34 395 41 395 52 c 0
 395 56 394 60 391 64 c 128
 388 68 385 74 382 79 c 2
 217 298 l 2
 214 302 210 306 206 309 c 128
 202 312 200 314 198 314 c 256
 196 314 195 312 194 308 c 128
 193 304 193 299 193 295 c 0
 193 264 194 234 194 205 c 128
 194 176 195 144 196 107 c 0
 197 93 198 81 201 70 c 128
 204 59 209 51 216 44 c 128
 223 37 234 31 248 27 c 0
 257 25 263 23 268 20 c 128
 273 17 275 13 275 8 c 0
 275 4 273 0 268 -2 c 128
 263 -4 257 -5 250 -5 c 0
 234 -5 222 -4 212 -3 c 128
 202 -2 192 0 184 1 c 128
 176 2 167 3 156 3 c 0
 143 3 132 2 122 1 c 128
 112 0 100 -2 88 -3 c 128
 76 -4 63 -5 46 -5 c 0
EndSplineSet
EndChar

StartChar: L
Encoding: 76 76 11
Width: 600
GlyphClass: 2
Flags: W
LayerCount: 2
Fore
SplineSet
63 -5 m 2
 54 -5 47 -4 42 -2 c 128
 37 0 35 4 35 7 c 0
 35 13 38 18 44 20 c 128
 50 22 55 23 57 24 c 0
 83 29 103 38 117 48 c 128
 131 58 138 74 138 96 c 2
 138 560 l 2
 138 576 136 588 133 596 c 128
 130 604 124 608 115 612 c 128
 106 616 94 619 77 622 c 0
 55 626 44 633 44 642 c 0
 44 646 47 648 52 650 c 128
 57 652 64 653 73 653 c 0
 91 653 105 653 116 652 c 128
 127 651 138 650 148 650 c 128
 158 650 170 650 185 650 c 0
 202 650 216 650 228 650 c 128
 240 650 252 651 265 652 c 128
 278 653 293 653 311 653 c 0
 320 653 327 652 332 650 c 128
 337 648 340 646 340 642 c 0
 340 637 337 633 332 630 c 128
 327 627 318 624 307 622 c 0
 282 617 261 612 244 606 c 128
 227 600 218 586 218 567 c 2
 218 96 l 2
 218 75 223 60 232 50 c 128
 241 40 262 35 295 35 c 2
 419 35 l 2
 437 35 452 38 466 44 c 128
 480 50 490 55 497 61 c 0
 510 72 520 83 526 92 c 128
 532 101 540 114 549 132 c 0
 550 136 554 142 558 150 c 128
 562 158 566 162 571 162 c 0
 575 162 578 160 580 156 c 128
 582 152 583 148 583 144 c 0
 583 143 582 143 582 142 c 128
 582 141 582 140 582 139 c 0
 577 122 574 106 570 92 c 128
 566 78 562 65 560 52 c 128
 558 39 556 26 555 12 c 0
 554 7 554 3 552 0 c 128
 550 -3 546 -5 541 -5 c 0
 508 -5 476 -5 445 -4 c 128
 414 -3 384 -2 356 -2 c 128
 328 -2 301 -2 275 -1 c 128
 249 0 223 0 198 0 c 0
 181 0 163 0 142 -1 c 128
 121 -2 102 -3 86 -4 c 128
 62 -6 63 -5 63 -5 c 2
EndSplineSet
EndChar

StartChar: M
Encoding: 77 77 12
Width: 600
GlyphClass: 2
Flags: W
LayerCount: 2
Fore
SplineSet
31 -4 m 0
 25 -4 21 -4 18 -2 c 128
 15 0 13 3 13 8 c 256
 13 13 14 16 18 18 c 128
 22 20 27 23 34 26 c 0
 45 30 53 38 60 51 c 128
 67 64 72 81 75 104 c 0
 80 154 84 205 87 256 c 128
 90 307 93 356 96 402 c 128
 99 448 100 489 101 525 c 0
 101 532 101 532 101 541 c 128
 101 550 101 550 101 558 c 0
 101 565 100 572 98 578 c 128
 96 584 94 590 89 595 c 0
 82 604 75 610 68 614 c 128
 61 618 53 620 44 623 c 0
 39 624 35 626 32 630 c 128
 29 634 28 638 28 643 c 0
 28 649 30 653 34 654 c 128
 38 655 43 656 49 656 c 0
 54 656 62 656 71 655 c 128
 80 654 91 653 102 652 c 128
 113 651 123 651 133 650 c 128
 143 649 151 649 157 649 c 0
 160 649 163 647 166 644 c 128
 169 641 170 637 171 632 c 0
 173 620 175 608 178 595 c 128
 181 582 184 569 187 556 c 2
 288 173 l 2
 289 169 291 167 294 166 c 128
 297 165 300 167 301 171 c 2
 419 554 l 1
 422 569 424 584 426 598 c 128
 428 612 430 625 431 635 c 0
 432 644 435 648 439 648 c 2
 464 648 l 2
 479 648 495 649 512 652 c 128
 529 655 541 657 550 657 c 0
 553 657 556 656 560 654 c 128
 564 652 566 650 566 645 c 0
 566 640 565 636 562 633 c 128
 559 630 555 627 549 624 c 0
 544 621 540 618 534 615 c 128
 528 612 522 608 517 605 c 0
 510 600 504 594 500 586 c 128
 496 578 495 569 495 556 c 0
 495 509 496 465 497 426 c 128
 498 387 500 350 501 315 c 128
 502 280 504 244 506 209 c 128
 508 174 509 136 510 96 c 0
 511 77 516 61 524 50 c 128
 532 39 544 32 560 27 c 0
 566 25 571 23 574 20 c 128
 577 17 579 13 579 8 c 0
 579 4 577 1 574 -1 c 128
 571 -3 567 -4 562 -4 c 0
 551 -4 540 -3 531 -2 c 128
 522 -1 513 -1 504 0 c 128
 495 1 485 1 476 1 c 0
 467 1 460 1 452 0 c 128
 444 -1 436 -1 428 -2 c 128
 420 -3 409 -4 398 -4 c 0
 393 -4 390 -4 386 -2 c 128
 382 0 380 3 380 8 c 256
 380 13 382 17 385 20 c 128
 388 23 393 26 400 27 c 0
 414 30 424 38 429 48 c 128
 434 58 437 74 437 96 c 0
 436 142 436 185 435 224 c 128
 434 263 433 302 432 340 c 128
 431 378 429 419 428 462 c 0
 428 468 427 470 425 470 c 128
 423 470 421 467 419 461 c 2
 276 -3 l 2
 275 -8 272 -10 268 -10 c 128
 264 -10 263 -8 262 -3 c 0
 243 75 223 152 202 228 c 128
 181 304 159 382 136 465 c 0
 135 469 132 471 130 470 c 128
 128 469 127 467 126 462 c 0
 123 420 120 379 118 340 c 128
 116 301 113 262 112 223 c 128
 111 184 111 144 111 103 c 0
 111 84 114 68 122 54 c 128
 130 40 141 32 156 27 c 0
 163 25 168 23 172 20 c 128
 176 17 177 13 177 8 c 0
 177 4 175 1 172 -1 c 128
 169 -3 164 -4 159 -4 c 0
 147 -4 138 -3 132 -2 c 128
 126 -1 120 0 115 -0 c 128
 110 0 104 0 95 0 c 0
 86 0 78 0 72 -1 c 128
 62 -2 64 -2 54 -3 c 128
 48 -4 40 -4 31 -4 c 0
EndSplineSet
EndChar

StartChar: N
Encoding: 78 78 13
Width: 600
GlyphClass: 2
Flags: W
LayerCount: 2
Fore
SplineSet
505 -18 m 256
 500 -18 490 -12 476 -2 c 128
 462 8 450 25 437 48 c 0
 432 56 423 68 412 86 c 128
 401 104 387 125 372 148 c 128
 357 171 340 196 323 223 c 128
 306 250 288 276 271 302 c 128
 254 328 237 354 222 377 c 128
 207 400 194 421 182 439 c 128
 170 457 161 470 155 478 c 0
 152 483 150 486 148 489 c 128
 146 492 143 493 141 493 c 256
 139 493 137 491 136 486 c 128
 135 481 135 476 135 472 c 0
 134 440 134 403 134 361 c 128
 134 319 134 276 134 232 c 128
 134 188 134 146 134 107 c 0
 134 88 138 70 146 56 c 128
 154 42 167 32 186 27 c 0
 193 25 200 23 204 20 c 128
 208 17 210 13 210 8 c 0
 210 4 208 1 204 -1 c 128
 200 -3 195 -4 189 -4 c 0
 176 -4 165 -3 158 -2 c 128
 151 -1 144 0 138 -0 c 128
 132 0 124 0 114 0 c 0
 105 0 97 0 90 -1 c 128
 83 -2 76 -2 69 -3 c 128
 62 -4 54 -4 45 -4 c 0
 40 -4 34 -4 30 -2 c 128
 26 0 24 3 24 8 c 256
 24 13 26 17 30 20 c 128
 34 23 40 25 47 28 c 0
 60 33 70 44 77 58 c 128
 84 72 88 89 89 109 c 0
 91 134 93 168 95 209 c 128
 97 250 98 297 100 348 c 128
 102 399 103 452 103 507 c 0
 103 542 96 568 82 583 c 128
 68 598 52 611 31 620 c 0
 28 621 24 624 18 628 c 128
 12 632 8 637 8 643 c 256
 8 649 10 653 15 655 c 128
 20 657 23 658 26 658 c 0
 39 657 50 656 60 656 c 128
 70 656 79 656 88 655 c 128
 97 654 107 654 117 654 c 128
 127 654 139 653 153 653 c 0
 158 653 162 651 164 648 c 128
 166 645 168 642 170 638 c 0
 175 629 184 616 196 597 c 128
 208 578 222 556 238 531 c 128
 254 506 270 478 288 450 c 128
 306 422 324 394 342 365 c 128
 360 336 377 309 393 284 c 128
 409 259 423 236 435 218 c 128
 447 200 455 187 460 179 c 0
 462 176 465 173 468 168 c 128
 471 163 474 161 477 161 c 0
 482 161 484 167 484 180 c 0
 484 200 484 200 484 240 c 128
 484 267 484 298 484 333 c 128
 484 368 485 405 485 444 c 128
 485 483 485 522 484 561 c 0
 483 576 478 588 468 598 c 128
 458 608 447 616 436 619 c 0
 429 620 422 623 416 626 c 128
 410 629 408 634 408 639 c 0
 408 643 411 646 417 648 c 128
 423 650 429 651 434 651 c 0
 445 651 446 651 454 651 c 128
 462 651 462 651 470 651 c 128
 478 651 479 651 487 651 c 0
 498 651 508 652 515 652 c 128
 522 652 530 652 538 653 c 128
 546 654 557 654 572 654 c 0
 578 654 582 653 586 651 c 128
 590 649 592 646 592 641 c 0
 592 632 584 625 569 621 c 0
 551 616 538 610 532 602 c 128
 526 594 523 582 522 565 c 0
 522 554 522 536 521 512 c 128
 520 488 520 460 520 427 c 128
 520 394 520 360 519 324 c 128
 518 288 518 253 518 218 c 128
 518 166 518 166 518 124 c 0
 518 108 519 93 520 78 c 128
 521 63 521 49 522 38 c 128
 523 27 523 19 523 14 c 0
 523 1 521 -8 518 -12 c 128
 515 -16 510 -18 505 -18 c 256
EndSplineSet
EndChar

StartChar: O
Encoding: 79 79 14
Width: 600
GlyphClass: 2
Flags: W
LayerCount: 2
Fore
SplineSet
296 -14 m 0
 261 -14 228 -6 196 10 c 128
 164 26 136 47 111 76 c 128
 86 105 66 140 52 180 c 128
 38 220 31 266 31 315 c 0
 31 360 36 404 48 446 c 128
 60 488 77 524 100 557 c 128
 123 590 152 616 186 635 c 128
 220 654 259 664 303 664 c 0
 339 664 372 656 404 640 c 128
 436 624 464 603 489 574 c 128
 514 545 534 510 548 470 c 128
 562 430 569 384 569 335 c 0
 569 290 564 247 552 205 c 128
 540 163 523 126 500 93 c 128
 477 60 448 34 414 15 c 128
 380 -4 341 -14 296 -14 c 0
309 28 m 0
 346 28 376 38 400 60 c 128
 424 82 444 112 456 151 c 128
 468 190 474 234 474 285 c 0
 474 330 470 372 462 412 c 128
 454 452 443 488 428 520 c 128
 413 552 394 576 371 594 c 128
 348 612 321 620 290 620 c 0
 254 620 224 609 200 588 c 128
 176 567 156 537 144 499 c 128
 132 461 126 417 126 366 c 0
 126 321 130 278 137 238 c 128
 144 198 156 162 171 130 c 128
 186 98 205 74 228 56 c 128
 251 38 278 28 309 28 c 0
EndSplineSet
EndChar

StartChar: P
Encoding: 80 80 15
Width: 600
GlyphClass: 2
Flags: W
LayerCount: 2
Fore
SplineSet
77 -5 m 0
 68 -5 61 -4 56 -2 c 128
 51 0 48 2 48 6 c 0
 48 14 59 20 81 24 c 0
 106 29 124 36 136 47 c 128
 148 58 154 75 154 100 c 2
 154 522 l 2
 154 552 150 575 142 591 c 128
 134 607 118 617 93 622 c 0
 82 624 73 627 68 630 c 128
 63 633 60 637 60 642 c 0
 60 646 63 648 68 650 c 128
 73 652 80 653 89 653 c 0
 116 653 116 653 130 653 c 128
 139 653 147 652 155 652 c 128
 163 652 174 652 187 652 c 256
 200 652 214 653 228 654 c 128
 242 655 254 655 266 656 c 128
 278 657 289 658 298 658 c 0
 374 658 436 642 482 611 c 128
 528 580 551 536 551 480 c 0
 551 439 543 402 527 368 c 128
 511 334 487 306 454 285 c 128
 421 264 378 254 327 254 c 0
 312 254 302 256 294 260 c 128
 286 264 282 269 282 273 c 0
 282 276 284 279 288 282 c 128
 292 285 295 287 298 287 c 256
 301 287 307 287 314 286 c 128
 321 285 331 285 344 285 c 0
 384 285 414 302 434 335 c 128
 454 368 465 414 465 473 c 0
 465 526 449 566 418 592 c 128
 387 618 347 630 298 630 c 0
 279 630 264 626 252 620 c 128
 240 614 234 603 234 588 c 2
 234 111 l 2
 234 87 239 68 249 53 c 128
 259 38 276 29 301 24 c 0
 312 22 321 20 326 17 c 128
 331 14 334 11 334 6 c 0
 334 2 331 0 326 -2 c 128
 321 -4 314 -5 305 -5 c 0
 287 -5 274 -4 264 -3 c 128
 254 -2 246 -1 238 0 c 128
 230 1 220 2 207 2 c 0
 190 2 175 1 162 0 c 128
 149 -1 137 -2 124 -3 c 128
 111 -4 95 -5 77 -5 c 0
EndSplineSet
EndChar

StartChar: Q
Encoding: 81 81 16
Width: 600
GlyphClass: 1
Flags: W
LayerCount: 2
Fore
SplineSet
582 -248 m 0
 546 -248 514 -242 485 -228 c 128
 456 -214 429 -195 403 -172 c 0
 383 -154 364 -136 346 -120 c 128
 328 -104 308 -84 285 -59 c 0
 270 -42 255 -28 240 -17 c 128
 225 -6 210 3 195 10 c 0
 175 21 156 35 136 52 c 128
 116 69 98 90 82 114 c 128
 66 138 54 168 45 201 c 128
 36 234 31 272 31 315 c 0
 31 360 36 404 48 446 c 128
 60 488 77 524 100 557 c 128
 123 590 152 616 186 635 c 128
 220 654 259 664 303 664 c 0
 339 664 372 656 404 640 c 128
 436 624 464 603 489 574 c 128
 514 545 534 510 548 470 c 128
 562 430 569 384 569 335 c 0
 569 286 562 239 548 194 c 128
 534 149 514 110 487 77 c 128
 460 44 426 19 387 3 c 0
 382 2 380 -1 380 -5 c 0
 380 -8 381 -11 383 -14 c 0
 397 -33 411 -50 426 -67 c 128
 441 -84 459 -101 478 -120 c 0
 504 -145 528 -162 551 -172 c 128
 574 -182 599 -186 626 -186 c 0
 635 -186 642 -185 649 -184 c 128
 656 -183 661 -182 665 -181 c 0
 668 -180 670 -178 672 -178 c 128
 674 -178 677 -178 680 -178 c 0
 689 -178 693 -182 694 -190 c 0
 694 -196 692 -200 690 -204 c 128
 688 -208 684 -212 679 -217 c 0
 666 -228 651 -235 634 -240 c 128
 617 -245 599 -248 582 -248 c 0
309 29 m 0
 364 29 406 52 433 98 c 128
 460 144 474 207 474 285 c 0
 474 330 470 372 462 412 c 128
 454 452 443 489 428 520 c 128
 413 551 394 574 371 592 c 128
 348 610 321 619 290 619 c 0
 236 619 196 596 168 550 c 128
 140 504 126 443 126 366 c 0
 126 321 130 278 137 238 c 128
 144 198 156 161 171 130 c 128
 186 99 205 74 228 56 c 128
 251 38 278 29 309 29 c 0
EndSplineSet
EndChar

StartChar: R
Encoding: 82 82 17
Width: 600
GlyphClass: 2
Flags: W
LayerCount: 2
Fore
SplineSet
526 -21 m 0
 506 -21 488 -19 473 -14 c 128
 458 -9 444 -1 432 9 c 128
 420 19 408 31 398 46 c 0
 385 66 374 85 362 104 c 128
 350 123 338 144 325 168 c 128
 312 192 297 220 280 254 c 0
 273 271 263 283 250 291 c 0
 241 297 232 302 222 304 c 128
 212 306 204 307 198 308 c 0
 194 308 192 306 190 302 c 128
 188 298 187 294 187 288 c 2
 187 107 l 2
 187 86 191 68 200 54 c 128
 209 40 224 32 245 27 c 0
 253 25 259 23 263 20 c 128
 267 17 269 13 269 8 c 0
 269 4 267 1 263 -1 c 128
 259 -3 254 -4 247 -4 c 0
 233 -4 220 -3 210 -2 c 128
 200 -1 190 -1 180 0 c 128
 170 1 161 2 150 2 c 0
 137 2 124 1 112 0 c 128
 94 -2 96 0 78 -2 c 128
 66 -3 53 -4 39 -4 c 0
 33 -4 28 -4 24 -2 c 128
 20 0 17 3 17 8 c 0
 17 17 25 23 41 27 c 0
 62 32 77 39 86 49 c 128
 95 59 99 76 99 99 c 2
 99 533 l 2
 99 556 98 572 96 584 c 128
 94 596 89 605 82 610 c 128
 75 615 65 618 50 621 c 0
 41 622 35 624 31 628 c 128
 27 632 25 636 25 641 c 0
 25 645 28 648 32 650 c 128
 36 652 41 654 47 654 c 0
 63 654 75 654 84 653 c 128
 93 652 101 652 109 652 c 128
 117 652 127 651 139 651 c 0
 150 651 159 651 168 652 c 128
 177 653 187 655 198 656 c 128
 209 657 223 657 240 657 c 0
 301 657 348 643 381 616 c 128
 414 589 430 549 430 494 c 0
 430 464 424 438 414 417 c 128
 404 396 391 378 376 364 c 128
 361 350 345 339 330 331 c 0
 328 330 328 328 328 326 c 128
 328 324 329 321 330 318 c 0
 347 287 362 258 378 230 c 128
 394 202 410 176 428 150 c 128
 446 124 467 99 490 73 c 0
 505 56 521 45 538 42 c 128
 555 39 573 37 592 37 c 0
 600 37 604 32 604 23 c 0
 604 12 600 2 592 -4 c 128
 584 -10 572 -14 560 -17 c 128
 548 -20 537 -21 526 -21 c 0
226 334 m 0
 249 334 269 341 286 354 c 128
 303 367 317 384 326 406 c 128
 335 428 339 451 339 476 c 0
 339 505 336 530 330 552 c 128
 324 574 313 592 297 604 c 128
 281 616 258 622 228 622 c 0
 213 622 202 615 197 602 c 128
 192 589 189 565 188 529 c 0
 187 513 187 492 187 465 c 128
 187 425 187 425 187 370 c 0
 187 354 191 344 198 340 c 128
 205 336 214 334 226 334 c 0
EndSplineSet
EndChar

StartChar: S
Encoding: 83 83 18
Width: 600
GlyphClass: 2
Flags: W
LayerCount: 2
Fore
SplineSet
272 -16 m 0
 244 -16 218 -12 194 -4 c 128
 170 4 150 17 131 32 c 0
 128 35 126 38 124 41 c 128
 122 44 119 48 118 52 c 0
 115 65 113 83 112 104 c 128
 111 125 109 143 108 157 c 0
 108 162 110 166 114 168 c 128
 118 170 123 171 128 171 c 0
 131 171 135 170 138 168 c 128
 141 166 143 164 144 160 c 0
 157 109 178 72 204 50 c 128
 230 28 257 17 286 17 c 0
 309 17 330 22 348 32 c 128
 366 42 380 56 390 74 c 128
 400 92 406 114 406 139 c 0
 406 166 401 189 392 206 c 128
 383 223 371 237 354 250 c 128
 337 263 317 276 293 291 c 0
 267 308 241 325 216 342 c 128
 191 359 170 378 153 400 c 128
 136 422 128 450 128 482 c 0
 128 516 136 547 151 574 c 128
 166 601 189 624 220 640 c 128
 251 656 290 664 337 664 c 0
 361 664 382 661 400 656 c 128
 418 651 431 647 442 642 c 0
 447 640 452 637 456 632 c 128
 460 627 462 622 463 617 c 0
 467 603 471 587 476 569 c 128
 481 551 483 534 483 518 c 0
 483 511 478 507 468 507 c 0
 462 507 456 508 450 511 c 128
 444 514 441 517 440 521 c 0
 426 556 410 583 391 602 c 128
 372 621 349 630 320 630 c 0
 300 630 281 626 264 619 c 128
 247 612 233 600 222 583 c 128
 211 566 205 544 205 516 c 0
 205 496 211 478 224 462 c 128
 237 446 255 430 276 415 c 128
 297 400 320 385 345 370 c 0
 368 356 392 341 414 324 c 128
 436 307 454 287 468 264 c 128
 482 241 490 213 490 180 c 0
 490 141 481 106 463 76 c 128
 445 46 420 24 387 8 c 128
 354 -8 316 -16 272 -16 c 0
EndSplineSet
EndChar

StartChar: T
Encoding: 84 84 19
Width: 600
GlyphClass: 2
Flags: W
LayerCount: 2
Fore
SplineSet
186 -4 m 0
 179 -4 174 -4 170 -2 c 128
 166 0 163 3 163 8 c 256
 163 13 165 17 170 20 c 128
 175 23 181 25 189 27 c 0
 212 32 229 39 240 50 c 128
 251 61 256 78 256 101 c 2
 256 497 l 2
 256 526 255 549 254 564 c 128
 253 579 252 588 250 594 c 128
 248 600 244 604 239 605 c 0
 232 607 224 608 215 608 c 128
 206 608 196 609 185 609 c 2
 150 609 l 2
 135 609 119 606 104 598 c 128
 89 590 78 579 71 565 c 0
 68 561 64 555 60 548 c 128
 56 541 51 535 46 530 c 128
 41 525 35 523 30 523 c 0
 27 523 26 524 24 527 c 128
 22 530 21 533 21 537 c 0
 21 544 23 552 27 559 c 0
 36 580 43 599 47 615 c 128
 51 631 54 650 57 672 c 0
 58 683 61 689 64 692 c 128
 67 695 71 696 74 696 c 0
 77 696 81 692 86 684 c 128
 91 676 95 668 98 663 c 0
 103 657 111 652 124 649 c 128
 137 646 150 644 161 644 c 2
 480 645 l 2
 498 645 513 646 525 649 c 128
 537 652 547 655 555 659 c 0
 563 664 569 668 574 674 c 128
 579 680 585 683 593 683 c 0
 596 683 597 680 598 676 c 128
 599 672 600 667 600 662 c 0
 600 659 600 655 599 650 c 128
 598 645 598 640 597 637 c 0
 594 624 592 614 590 607 c 128
 588 600 587 592 586 586 c 128
 585 580 585 572 585 562 c 2
 585 548 l 2
 585 540 584 532 582 525 c 128
 580 518 576 514 571 514 c 256
 566 514 563 517 560 524 c 128
 557 531 554 542 551 555 c 0
 548 572 540 586 528 595 c 128
 516 604 495 609 467 609 c 2
 393 609 l 2
 381 609 372 606 366 602 c 128
 360 598 355 588 353 572 c 128
 351 556 350 532 350 497 c 2
 350 101 l 2
 350 78 356 62 367 51 c 128
 378 40 395 32 418 27 c 0
 426 25 432 23 437 20 c 128
 442 17 444 13 444 8 c 0
 444 4 442 1 438 -1 c 128
 434 -3 428 -4 421 -4 c 0
 406 -4 393 -3 380 -2 c 128
 367 -1 356 -1 344 0 c 128
 332 1 320 1 307 1 c 0
 293 1 280 1 267 0 c 128
 254 -1 241 -1 228 -2 c 128
 215 -3 201 -4 186 -4 c 0
EndSplineSet
EndChar

StartChar: U
Encoding: 85 85 20
Width: 600
GlyphClass: 2
Flags: W
LayerCount: 2
Fore
SplineSet
302 -14 m 0
 253 -14 213 -3 180 18 c 128
 147 39 121 69 104 108 c 128
 87 147 79 193 79 245 c 2
 79 544 l 2
 79 566 75 583 68 596 c 128
 61 609 52 616 41 619 c 0
 24 625 15 632 15 641 c 0
 15 646 18 649 22 651 c 128
 26 653 31 654 38 654 c 0
 52 654 66 653 81 652 c 128
 96 651 111 650 126 650 c 0
 139 650 153 651 168 652 c 128
 183 653 196 653 207 653 c 0
 214 653 220 652 224 650 c 128
 228 648 229 645 229 640 c 0
 229 635 226 631 220 628 c 128
 214 625 208 621 199 617 c 0
 192 614 184 606 177 594 c 128
 170 582 166 564 166 543 c 2
 166 269 l 2
 166 218 172 177 186 144 c 128
 200 111 218 87 242 72 c 128
 266 57 293 49 323 49 c 0
 376 49 415 70 440 114 c 128
 465 158 478 218 478 295 c 0
 478 318 478 318 478 353 c 128
 478 388 478 388 478 427 c 128
 478 453 478 478 477 501 c 0
 476 523 474 542 472 558 c 128
 470 574 466 586 460 597 c 128
 454 608 448 615 439 618 c 0
 431 622 431 622 421 627 c 128
 414 630 411 635 411 640 c 0
 411 644 414 647 418 649 c 128
 422 651 428 652 435 652 c 0
 450 652 462 652 470 651 c 128
 478 650 489 650 502 650 c 0
 511 650 520 650 527 651 c 128
 534 652 541 652 548 653 c 128
 555 654 563 654 570 654 c 0
 577 654 582 653 586 651 c 128
 590 649 593 646 593 641 c 0
 593 632 585 626 568 621 c 0
 552 616 540 607 534 594 c 128
 528 581 525 563 524 541 c 0
 521 486 520 436 519 390 c 128
 518 344 517 299 516 254 c 0
 515 202 505 156 486 115 c 128
 467 74 442 43 410 20 c 128
 378 -3 343 -14 302 -14 c 0
EndSplineSet
EndChar

StartChar: V
Encoding: 86 86 21
Width: 600
GlyphClass: 2
Flags: W
LayerCount: 2
Fore
SplineSet
289 -14 m 0
 283 -14 278 -11 275 -4 c 0
 272 5 268 16 264 30 c 128
 260 44 256 56 253 66 c 2
 89 548 l 2
 83 566 75 582 65 594 c 128
 55 606 42 614 26 619 c 0
 18 622 12 625 7 628 c 128
 2 631 0 636 0 641 c 0
 0 646 2 648 6 650 c 128
 10 652 16 653 23 653 c 0
 34 653 46 653 58 652 c 128
 70 651 83 650 97 650 c 128
 111 650 125 650 138 650 c 0
 150 650 163 650 176 651 c 128
 189 652 202 652 214 652 c 128
 226 652 236 653 244 653 c 0
 251 653 256 652 261 650 c 128
 266 648 268 645 268 641 c 0
 268 636 266 632 261 628 c 128
 256 624 250 621 241 620 c 0
 224 617 211 613 201 607 c 128
 191 601 186 592 186 581 c 0
 186 572 187 564 189 557 c 128
 191 550 193 544 194 539 c 2
 316 166 l 2
 317 163 318 161 320 160 c 128
 322 159 324 162 325 167 c 2
 439 508 l 2
 451 543 452 570 443 588 c 128
 434 606 418 616 397 619 c 0
 389 620 382 622 377 626 c 128
 372 630 369 635 369 640 c 0
 369 644 371 647 376 649 c 128
 381 651 388 652 395 652 c 0
 404 652 413 652 422 652 c 128
 431 652 440 650 449 650 c 128
 458 650 469 650 481 650 c 0
 498 650 515 651 533 652 c 128
 551 653 566 654 579 654 c 0
 586 654 593 654 598 652 c 128
 603 650 605 646 605 641 c 0
 605 636 603 633 598 630 c 128
 593 627 586 624 578 621 c 0
 557 616 540 604 526 588 c 128
 512 572 502 553 495 531 c 2
 341 107 l 2
 337 96 333 84 328 71 c 128
 323 58 318 45 314 32 c 128
 310 19 306 7 301 -4 c 0
 300 -7 298 -10 296 -12 c 128
 294 -14 292 -14 289 -14 c 0
EndSplineSet
EndChar

StartChar: W
Encoding: 87 87 22
Width: 600
GlyphClass: 2
Flags: W
LayerCount: 2
Fore
SplineSet
218 -16 m 0
 216 -16 214 -14 213 -8 c 128
 212 -2 210 4 208 11 c 2
 64 554 l 2
 59 571 54 585 47 596 c 128
 40 607 31 614 20 619 c 0
 14 622 10 625 6 628 c 128
 2 631 0 636 0 641 c 0
 0 646 2 648 6 650 c 128
 10 652 13 653 18 653 c 0
 29 653 39 653 50 652 c 128
 61 651 72 650 83 650 c 0
 95 650 107 651 118 652 c 128
 129 653 140 653 149 653 c 0
 154 653 159 652 162 650 c 128
 165 648 167 645 167 641 c 0
 167 636 165 632 162 629 c 128
 159 626 154 623 147 620 c 0
 141 618 138 614 136 608 c 128
 134 602 133 595 133 588 c 0
 133 579 134 571 135 563 c 128
 136 555 137 551 138 550 c 0
 147 514 156 480 164 448 c 128
 172 416 180 386 188 356 c 128
 196 326 204 297 212 266 c 128
 220 235 230 201 239 166 c 0
 241 159 242 155 244 155 c 128
 246 155 248 158 249 165 c 2
 293 326 l 2
 294 331 295 334 296 338 c 128
 297 342 297 345 297 348 c 0
 297 351 297 355 296 359 c 128
 295 363 294 368 293 373 c 2
 247 543 l 2
 242 562 234 579 223 592 c 128
 212 605 201 614 190 619 c 0
 184 622 179 625 176 628 c 128
 173 631 171 636 171 641 c 0
 171 646 173 648 176 650 c 128
 179 652 183 653 188 653 c 0
 195 653 202 653 210 652 c 128
 218 651 226 650 234 650 c 128
 242 650 250 650 258 650 c 0
 269 650 278 651 288 652 c 128
 298 653 307 653 315 653 c 0
 321 653 326 652 330 650 c 128
 334 648 335 645 335 641 c 0
 335 636 334 631 330 628 c 128
 326 625 322 622 318 619 c 128
 314 616 311 611 310 605 c 1
 307 603 306 600 306 597 c 128
 306 594 306 590 307 587 c 0
 308 583 310 576 312 565 c 128
 314 554 317 542 320 530 c 128
 323 518 326 506 329 495 c 128
 332 484 334 475 336 470 c 0
 339 461 341 457 342 458 c 128
 343 459 345 463 347 470 c 0
 350 481 353 495 357 510 c 128
 361 525 364 540 367 554 c 128
 370 568 372 578 373 583 c 0
 374 586 374 590 375 595 c 0
 375 604 372 610 368 614 c 128
 364 618 360 622 356 626 c 128
 352 630 349 634 349 640 c 0
 349 644 350 647 353 649 c 128
 356 651 360 652 366 652 c 0
 375 652 382 652 386 651 c 128
 390 650 394 650 400 650 c 0
 407 650 413 651 418 652 c 128
 423 653 431 654 440 654 c 0
 445 654 450 653 453 651 c 128
 456 649 458 646 458 641 c 0
 458 636 456 632 453 629 c 128
 450 626 445 624 439 621 c 0
 426 616 417 610 412 602 c 128
 407 594 401 582 395 568 c 0
 392 559 388 548 384 533 c 128
 380 518 376 503 372 486 c 128
 368 469 363 454 359 439 c 0
 357 433 356 426 356 418 c 128
 356 410 356 402 357 397 c 2
 416 163 l 2
 417 158 419 156 420 158 c 128
 421 160 422 163 423 167 c 0
 435 216 448 273 462 339 c 128
 476 405 491 472 504 540 c 0
 506 550 507 558 508 564 c 128
 509 570 509 576 509 581 c 0
 508 590 506 599 504 606 c 128
 502 613 497 617 490 619 c 0
 486 621 482 624 477 627 c 128
 472 630 470 635 470 640 c 0
 470 644 472 647 476 649 c 128
 480 651 484 652 489 652 c 0
 499 652 508 652 514 651 c 128
 520 650 526 650 533 650 c 0
 542 651 551 651 560 652 c 128
 569 653 578 654 587 654 c 0
 592 654 597 654 601 652 c 128
 605 650 607 646 607 641 c 0
 607 636 606 633 602 630 c 128
 598 627 593 624 587 621 c 0
 578 618 569 611 562 602 c 128
 555 593 550 583 546 572 c 128
 542 561 539 550 536 540 c 2
 413 9 l 2
 412 5 410 0 408 -5 c 128
 406 -10 404 -13 402 -13 c 0
 400 -13 398 -12 396 -8 c 128
 394 -4 391 1 390 6 c 0
 381 38 374 68 366 96 c 128
 358 124 350 155 342 186 c 128
 334 217 325 253 314 292 c 0
 313 297 311 299 310 298 c 128
 309 297 308 294 307 288 c 0
 298 254 289 222 281 194 c 128
 273 166 266 137 258 108 c 128
 250 79 241 47 232 12 c 0
 230 5 228 -1 226 -7 c 128
 224 -13 221 -16 218 -16 c 0
EndSplineSet
EndChar

StartChar: X
Encoding: 88 88 23
Width: 600
GlyphClass: 2
Flags: W
LayerCount: 2
Fore
SplineSet
20 -6 m 0
 13 -6 8 -5 3 -3 c 128
 -2 -1 -4 2 -4 7 c 0
 -4 12 -2 17 3 20 c 128
 8 23 14 26 22 29 c 0
 32 32 43 38 56 46 c 128
 69 54 83 65 96 78 c 128
 109 91 122 106 135 124 c 2
 238 280 l 2
 244 290 248 300 250 310 c 128
 252 320 248 331 240 344 c 2
 126 536 l 2
 115 555 104 571 95 582 c 128
 86 593 77 602 68 608 c 128
 59 614 50 618 40 621 c 0
 32 624 26 627 22 630 c 128
 18 633 15 638 15 643 c 0
 15 647 17 650 21 652 c 128
 25 654 30 655 37 655 c 0
 55 655 76 654 100 652 c 128
 124 650 146 649 169 649 c 0
 186 649 203 650 219 651 c 128
 235 652 248 653 259 653 c 0
 266 653 271 652 276 650 c 128
 281 648 283 645 283 641 c 0
 283 636 281 631 276 628 c 128
 271 625 265 623 257 620 c 0
 242 615 232 610 224 606 c 128
 216 602 212 595 212 586 c 0
 212 576 220 559 235 534 c 2
 312 405 l 2
 318 395 323 390 326 390 c 128
 329 390 333 395 338 402 c 2
 420 534 l 2
 427 545 432 554 435 563 c 128
 438 572 440 579 440 586 c 0
 440 594 437 600 432 606 c 128
 427 612 417 616 404 619 c 0
 399 621 393 624 386 627 c 128
 379 630 376 635 376 640 c 0
 376 644 379 647 384 649 c 128
 389 651 394 652 401 652 c 0
 409 652 417 652 424 652 c 128
 431 652 438 650 446 650 c 128
 454 650 463 650 472 650 c 0
 488 650 504 651 520 653 c 128
 536 655 550 656 563 656 c 0
 570 656 576 656 581 654 c 128
 586 652 588 649 588 644 c 0
 588 639 585 635 580 632 c 128
 575 629 569 627 562 624 c 0
 547 619 531 607 514 588 c 128
 497 569 480 548 465 526 c 2
 363 378 l 2
 356 368 351 360 350 354 c 128
 349 348 351 342 355 333 c 2
 488 105 l 2
 499 86 512 69 526 56 c 128
 540 43 553 34 566 29 c 0
 574 26 581 23 586 20 c 128
 591 17 594 12 594 7 c 0
 594 3 592 0 588 -2 c 128
 584 -4 578 -5 571 -5 c 0
 559 -5 546 -5 530 -4 c 128
 506 -2 506 -2 482 -0 c 128
 466 1 452 1 437 1 c 0
 420 1 403 1 388 0 c 128
 373 -1 359 -1 347 -1 c 0
 340 -1 335 0 330 2 c 128
 325 4 323 7 323 12 c 256
 323 17 326 21 332 24 c 128
 338 27 344 30 349 32 c 0
 358 35 367 41 376 48 c 128
 385 55 390 64 390 77 c 0
 390 82 389 86 388 91 c 128
 387 96 384 101 381 106 c 2
 293 258 l 2
 288 267 284 272 280 273 c 128
 276 274 272 270 268 262 c 2
 168 102 l 2
 164 95 161 90 160 84 c 128
 159 78 158 73 158 69 c 0
 159 60 162 52 169 45 c 128
 176 38 184 34 195 31 c 0
 203 28 209 25 214 22 c 128
 219 19 222 15 222 10 c 0
 222 6 220 3 216 1 c 128
 212 -1 205 -2 198 -2 c 0
 188 -2 176 -2 162 -1 c 128
 148 0 133 0 120 0 c 0
 102 0 85 -1 68 -3 c 128
 51 -5 35 -6 20 -6 c 0
EndSplineSet
EndChar

StartChar: Y
Encoding: 89 89 24
Width: 600
GlyphClass: 2
Flags: W
LayerCount: 2
Fore
SplineSet
182 -5 m 0
 173 -5 166 -4 161 -2 c 128
 156 0 153 2 153 6 c 0
 153 11 156 14 161 17 c 128
 166 20 175 22 186 24 c 0
 211 29 231 38 244 52 c 128
 257 66 264 84 264 108 c 2
 264 256 l 2
 264 269 261 284 254 300 c 128
 247 316 242 325 239 330 c 2
 122 522 l 2
 117 530 110 542 100 556 c 128
 90 570 80 583 68 596 c 128
 56 609 44 617 33 620 c 0
 22 623 14 627 8 630 c 128
 2 633 0 637 0 642 c 0
 0 646 3 648 8 650 c 128
 13 652 20 653 29 653 c 0
 44 653 62 653 82 652 c 128
 102 651 123 650 146 650 c 0
 161 650 176 650 190 651 c 128
 204 652 215 652 226 652 c 0
 235 652 242 652 247 650 c 128
 252 648 255 645 255 641 c 0
 255 636 252 633 247 630 c 128
 242 627 233 624 222 621 c 0
 213 618 205 615 199 612 c 128
 193 609 190 603 190 596 c 0
 190 587 194 575 203 560 c 2
 295 390 l 2
 308 365 318 352 323 352 c 0
 327 352 331 354 336 360 c 128
 341 366 347 376 356 390 c 0
 371 413 385 436 397 457 c 128
 409 478 423 504 440 534 c 0
 447 545 451 556 454 564 c 128
 457 572 458 579 458 585 c 0
 458 598 453 606 444 611 c 128
 435 616 426 619 417 620 c 0
 410 621 404 624 396 628 c 128
 388 632 384 635 384 640 c 0
 384 644 387 646 392 648 c 128
 397 650 404 651 413 651 c 0
 428 651 441 650 451 650 c 128
 461 650 473 650 488 650 c 0
 509 650 528 651 547 652 c 128
 566 653 581 653 592 653 c 0
 601 653 608 652 613 650 c 128
 618 648 621 646 621 642 c 0
 621 637 616 633 605 629 c 128
 594 625 582 621 568 617 c 0
 551 612 536 602 524 588 c 128
 512 574 498 553 480 526 c 0
 467 505 455 488 446 474 c 128
 437 460 430 447 422 435 c 128
 414 423 406 411 398 398 c 128
 390 385 380 369 369 350 c 0
 360 336 354 325 351 316 c 128
 348 307 346 300 345 292 c 128
 344 284 344 273 344 260 c 2
 344 108 l 2
 344 85 351 66 365 52 c 128
 379 38 398 29 423 24 c 0
 434 22 443 20 448 17 c 128
 453 14 456 11 456 6 c 0
 456 2 453 0 448 -2 c 128
 443 -4 436 -5 427 -5 c 0
 409 -5 394 -5 382 -4 c 128
 370 -3 360 -2 349 -1 c 128
 338 0 325 0 310 0 c 0
 293 0 278 0 266 -1 c 128
 254 -2 241 -3 228 -4 c 128
 215 -5 200 -5 182 -5 c 0
EndSplineSet
EndChar

StartChar: Z
Encoding: 90 90 25
Width: 600
GlyphClass: 2
Flags: W
LayerCount: 2
Fore
SplineSet
530 -5 m 0
 501 -5 475 -4 448 -4 c 128
 421 -4 395 -4 370 -4 c 128
 345 -4 323 -2 299 -2 c 128
 275 -2 252 -2 230 -2 c 0
 210 -2 190 -2 170 -2 c 128
 150 -2 130 -3 111 -3 c 2
 35 -3 l 2
 32 -3 31 -1 30 4 c 128
 28 11 28 11 28 11 c 2
 28 14 32 21 38 32 c 128
 44 43 52 56 61 69 c 128
 70 82 79 94 86 104 c 0
 120 151 150 193 179 232 c 128
 208 271 234 309 261 346 c 128
 288 383 313 422 341 462 c 128
 369 502 399 545 431 593 c 0
 432 594 433 596 434 597 c 128
 435 598 435 600 435 601 c 0
 435 603 434 605 431 606 c 128
 428 607 423 608 416 609 c 0
 398 610 376 610 350 610 c 128
 324 610 299 611 272 611 c 0
 243 611 243 611 216 611 c 128
 198 611 183 610 170 609 c 0
 154 608 136 602 116 590 c 128
 96 578 82 560 73 535 c 0
 70 529 66 522 62 514 c 128
 58 506 52 503 45 503 c 0
 42 503 40 504 38 506 c 128
 36 508 36 511 36 514 c 0
 36 518 36 523 38 528 c 128
 40 536 41 535 43 541 c 0
 46 548 48 559 52 572 c 128
 56 585 60 598 64 614 c 128
 68 630 69 645 70 659 c 0
 71 666 73 671 76 673 c 128
 79 675 82 676 85 676 c 256
 88 676 92 674 98 671 c 128
 104 668 110 665 115 662 c 0
 122 659 134 656 151 652 c 128
 168 648 184 646 201 646 c 256
 226 646 225 646 259 646 c 128
 293 646 292 646 326 646 c 0
 357 646 356 646 386 646 c 128
 406 646 425 646 444 646 c 128
 463 646 481 648 500 648 c 128
 519 648 537 648 556 649 c 0
 559 649 562 647 565 642 c 128
 568 637 569 634 567 631 c 2
 506 550 l 2
 471 503 440 461 412 423 c 128
 384 385 357 348 332 312 c 128
 307 276 281 239 255 200 c 128
 229 161 199 118 168 70 c 0
 166 67 165 63 165 58 c 0
 165 54 166 50 168 47 c 128
 170 44 173 42 176 41 c 0
 191 40 210 39 229 38 c 128
 248 37 269 36 291 36 c 0
 314 36 336 37 360 38 c 128
 384 39 408 40 431 41 c 0
 488 46 529 82 554 150 c 0
 555 154 559 159 563 164 c 128
 567 169 571 171 576 171 c 0
 582 171 585 167 585 158 c 0
 585 155 584 147 581 134 c 128
 578 121 575 107 571 90 c 128
 567 73 563 58 559 43 c 128
 555 28 551 18 548 12 c 0
 546 8 543 4 541 0 c 128
 539 -4 535 -5 530 -5 c 0
EndSplineSet
EndChar

StartChar: a
Encoding: 97 97 26
Width: 600
GlyphClass: 2
Flags: W
LayerCount: 2
Fore
SplineSet
203 -14 m 0
 189 -14 175 -9 161 0 c 128
 147 9 136 21 127 34 c 128
 118 47 112 60 112 72 c 0
 112 93 118 110 131 122 c 128
 144 134 165 145 193 155 c 2
 313 197 l 2
 330 202 342 207 344 211 c 128
 346 215 348 224 349 237 c 2
 352 301 l 2
 353 318 346 333 334 346 c 128
 322 359 298 365 276 365 c 0
 265 365 236 363 226 360 c 128
 216 357 207 352 200 347 c 0
 196 344 194 340 193 335 c 128
 192 330 191 324 191 318 c 0
 191 315 191 312 191 309 c 128
 191 306 192 303 192 300 c 0
 192 297 187 292 179 286 c 128
 171 280 161 276 151 272 c 128
 141 268 133 265 126 265 c 0
 123 265 120 266 118 268 c 128
 116 270 115 271 115 274 c 0
 115 285 118 296 125 308 c 128
 132 320 142 332 155 343 c 0
 170 357 188 369 205 380 c 128
 222 391 240 399 257 405 c 128
 274 411 315 414 330 414 c 0
 357 414 380 405 398 388 c 128
 416 371 425 350 424 325 c 2
 418 85 l 2
 417 71 421 60 429 51 c 128
 437 42 446 38 459 38 c 0
 478 38 492 42 501 49 c 0
 504 52 508 54 510 54 c 0
 513 54 517 53 519 51 c 128
 521 49 523 46 523 43 c 0
 523 36 518 28 510 21 c 0
 497 10 484 2 470 -4 c 128
 456 -10 445 -14 432 -14 c 0
 397 -14 377 3 356 38 c 1
 352 38 l 1
 326 20 302 6 278 -2 c 128
 254 -10 227 -14 203 -14 c 0
256 34 m 0
 271 34 288 36 299 40 c 128
 310 44 322 51 331 58 c 0
 334 61 340 66 342 72 c 128
 344 78 345 86 346 99 c 2
 350 148 l 2
 351 155 350 161 349 164 c 128
 348 167 344 169 338 169 c 0
 337 169 325 169 322 168 c 128
 319 167 314 166 308 164 c 0
 268 151 238 138 219 124 c 128
 200 110 190 98 190 87 c 0
 190 70 197 57 210 48 c 128
 223 39 242 34 256 34 c 0
EndSplineSet
EndChar

StartChar: b
Encoding: 98 98 27
Width: 600
GlyphClass: 2
Flags: W
LayerCount: 2
Fore
SplineSet
302 -14 m 0
 287 -14 273 -13 258 -10 c 128
 243 -7 229 -4 216 -1 c 0
 201 3 189 7 178 10 c 128
 167 13 159 15 156 15 c 0
 152 15 148 14 144 11 c 128
 140 8 137 5 134 2 c 256
 131 -1 128 -3 125 -3 c 256
 122 -3 119 -2 116 0 c 128
 113 2 111 6 111 9 c 0
 111 15 112 25 114 40 c 128
 116 55 118 68 118 81 c 2
 118 566 l 2
 118 583 114 598 105 611 c 128
 96 624 85 633 72 639 c 0
 69 640 67 642 64 644 c 128
 61 646 59 650 59 654 c 0
 59 657 60 660 63 661 c 128
 66 662 68 663 71 664 c 0
 80 666 91 670 106 675 c 128
 121 680 136 686 149 691 c 128
 162 696 171 700 176 702 c 0
 180 704 183 705 185 705 c 0
 186 705 188 704 189 703 c 128
 190 702 191 700 191 698 c 0
 191 695 191 684 190 664 c 128
 189 644 188 621 188 593 c 2
 188 388 l 2
 188 375 189 366 190 362 c 128
 191 358 194 356 197 355 c 0
 218 372 242 387 269 398 c 128
 296 409 321 414 343 414 c 0
 377 414 407 405 434 388 c 128
 461 371 483 348 499 318 c 128
 515 288 523 254 523 217 c 0
 523 172 514 131 495 96 c 128
 476 61 451 34 418 15 c 128
 385 -4 346 -14 302 -14 c 0
325 17 m 0
 350 17 372 24 390 40 c 128
 408 56 423 77 433 104 c 128
 443 131 448 162 448 195 c 0
 448 221 444 248 434 275 c 128
 424 302 408 325 388 344 c 128
 368 363 342 372 310 372 c 0
 283 372 260 368 240 359 c 128
 220 350 203 339 188 326 c 1
 188 132 l 2
 188 109 195 88 208 71 c 128
 221 54 237 40 258 31 c 128
 279 22 302 17 325 17 c 0
EndSplineSet
EndChar

StartChar: c
Encoding: 99 99 28
Width: 600
GlyphClass: 2
Flags: W
LayerCount: 2
Fore
SplineSet
310 -15 m 0
 272 -15 237 -7 206 10 c 128
 175 27 150 50 132 80 c 128
 114 110 106 143 106 180 c 0
 106 223 117 263 139 298 c 128
 161 333 189 361 226 382 c 128
 263 403 303 414 348 414 c 0
 397 414 448 402 481 379 c 0
 489 373 493 367 493 360 c 0
 493 355 491 349 486 342 c 128
 481 335 476 330 469 326 c 128
 462 322 456 319 450 319 c 0
 447 319 443 320 440 322 c 128
 437 324 433 327 429 330 c 0
 414 341 398 352 380 362 c 128
 362 372 325 377 311 377 c 0
 273 377 236 362 212 332 c 128
 188 302 175 261 175 212 c 0
 175 181 182 152 199 127 c 128
 216 102 240 82 267 67 c 128
 294 52 328 45 360 45 c 0
 382 45 414 48 428 54 c 128
 442 60 457 72 472 88 c 0
 473 89 475 91 477 92 c 128
 479 93 481 93 482 93 c 0
 489 93 493 88 493 79 c 0
 493 75 491 71 489 66 c 128
 487 61 483 55 478 48 c 0
 467 35 456 24 441 14 c 128
 426 4 411 -3 393 -8 c 128
 375 -13 334 -15 310 -15 c 0
EndSplineSet
EndChar

StartChar: d
Encoding: 100 100 29
Width: 600
GlyphClass: 2
Flags: W
LayerCount: 2
Fore
SplineSet
404 -19 m 0
 403 -19 401 -18 398 -15 c 128
 395 -12 393 -10 393 -9 c 0
 393 -2 394 8 396 20 c 128
 398 32 398 42 398 51 c 2
 398 57 l 1
 388 42 372 26 350 10 c 128
 328 -6 300 -14 267 -14 c 0
 229 -14 196 -4 168 16 c 128
 140 36 119 62 104 93 c 128
 89 124 82 157 82 190 c 0
 82 229 91 265 109 299 c 128
 127 333 152 361 186 382 c 128
 220 403 260 414 307 414 c 0
 320 414 334 412 348 410 c 128
 362 408 372 406 379 403 c 0
 385 401 389 400 392 400 c 0
 397 400 399 408 399 424 c 2
 399 566 l 2
 399 593 395 612 386 621 c 128
 377 630 365 636 349 639 c 0
 343 640 340 645 340 652 c 0
 340 658 343 662 348 664 c 0
 377 671 400 678 417 685 c 128
 434 692 447 697 456 701 c 0
 459 702 462 704 464 704 c 128
 466 704 468 704 469 704 c 0
 473 704 475 702 476 698 c 0
 476 694 475 688 474 678 c 128
 473 668 472 654 471 635 c 128
 470 616 469 592 469 562 c 2
 469 110 l 2
 469 87 471 70 474 60 c 128
 477 50 483 45 490 45 c 0
 493 45 500 45 508 46 c 128
 516 47 524 47 533 48 c 0
 545 49 551 46 551 39 c 0
 551 34 549 30 546 26 c 128
 543 22 540 21 537 21 c 0
 518 18 500 15 482 10 c 128
 464 5 443 -3 420 -13 c 0
 415 -16 412 -17 410 -18 c 128
 408 -19 406 -19 404 -19 c 0
303 38 m 0
 320 38 337 43 354 52 c 128
 371 61 385 72 398 87 c 1
 399 267 l 2
 399 285 394 303 384 320 c 128
 374 337 358 351 340 362 c 128
 322 373 301 379 276 379 c 0
 261 379 243 374 224 365 c 128
 205 356 188 340 174 316 c 128
 160 292 153 258 153 213 c 0
 153 175 159 145 170 122 c 128
 181 99 196 81 212 69 c 128
 228 57 245 48 262 44 c 128
 279 40 292 38 303 38 c 0
EndSplineSet
EndChar

StartChar: e
Encoding: 101 101 30
Width: 600
GlyphClass: 2
Flags: W
LayerCount: 2
Fore
SplineSet
320 -15 m 0
 277 -15 241 -6 210 12 c 128
 179 30 153 55 136 88 c 128
 119 121 110 160 110 203 c 0
 110 242 119 276 140 308 c 128
 161 340 189 366 222 385 c 128
 255 404 292 414 332 414 c 0
 363 414 390 409 414 398 c 128
 438 387 455 373 469 354 c 128
 483 335 490 313 490 288 c 0
 490 267 478 257 455 257 c 2
 203 257 l 2
 192 257 185 255 180 250 c 128
 175 245 174 235 174 220 c 0
 174 188 182 158 199 132 c 128
 216 106 240 86 267 70 c 128
 294 54 329 46 361 46 c 0
 384 46 416 50 432 58 c 128
 448 66 463 76 476 91 c 0
 479 94 481 97 482 98 c 128
 483 99 485 99 487 99 c 0
 492 99 495 96 495 89 c 0
 495 76 489 62 477 47 c 0
 466 34 454 23 440 14 c 128
 426 5 412 -3 394 -8 c 128
 376 -13 341 -15 320 -15 c 0
207 288 m 2
 319 288 l 2
 337 288 357 288 371 289 c 128
 385 290 399 291 413 293 c 0
 416 294 420 296 421 300 c 128
 422 304 424 308 424 315 c 0
 424 334 413 350 391 364 c 128
 369 378 341 385 315 385 c 0
 298 385 274 381 256 372 c 128
 238 363 223 351 210 338 c 128
 197 325 192 311 192 298 c 0
 192 291 197 288 207 288 c 2
EndSplineSet
EndChar

StartChar: f
Encoding: 102 102 31
Width: 600
GlyphClass: 1
Flags: W
LayerCount: 2
Fore
SplineSet
185 -3 m 0
 178 -3 173 -2 170 0 c 128
 167 2 165 4 165 8 c 0
 165 13 167 17 171 19 c 128
 175 21 181 23 188 24 c 0
 203 27 214 32 221 38 c 128
 228 44 231 55 231 68 c 2
 231 350 l 1
 224 350 217 350 208 350 c 128
 199 350 190 351 179 352 c 0
 177 353 175 355 171 359 c 128
 167 363 165 367 165 370 c 0
 165 371 166 373 168 374 c 128
 170 375 171 375 172 376 c 0
 184 382 194 387 203 392 c 128
 212 397 221 401 231 406 c 1
 231 464 239 512 253 551 c 128
 267 590 285 620 308 643 c 128
 331 666 355 682 380 692 c 128
 405 702 429 706 451 706 c 0
 488 706 516 700 534 689 c 128
 552 678 561 663 561 646 c 0
 561 633 558 623 551 616 c 128
 544 609 536 606 527 606 c 0
 521 606 516 608 511 613 c 128
 506 618 500 623 493 629 c 0
 484 638 474 646 461 654 c 128
 448 662 431 665 409 665 c 0
 378 665 351 651 331 624 c 128
 311 597 301 555 301 498 c 2
 301 410 l 2
 301 406 303 403 305 402 c 128
 307 401 309 400 312 400 c 2
 437 400 l 2
 440 400 443 399 446 397 c 128
 449 395 450 392 450 389 c 0
 450 384 450 379 449 374 c 128
 448 369 446 364 444 360 c 0
 442 355 439 352 435 352 c 2
 320 352 l 2
 312 352 307 350 305 348 c 128
 303 346 301 343 301 339 c 2
 301 68 l 2
 301 55 305 44 314 38 c 128
 323 32 340 27 367 24 c 0
 382 22 390 17 390 8 c 0
 390 4 388 2 385 0 c 128
 382 -2 377 -3 370 -3 c 0
 350 -3 332 -2 317 0 c 128
 302 2 285 2 268 2 c 0
 257 2 247 2 240 1 c 128
 233 0 225 -1 217 -2 c 128
 209 -3 198 -3 185 -3 c 0
EndSplineSet
EndChar

StartChar: g
Encoding: 103 103 32
Width: 600
GlyphClass: 2
Flags: W
LayerCount: 2
Fore
SplineSet
277 -290 m 0
 220 -290 175 -280 142 -258 c 128
 109 -236 93 -207 93 -170 c 0
 93 -153 96 -138 101 -126 c 128
 106 -114 115 -104 126 -95 c 0
 135 -87 148 -76 164 -64 c 128
 180 -52 195 -39 212 -26 c 1
 254 -28 l 1
 222 -49 200 -68 187 -87 c 128
 174 -106 168 -128 168 -155 c 256
 168 -182 180 -204 204 -222 c 128
 228 -240 256 -250 291 -250 c 0
 330 -250 362 -241 386 -223 c 0
 403 -210 416 -194 425 -174 c 128
 434 -154 439 -132 439 -109 c 0
 439 -94 434 -82 424 -72 c 128
 414 -62 397 -55 375 -49 c 128
 353 -43 324 -39 289 -37 c 0
 226 -32 182 -24 158 -12 c 128
 134 0 122 19 122 44 c 0
 122 51 124 56 128 62 c 128
 132 68 137 74 145 81 c 0
 160 93 172 102 179 108 c 128
 186 114 192 118 196 122 c 128
 200 126 203 131 206 137 c 1
 240 120 l 1
 225 115 213 107 203 98 c 128
 193 89 188 81 188 74 c 0
 188 65 193 57 203 50 c 128
 213 43 228 37 247 33 c 128
 266 29 290 26 318 24 c 0
 379 21 425 11 455 -6 c 128
 485 -23 500 -46 500 -77 c 0
 500 -103 493 -129 480 -154 c 128
 467 -179 450 -201 429 -222 c 128
 408 -243 384 -260 358 -272 c 128
 332 -284 304 -290 277 -290 c 0
289 141 m 0
 314 141 335 154 352 180 c 128
 369 206 377 237 377 275 c 0
 377 294 373 313 364 330 c 128
 355 347 342 360 328 370 c 128
 314 380 299 386 282 386 c 0
 267 386 252 381 238 370 c 128
 224 359 214 344 206 327 c 128
 198 310 193 291 193 270 c 0
 193 247 197 226 206 206 c 128
 215 186 226 170 241 158 c 128
 256 146 272 141 289 141 c 0
283 106 m 0
 256 106 230 113 205 127 c 128
 180 141 160 159 144 182 c 128
 128 205 121 231 121 258 c 0
 121 289 130 316 146 340 c 128
 162 364 183 383 210 396 c 128
 237 409 265 416 295 416 c 0
 314 416 332 413 346 408 c 128
 360 403 374 399 388 395 c 0
 404 390 417 387 426 386 c 128
 435 385 445 385 455 385 c 0
 463 385 473 385 485 386 c 128
 497 387 505 388 510 388 c 0
 519 388 523 383 523 373 c 0
 523 367 520 361 513 354 c 0
 510 351 507 349 505 349 c 2
 478 349 l 2
 460 349 450 346 448 341 c 0
 447 338 447 335 446 330 c 128
 445 325 444 319 443 313 c 128
 442 307 442 301 442 295 c 0
 442 261 435 230 420 201 c 128
 405 172 386 149 362 132 c 128
 338 115 312 106 283 106 c 0
EndSplineSet
EndChar

StartChar: h
Encoding: 104 104 33
Width: 600
GlyphClass: 2
Flags: W
LayerCount: 2
Fore
SplineSet
82 -3 m 256
 69 -3 62 1 62 8 c 0
 62 14 70 19 85 24 c 0
 95 27 104 32 113 37 c 128
 122 42 127 52 128 65 c 2
 128 566 l 2
 128 584 125 600 119 614 c 128
 113 628 101 635 84 638 c 0
 78 639 75 644 75 652 c 0
 75 658 78 662 83 664 c 0
 92 667 104 671 117 675 c 128
 130 679 143 683 157 688 c 128
 171 693 183 698 194 703 c 0
 197 704 199 705 200 705 c 0
 202 705 204 704 205 703 c 128
 206 702 207 700 207 698 c 0
 207 694 207 688 205 681 c 128
 203 674 201 661 200 643 c 128
 199 625 198 598 198 562 c 2
 198 388 l 2
 198 377 198 370 199 365 c 128
 200 360 202 356 205 351 c 1
 216 359 229 368 245 378 c 128
 261 388 278 396 297 403 c 128
 316 410 336 414 357 414 c 0
 390 414 417 402 439 376 c 128
 461 350 471 317 471 278 c 2
 471 68 l 2
 471 55 475 44 484 38 c 128
 493 32 502 27 512 24 c 0
 519 22 525 20 529 18 c 128
 533 16 535 12 535 8 c 0
 535 1 528 -3 515 -3 c 256
 502 -3 492 -3 485 -2 c 128
 478 -1 471 0 465 1 c 128
 459 2 449 2 437 2 c 0
 426 2 417 2 410 1 c 128
 403 0 396 -1 389 -2 c 128
 382 -3 372 -3 359 -3 c 256
 346 -3 339 1 339 8 c 0
 339 13 341 16 345 18 c 128
 349 20 355 21 362 24 c 0
 372 27 381 32 389 38 c 128
 397 44 401 55 401 68 c 2
 401 272 l 2
 401 289 397 304 387 318 c 128
 377 332 365 342 351 350 c 128
 337 358 323 362 308 362 c 0
 295 362 281 360 264 356 c 128
 247 352 234 347 225 340 c 0
 214 331 207 322 203 313 c 128
 199 304 198 289 198 268 c 2
 198 65 l 2
 199 52 203 42 211 37 c 128
 219 32 227 27 237 24 c 0
 244 22 249 20 253 18 c 128
 257 16 259 12 259 8 c 0
 259 1 252 -3 239 -3 c 256
 226 -3 216 -3 209 -2 c 128
 202 -1 196 0 190 1 c 128
 184 2 175 2 163 2 c 0
 152 2 142 2 135 1 c 128
 128 0 121 -1 113 -2 c 128
 105 -3 95 -3 82 -3 c 256
EndSplineSet
EndChar

StartChar: k
Encoding: 107 107 36
Width: 600
GlyphClass: 2
Flags: W
LayerCount: 2
Fore
SplineSet
107 -3 m 0
 92 -3 84 1 84 8 c 0
 84 13 86 16 91 18 c 128
 96 20 102 22 107 24 c 0
 117 27 127 32 136 37 c 128
 145 42 150 52 150 65 c 2
 150 566 l 2
 150 589 147 606 140 617 c 128
 133 628 122 635 105 639 c 0
 99 640 96 645 96 652 c 0
 96 659 99 663 104 664 c 0
 121 668 136 672 149 676 c 128
 162 680 173 686 183 690 c 128
 193 694 204 698 214 702 c 0
 218 704 221 705 223 705 c 256
 225 705 226 704 227 703 c 128
 228 702 229 699 229 696 c 0
 229 689 228 676 225 656 c 128
 222 636 220 605 220 562 c 2
 220 234 l 2
 220 228 222 225 225 225 c 0
 229 225 235 227 241 230 c 128
 247 233 254 238 261 245 c 0
 288 268 311 289 329 308 c 128
 347 327 360 341 367 348 c 0
 370 352 373 356 374 358 c 128
 375 360 376 362 376 363 c 0
 376 366 373 369 367 372 c 128
 361 375 356 377 350 378 c 0
 342 380 338 383 338 388 c 0
 338 391 340 394 344 396 c 128
 348 398 353 400 360 400 c 2
 409 400 l 2
 420 400 431 401 443 403 c 128
 455 405 465 407 475 409 c 128
 485 411 494 412 500 412 c 0
 509 412 514 409 514 402 c 0
 514 398 512 395 507 392 c 128
 502 389 496 386 489 384 c 0
 476 381 464 376 453 370 c 128
 442 364 432 358 423 353 c 0
 419 350 409 344 395 332 c 128
 381 320 365 306 347 291 c 128
 329 276 311 261 295 247 c 0
 291 243 289 240 289 237 c 0
 289 236 289 235 290 234 c 128
 291 232 291 232 292 230 c 0
 309 209 328 187 348 165 c 128
 368 143 386 124 403 107 c 128
 420 90 432 79 439 72 c 0
 450 61 463 52 477 44 c 128
 491 36 504 29 514 26 c 0
 521 23 529 21 535 19 c 128
 541 17 544 13 544 8 c 0
 544 1 537 -3 524 -3 c 0
 498 -3 469 -3 437 -2 c 128
 405 -1 371 0 337 0 c 0
 325 0 319 3 319 9 c 0
 319 13 321 16 324 19 c 128
 327 22 331 24 336 25 c 0
 343 28 350 31 355 34 c 128
 360 37 363 42 363 48 c 0
 363 50 362 52 361 54 c 128
 360 56 358 59 356 62 c 2
 235 199 l 2
 231 204 228 206 225 206 c 0
 222 206 220 204 220 199 c 0
 219 190 219 179 219 168 c 128
 219 152 219 152 219 135 c 256
 219 118 219 118 219 100 c 128
 219 88 219 76 220 65 c 0
 220 52 223 42 230 37 c 128
 237 32 245 27 255 24 c 0
 260 22 266 20 271 18 c 128
 276 16 278 13 278 8 c 0
 278 3 275 0 269 -1 c 128
 263 -2 258 -3 255 -3 c 0
 242 -3 233 -3 227 -2 c 128
 221 -1 216 0 211 1 c 128
 206 2 197 2 185 2 c 0
 174 2 165 2 158 1 c 128
 151 0 144 -1 137 -2 c 128
 130 -3 120 -3 107 -3 c 0
EndSplineSet
EndChar

StartChar: l
Encoding: 108 108 37
Width: 600
GlyphClass: 2
Flags: W
LayerCount: 2
Fore
SplineSet
265 70 m 2
 265 566 l 2
 265 585 261 601 254 614 c 128
 247 627 236 636 219 639 c 0
 214 640 211 645 211 652 c 0
 211 659 213 663 218 664 c 0
 235 668 250 672 263 676 c 128
 276 680 287 685 298 690 c 128
 309 695 320 699 331 703 c 0
 334 704 336 705 337 705 c 256
 338 705 339 704 340 702 c 128
 341 700 342 699 342 698 c 0
 342 692 340 680 338 660 c 128
 336 640 335 607 335 562 c 2
 335 76 l 2
 335 65 339 55 347 46 c 128
 355 37 363 32 372 32 c 0
 387 32 398 35 405 40 c 128
 412 45 417 49 421 54 c 0
 424 57 427 58 431 55 c 128
 435 52 437 49 437 45 c 0
 437 42 434 36 427 26 c 128
 420 16 411 8 398 -1 c 128
 385 -10 368 -14 347 -14 c 0
 324 -14 305 -6 289 11 c 128
 273 28 265 47 265 70 c 2
EndSplineSet
Substitution2: "'ss01' Original glyphs-1" l.ss01
EndChar

StartChar: m
Encoding: 109 109 38
Width: 600
GlyphClass: 2
Flags: W
LayerCount: 2
Fore
SplineSet
33 -3 m 0
 29 -3 25 -2 22 -0 c 128
 19 2 18 4 18 9 c 256
 18 14 19 17 22 20 c 128
 25 23 30 25 35 27 c 0
 42 30 49 34 56 38 c 128
 63 42 66 52 66 65 c 2
 66 285 l 2
 66 302 65 316 62 328 c 128
 59 340 51 348 40 351 c 0
 38 352 36 353 34 355 c 128
 32 357 32 360 32 365 c 0
 32 373 34 378 39 379 c 0
 52 384 64 389 74 394 c 128
 84 399 93 406 102 412 c 128
 111 418 120 425 129 432 c 0
 130 433 132 433 133 434 c 128
 134 435 136 436 137 436 c 0
 140 436 142 433 142 428 c 256
 142 423 141 414 140 400 c 128
 139 386 139 374 139 365 c 0
 139 358 139 354 140 353 c 2
 142 353 l 1
 155 370 171 385 190 399 c 128
 209 413 231 420 258 420 c 0
 275 420 290 414 303 402 c 128
 316 390 326 373 334 348 c 1
 336 348 l 1
 352 369 370 387 390 400 c 128
 410 413 432 420 457 420 c 0
 474 420 488 414 500 401 c 128
 512 388 520 371 526 350 c 128
 532 329 536 305 536 280 c 2
 536 64 l 2
 536 51 539 42 546 38 c 128
 553 34 560 30 567 27 c 0
 572 25 577 23 580 20 c 128
 583 17 584 14 584 9 c 0
 584 5 582 2 580 0 c 128
 578 -2 575 -3 570 -3 c 0
 560 -3 552 -3 545 -2 c 128
 538 -1 532 0 526 1 c 128
 520 2 512 2 503 2 c 0
 494 2 486 2 480 1 c 128
 474 0 468 -1 461 -2 c 128
 454 -3 446 -3 436 -3 c 0
 432 -3 429 -2 426 0 c 128
 423 2 421 5 421 9 c 0
 421 14 423 18 426 20 c 128
 429 22 433 25 438 27 c 0
 445 30 452 34 458 38 c 128
 464 42 466 50 466 62 c 2
 466 271 l 2
 466 287 464 302 459 316 c 128
 454 330 448 340 440 348 c 128
 432 356 422 361 412 361 c 0
 401 361 392 359 382 355 c 128
 372 351 362 344 353 335 c 0
 341 323 335 303 336 274 c 2
 336 64 l 2
 336 51 340 42 346 38 c 128
 352 34 359 30 366 27 c 0
 371 25 375 23 378 20 c 128
 381 17 383 14 383 9 c 0
 383 5 382 2 379 0 c 128
 376 -2 373 -3 369 -3 c 0
 359 -3 351 -3 344 -2 c 128
 337 -1 330 0 324 1 c 128
 318 2 311 2 302 2 c 0
 293 2 286 2 280 1 c 128
 274 0 267 -1 260 -2 c 128
 253 -3 245 -3 235 -3 c 0
 232 -3 228 -2 225 0 c 128
 222 2 220 5 220 9 c 0
 220 14 222 18 226 20 c 128
 230 22 233 25 237 27 c 0
 244 30 251 34 257 38 c 128
 263 42 266 50 266 62 c 2
 266 271 l 2
 266 287 263 302 258 315 c 128
 253 328 247 339 239 348 c 128
 231 357 222 361 212 361 c 256
 202 361 192 359 182 355 c 128
 172 351 162 344 153 335 c 0
 142 324 136 304 136 275 c 2
 136 64 l 2
 136 51 138 42 144 38 c 128
 150 34 157 30 164 27 c 0
 168 25 172 22 176 20 c 128
 180 18 181 14 181 9 c 0
 181 5 180 2 177 0 c 128
 174 -2 171 -3 167 -3 c 0
 157 -3 149 -3 142 -2 c 128
 135 -1 130 0 124 1 c 128
 118 2 110 2 101 2 c 0
 92 2 84 2 78 1 c 128
 72 0 65 -1 58 -2 c 128
 51 -3 43 -3 33 -3 c 0
EndSplineSet
EndChar

StartChar: n
Encoding: 110 110 39
Width: 600
GlyphClass: 2
Flags: W
LayerCount: 2
Fore
SplineSet
80 -3 m 0
 74 -3 70 -2 66 0 c 128
 62 2 60 4 60 8 c 0
 60 13 62 16 66 18 c 128
 70 20 76 22 83 24 c 0
 93 27 103 30 112 35 c 128
 121 40 126 49 126 62 c 2
 126 277 l 2
 126 295 124 310 120 323 c 128
 116 336 106 344 89 349 c 0
 86 350 84 352 82 354 c 128
 80 356 79 358 79 362 c 0
 79 369 82 373 88 374 c 0
 111 380 130 387 145 396 c 128
 160 405 174 414 188 425 c 0
 190 426 192 427 194 428 c 128
 196 429 197 430 199 430 c 0
 200 430 201 429 202 428 c 128
 203 427 204 425 204 423 c 0
 204 418 204 408 202 394 c 128
 200 380 199 368 199 359 c 0
 199 356 200 354 200 352 c 128
 200 350 200 348 201 347 c 0
 224 369 250 386 276 397 c 128
 302 408 331 414 362 414 c 0
 395 414 422 401 443 374 c 128
 464 347 475 314 475 275 c 2
 475 62 l 2
 475 49 480 40 489 36 c 128
 498 32 508 27 518 24 c 0
 523 22 529 20 534 18 c 128
 539 16 541 11 541 6 c 0
 541 2 539 -1 534 -2 c 128
 529 -3 525 -3 521 -3 c 0
 508 -3 497 -3 490 -2 c 128
 483 -1 476 0 469 1 c 128
 462 2 453 2 441 2 c 0
 430 2 420 2 413 1 c 128
 406 0 398 -1 390 -2 c 128
 382 -3 372 -3 359 -3 c 0
 356 -3 351 -3 346 -2 c 128
 341 -1 339 2 339 6 c 0
 339 11 341 16 346 18 c 128
 351 20 357 22 362 24 c 0
 372 27 382 32 391 36 c 128
 400 40 405 49 405 62 c 2
 405 272 l 2
 405 301 396 324 380 340 c 128
 364 356 342 365 315 366 c 0
 291 366 270 362 252 354 c 128
 234 346 218 337 204 326 c 0
 201 323 199 320 198 316 c 128
 197 312 196 307 196 303 c 2
 196 62 l 2
 196 49 201 40 210 35 c 128
 219 30 229 27 239 24 c 0
 254 20 262 15 262 8 c 0
 262 4 260 2 257 0 c 128
 254 -2 249 -3 242 -3 c 0
 229 -3 218 -3 210 -2 c 128
 202 -1 196 0 189 1 c 128
 182 2 173 2 161 2 c 0
 150 2 141 2 134 1 c 128
 127 0 120 -1 112 -2 c 128
 104 -3 93 -3 80 -3 c 0
EndSplineSet
EndChar

StartChar: o
Encoding: 111 111 40
Width: 600
GlyphClass: 2
Flags: W
LayerCount: 2
Fore
SplineSet
286 -14 m 0
 249 -14 215 -5 185 12 c 128
 155 29 132 54 114 84 c 128
 96 114 87 148 87 187 c 0
 87 215 93 242 104 269 c 128
 115 296 130 320 150 342 c 128
 170 364 193 381 220 394 c 128
 247 407 275 414 306 414 c 0
 345 414 379 405 410 386 c 128
 441 367 466 342 484 312 c 128
 502 282 512 249 512 213 c 0
 512 174 503 138 486 103 c 128
 469 68 444 40 411 18 c 128
 378 -4 336 -14 286 -14 c 0
307 16 m 0
 330 16 350 20 368 29 c 128
 386 38 400 52 410 71 c 0
 418 86 423 105 426 127 c 128
 429 149 430 170 430 189 c 0
 430 221 424 252 412 282 c 128
 400 312 385 335 364 354 c 128
 343 373 318 383 289 383 c 0
 271 383 254 380 240 374 c 128
 226 368 213 358 201 343 c 0
 188 326 179 306 175 282 c 128
 171 258 169 234 169 210 c 0
 169 177 175 146 187 116 c 128
 199 86 215 63 236 44 c 128
 257 25 280 16 307 16 c 0
EndSplineSet
EndChar

StartChar: p
Encoding: 112 112 41
Width: 600
GlyphClass: 2
Flags: W
LayerCount: 2
Fore
SplineSet
81 -285 m 0
 78 -285 73 -285 68 -284 c 128
 63 -283 60 -280 60 -276 c 0
 60 -271 62 -266 67 -264 c 128
 72 -262 78 -260 83 -258 c 0
 93 -255 103 -250 112 -246 c 128
 121 -242 126 -233 126 -220 c 2
 126 287 l 2
 126 292 124 300 121 311 c 128
 118 322 114 332 107 342 c 128
 100 352 91 358 80 360 c 0
 77 361 75 362 74 365 c 128
 73 368 72 370 72 373 c 0
 72 376 73 379 74 381 c 128
 75 383 77 384 79 385 c 0
 104 391 126 397 144 404 c 128
 162 411 179 418 195 425 c 0
 196 425 196 426 196 426 c 128
 196 426 196 426 197 426 c 0
 198 426 200 425 201 423 c 128
 202 421 203 419 203 417 c 0
 203 411 203 401 201 388 c 128
 199 375 198 365 198 357 c 0
 198 352 198 349 199 348 c 1
 206 355 217 364 235 374 c 128
 253 384 273 394 296 402 c 128
 319 410 340 414 361 414 c 0
 396 414 425 404 449 386 c 128
 473 368 492 345 505 316 c 128
 518 287 525 256 525 225 c 0
 525 195 519 166 508 138 c 128
 497 110 481 84 460 61 c 128
 439 38 415 20 388 6 c 128
 361 -8 331 -14 300 -14 c 0
 291 -14 280 -13 267 -10 c 128
 254 -7 241 -3 229 2 c 128
 217 7 207 12 200 18 c 0
 199 18 199 14 198 6 c 128
 197 -2 197 -10 197 -18 c 128
 197 -26 196 -31 196 -33 c 2
 196 -220 l 2
 196 -229 200 -235 207 -240 c 128
 214 -245 222 -250 231 -252 c 128
 240 -254 247 -256 254 -258 c 0
 259 -260 264 -262 269 -264 c 128
 274 -266 277 -271 277 -276 c 0
 277 -280 274 -283 269 -284 c 128
 264 -285 259 -285 255 -285 c 0
 236 -285 220 -284 207 -282 c 128
 194 -280 178 -280 161 -280 c 0
 150 -280 140 -280 133 -281 c 128
 126 -282 119 -283 112 -284 c 128
 105 -285 94 -285 81 -285 c 0
315 17 m 0
 325 17 337 20 351 26 c 128
 365 32 381 42 395 55 c 128
 409 68 421 86 431 109 c 128
 441 132 445 160 445 193 c 0
 445 232 440 263 430 286 c 128
 420 309 408 327 393 339 c 128
 378 351 363 359 348 363 c 128
 333 367 320 369 309 369 c 0
 293 369 276 366 259 359 c 128
 242 352 229 344 217 336 c 128
 205 328 199 322 199 317 c 0
 199 302 199 287 199 272 c 128
 199 257 197 243 197 229 c 128
 197 215 197 203 197 192 c 128
 197 181 196 172 196 166 c 0
 196 139 203 115 215 92 c 128
 227 69 243 52 261 38 c 128
 279 24 297 17 315 17 c 0
EndSplineSet
EndChar

StartChar: q
Encoding: 113 113 42
Width: 600
GlyphClass: 1
Flags: W
LayerCount: 2
Fore
SplineSet
370 -285 m 0
 367 -285 362 -285 357 -284 c 128
 352 -283 350 -280 350 -276 c 0
 350 -271 352 -266 357 -264 c 128
 362 -262 368 -260 373 -258 c 0
 383 -255 393 -250 402 -246 c 128
 411 -242 416 -233 416 -220 c 2
 416 13 l 2
 416 24 416 32 415 36 c 128
 414 40 412 43 410 43 c 0
 408 43 407 43 405 43 c 128
 403 43 402 42 401 41 c 0
 396 36 386 29 373 20 c 128
 360 11 344 3 327 -4 c 128
 310 -11 292 -14 274 -14 c 0
 239 -14 207 -7 177 8 c 128
 147 23 122 44 103 73 c 128
 84 102 74 137 74 178 c 0
 74 225 84 267 105 302 c 128
 126 337 155 364 192 384 c 128
 229 404 272 414 321 414 c 0
 344 414 364 412 383 408 c 128
 402 404 417 402 429 398 c 128
 441 394 448 392 449 392 c 0
 456 392 462 394 465 399 c 128
 468 404 472 410 475 417 c 0
 476 418 477 419 478 420 c 128
 479 421 481 421 482 421 c 0
 485 421 489 420 493 418 c 128
 497 416 498 414 498 411 c 0
 498 404 496 391 492 370 c 128
 488 349 486 324 486 295 c 2
 486 -220 l 2
 486 -233 493 -242 505 -246 c 128
 517 -250 528 -255 538 -258 c 0
 543 -260 548 -262 553 -264 c 128
 558 -266 561 -271 561 -276 c 0
 561 -280 559 -283 554 -284 c 128
 549 -285 545 -285 541 -285 c 0
 521 -285 506 -284 495 -282 c 128
 484 -280 469 -280 451 -280 c 0
 440 -280 430 -280 423 -281 c 128
 416 -282 409 -283 401 -284 c 128
 393 -285 383 -285 370 -285 c 0
311 39 m 0
 333 39 354 43 374 52 c 128
 394 61 408 71 417 80 c 1
 417 94 417 94 417 122 c 128
 417 150 417 150 417 182 c 128
 417 203 417 223 417 240 c 128
 417 257 416 269 416 275 c 0
 415 305 404 330 381 351 c 128
 358 372 329 382 296 382 c 0
 272 382 249 376 228 362 c 128
 207 348 189 328 176 302 c 128
 163 276 156 244 156 205 c 0
 156 172 161 144 171 122 c 128
 181 100 195 84 211 72 c 128
 227 60 244 51 262 46 c 128
 280 41 296 39 311 39 c 0
EndSplineSet
EndChar

StartChar: r
Encoding: 114 114 43
Width: 600
GlyphClass: 2
Flags: W
LayerCount: 2
Fore
SplineSet
132 -3 m 0
 125 -3 120 -2 117 0 c 128
 114 2 112 4 112 8 c 0
 112 13 114 16 118 18 c 128
 122 20 128 22 135 24 c 0
 148 27 157 32 163 38 c 128
 169 44 173 53 173 62 c 2
 173 277 l 2
 173 295 170 311 165 324 c 128
 160 337 149 346 132 349 c 0
 129 350 127 351 125 354 c 128
 123 357 122 359 122 362 c 0
 122 369 125 373 131 374 c 0
 148 379 166 388 185 398 c 128
 204 408 219 416 230 423 c 0
 234 426 237 427 239 428 c 128
 241 429 244 430 245 430 c 0
 248 430 250 428 250 423 c 0
 250 421 249 416 249 408 c 128
 249 400 249 391 249 380 c 128
 249 369 248 359 247 348 c 0
 247 347 250 346 252 346 c 0
 270 359 288 371 309 381 c 128
 330 391 351 399 373 405 c 128
 395 411 414 414 435 414 c 0
 457 414 490 411 499 405 c 128
 508 399 512 391 512 382 c 0
 512 375 511 368 507 360 c 128
 503 352 498 345 492 339 c 128
 486 333 480 330 473 330 c 0
 469 330 459 330 449 332 c 128
 439 334 430 336 420 339 c 0
 405 342 405 342 390 345 c 128
 380 347 362 348 354 348 c 0
 328 348 305 342 281 331 c 128
 257 320 244 297 244 264 c 2
 244 62 l 2
 244 53 249 46 258 40 c 128
 267 34 280 29 297 24 c 0
 304 22 310 20 314 18 c 128
 318 16 320 13 320 8 c 0
 320 1 313 -3 300 -3 c 0
 280 -3 265 -2 255 0 c 128
 245 2 230 2 213 2 c 0
 202 2 192 2 185 1 c 128
 178 0 171 -1 163 -2 c 128
 155 -3 145 -3 132 -3 c 0
EndSplineSet
EndChar

StartChar: s
Encoding: 115 115 44
Width: 600
GlyphClass: 2
Flags: W
LayerCount: 2
Fore
SplineSet
277 -14 m 0
 248 -14 222 -10 197 -4 c 128
 172 2 151 11 133 22 c 1
 129 29 125 42 122 59 c 128
 119 76 119 91 118 102 c 0
 118 108 122 111 131 111 c 0
 134 111 137 111 139 110 c 128
 141 109 142 107 143 104 c 0
 152 71 167 48 186 34 c 128
 205 20 230 13 289 13 c 256
 315 13 351 19 375 32 c 128
 399 45 412 62 412 81 c 0
 412 99 402 115 380 128 c 128
 358 141 315 161 274 178 c 0
 242 191 217 202 198 215 c 128
 179 228 163 241 155 254 c 128
 147 267 143 282 143 299 c 0
 143 320 150 340 164 357 c 128
 178 374 198 388 226 398 c 128
 254 408 288 414 329 414 c 0
 356 414 403 412 416 408 c 128
 429 404 440 400 447 395 c 0
 452 388 457 376 461 360 c 128
 465 344 466 330 466 316 c 0
 466 311 463 309 456 309 c 0
 452 309 449 310 445 312 c 128
 441 314 437 315 436 318 c 0
 427 340 417 356 404 368 c 128
 391 380 347 386 314 386 c 0
 291 386 259 381 236 371 c 128
 213 361 203 346 203 327 c 0
 203 312 210 298 228 286 c 128
 246 274 284 255 321 241 c 0
 375 221 414 203 440 184 c 128
 466 165 480 139 480 108 c 0
 480 72 460 43 423 20 c 128
 386 -3 336 -14 277 -14 c 0
EndSplineSet
EndChar

StartChar: t
Encoding: 116 116 45
Width: 600
GlyphClass: 2
Flags: W
LayerCount: 2
Fore
SplineSet
305 -14 m 0
 282 -14 253 -4 223 16 c 128
 193 36 178 66 178 105 c 2
 178 337 l 2
 178 342 176 346 172 348 c 128
 168 350 159 352 146 352 c 2
 140 352 l 2
 137 352 133 354 131 358 c 128
 129 362 128 367 128 372 c 0
 128 373 129 375 131 378 c 128
 133 381 134 382 135 383 c 0
 148 392 160 402 171 411 c 128
 182 420 192 429 201 438 c 128
 210 447 218 456 224 463 c 0
 229 468 229 468 233 472 c 128
 235 474 238 475 241 475 c 256
 244 475 248 474 251 473 c 128
 254 472 255 469 254 464 c 2
 249 419 l 2
 248 412 250 407 254 404 c 128
 258 401 264 400 273 400 c 2
 486 400 l 2
 489 400 491 398 493 394 c 128
 495 390 496 384 496 378 c 256
 496 372 495 366 493 360 c 128
 491 354 489 352 486 352 c 2
 288 352 l 2
 271 352 260 351 255 348 c 128
 250 345 248 337 248 324 c 2
 248 127 l 2
 248 100 258 79 276 64 c 128
 294 49 323 41 358 41 c 0
 390 41 415 43 433 46 c 128
 451 49 466 53 481 59 c 0
 483 60 487 61 491 61 c 0
 494 61 496 59 497 56 c 128
 498 53 499 50 499 47 c 256
 499 44 490 37 472 27 c 128
 454 17 429 8 399 -1 c 128
 369 -10 340 -14 305 -14 c 0
EndSplineSet
EndChar

StartChar: u
Encoding: 117 117 46
Width: 600
GlyphClass: 2
Flags: W
LayerCount: 2
Fore
SplineSet
402 -19 m 0
 397 -19 395 -16 395 -11 c 0
 395 -4 396 5 398 18 c 128
 400 31 400 42 400 51 c 0
 400 53 400 52 400 54 c 128
 400 56 400 56 400 57 c 1
 374 32 348 13 322 2 c 128
 296 -9 266 -14 235 -14 c 0
 214 -14 194 -9 177 0 c 128
 160 9 146 22 136 40 c 128
 126 58 121 79 121 105 c 2
 121 308 l 2
 121 323 118 334 111 343 c 128
 104 352 93 359 78 365 c 0
 75 366 72 368 69 370 c 128
 66 372 65 376 65 381 c 0
 65 387 67 391 70 393 c 128
 73 395 76 396 80 397 c 0
 103 398 120 400 132 402 c 128
 144 404 160 408 179 413 c 0
 181 414 183 414 184 414 c 128
 186 414 185 414 187 414 c 0
 194 414 198 409 197 400 c 0
 195 385 193 372 192 362 c 128
 191 352 191 338 191 323 c 2
 191 128 l 2
 191 112 195 98 203 84 c 128
 211 70 221 59 234 50 c 128
 247 41 261 37 275 37 c 0
 292 37 307 38 320 40 c 128
 333 42 346 48 359 57 c 0
 366 62 376 71 387 83 c 128
 398 95 404 111 404 132 c 2
 404 315 l 2
 404 329 400 339 392 346 c 128
 384 353 374 358 363 361 c 128
 352 364 344 365 337 365 c 0
 331 365 326 366 322 368 c 128
 318 370 316 375 316 382 c 0
 316 388 318 392 322 394 c 128
 326 396 332 397 337 397 c 0
 358 398 374 399 388 400 c 128
 402 401 415 402 426 404 c 128
 437 406 448 410 460 413 c 0
 461 414 463 414 465 414 c 128
 467 414 469 415 470 415 c 0
 479 415 483 411 483 404 c 0
 483 403 482 402 482 400 c 128
 482 398 482 397 481 395 c 256
 480 393 479 387 478 378 c 128
 477 369 477 359 476 349 c 128
 475 339 474 331 474 326 c 2
 474 95 l 2
 474 77 476 64 480 56 c 128
 484 48 487 45 492 45 c 0
 497 45 506 45 516 46 c 128
 526 47 533 48 538 48 c 0
 541 48 545 47 548 46 c 128
 551 45 553 41 553 35 c 0
 553 30 552 26 549 24 c 128
 546 22 543 22 539 21 c 0
 513 18 491 13 472 6 c 128
 453 -1 437 -7 422 -13 c 0
 420 -14 417 -14 413 -16 c 128
 409 -18 405 -19 402 -19 c 0
EndSplineSet
EndChar

StartChar: v
Encoding: 118 118 47
Width: 600
GlyphClass: 2
Flags: W
LayerCount: 2
Fore
SplineSet
294 -21 m 2
 291 -21 287 -16 283 -6 c 128
 279 4 275 12 274 17 c 0
 268 28 263 40 259 52 c 128
 255 64 250 76 246 87 c 0
 229 128 213 168 194 208 c 128
 175 248 156 288 138 329 c 0
 132 341 124 352 113 362 c 128
 102 372 92 377 81 380 c 0
 75 382 70 384 67 386 c 128
 64 388 61 391 61 396 c 0
 61 400 63 403 68 404 c 128
 73 405 79 405 82 405 c 0
 96 405 107 405 113 404 c 128
 119 403 126 403 132 402 c 128
 138 401 147 400 159 400 c 0
 172 400 181 401 187 402 c 128
 193 403 200 403 207 404 c 128
 214 405 224 405 238 405 c 0
 241 405 247 405 252 404 c 128
 257 403 259 400 259 396 c 0
 259 391 257 388 252 385 c 128
 247 382 241 380 235 378 c 0
 228 375 222 370 219 362 c 128
 216 354 214 346 214 337 c 0
 214 332 214 328 216 323 c 128
 218 318 218 314 220 310 c 2
 315 88 l 2
 316 87 316 87 316 87 c 128
 316 87 318 87 318 88 c 2
 407 295 l 2
 410 302 412 308 413 316 c 128
 414 324 415 331 415 336 c 0
 415 349 413 358 409 364 c 128
 405 370 398 375 389 378 c 0
 380 381 374 384 371 386 c 128
 368 388 366 391 366 396 c 0
 366 400 369 403 373 404 c 128
 377 405 381 405 386 405 c 0
 393 405 403 404 415 402 c 128
 427 400 453 400 470 400 c 256
 487 400 500 400 506 402 c 128
 512 404 520 405 529 405 c 0
 534 405 539 405 543 404 c 128
 547 403 549 400 549 396 c 0
 549 389 541 383 524 378 c 0
 513 375 500 368 487 355 c 128
 474 342 463 328 455 311 c 2
 368 123 l 2
 367 120 363 114 359 104 c 128
 355 94 350 82 344 70 c 128
 338 58 334 47 331 38 c 128
 325 24 325 24 325 24 c 257
 325 24 325 24 321 14 c 128
 318 8 314 1 311 -6 c 128
 308 -13 304 -18 301 -21 c 1
 294 -21 l 2
EndSplineSet
EndChar

StartChar: w
Encoding: 119 119 48
Width: 600
GlyphClass: 2
Flags: W
LayerCount: 2
Fore
SplineSet
198 -23 m 0
 197 -23 195 -22 194 -21 c 128
 193 -20 193 -18 192 -16 c 2
 70 329 l 2
 66 342 60 354 51 362 c 128
 42 370 34 375 25 378 c 0
 20 380 16 382 11 385 c 128
 6 388 4 391 4 396 c 0
 4 400 6 403 11 404 c 128
 16 405 19 405 22 405 c 0
 29 405 36 405 43 404 c 128
 50 403 57 403 64 402 c 128
 71 401 78 400 86 400 c 128
 94 400 102 401 110 402 c 128
 118 403 126 403 134 404 c 128
 142 405 150 405 159 405 c 0
 162 405 166 405 170 404 c 128
 174 403 176 400 176 396 c 0
 176 391 174 388 170 385 c 128
 166 382 161 380 156 378 c 0
 150 376 145 372 142 364 c 128
 139 356 138 347 138 338 c 0
 138 329 139 321 142 312 c 2
 210 111 l 2
 211 108 212 107 215 107 c 256
 218 107 219 108 219 111 c 2
 279 273 l 2
 282 282 283 290 284 298 c 128
 285 306 286 314 286 321 c 0
 286 336 281 348 271 357 c 128
 261 366 251 373 241 378 c 0
 236 380 232 382 228 385 c 128
 224 388 221 391 221 396 c 0
 221 400 223 403 227 404 c 128
 231 405 235 405 238 405 c 0
 246 405 254 404 264 402 c 128
 274 400 287 400 304 400 c 256
 321 400 334 400 346 402 c 128
 358 404 369 405 378 405 c 0
 381 405 384 405 388 404 c 128
 392 403 395 400 395 396 c 0
 395 391 392 388 388 385 c 128
 384 382 380 380 375 378 c 0
 368 375 362 372 355 367 c 128
 348 362 345 354 345 342 c 0
 345 338 345 333 346 328 c 128
 347 323 349 318 351 312 c 2
 417 119 l 2
 420 112 422 108 424 108 c 0
 427 108 429 111 431 118 c 2
 498 295 l 2
 501 300 502 307 503 315 c 128
 504 323 504 329 504 334 c 0
 504 346 501 356 494 363 c 128
 487 370 480 375 473 378 c 0
 468 380 464 382 460 385 c 128
 456 388 453 391 453 396 c 0
 453 400 456 403 460 404 c 128
 464 405 467 405 470 405 c 0
 483 405 492 404 500 402 c 128
 508 400 520 400 536 400 c 0
 547 400 555 401 560 402 c 128
 565 403 569 403 572 404 c 128
 575 405 580 405 587 405 c 0
 590 405 594 405 598 404 c 128
 602 403 604 400 604 396 c 0
 604 391 602 388 598 385 c 128
 594 382 589 380 584 378 c 0
 575 375 567 367 559 354 c 128
 551 341 544 327 538 312 c 2
 418 -16 l 2
 416 -21 413 -23 410 -23 c 0
 407 -23 405 -21 403 -16 c 2
 312 242 l 2
 310 247 308 250 307 251 c 0
 305 251 303 248 300 241 c 2
 205 -16 l 2
 203 -21 201 -23 198 -23 c 0
EndSplineSet
EndChar

StartChar: x
Encoding: 120 120 49
Width: 600
GlyphClass: 2
Flags: W
LayerCount: 2
Fore
SplineSet
91 -4 m 0
 87 -4 82 -3 77 -2 c 128
 72 -1 70 1 70 5 c 0
 70 10 73 14 79 17 c 128
 85 20 90 22 96 23 c 0
 107 26 119 32 130 40 c 128
 141 48 156 61 171 80 c 2
 259 188 l 2
 265 193 267 198 267 201 c 128
 267 204 264 207 261 211 c 2
 167 335 l 2
 158 347 151 358 144 364 c 128
 137 370 127 374 116 377 c 0
 110 378 105 380 99 383 c 128
 93 386 90 390 90 395 c 256
 90 400 94 404 100 404 c 128
 106 404 111 404 114 404 c 0
 128 404 137 404 142 403 c 128
 147 402 154 402 161 401 c 128
 168 400 180 400 197 400 c 0
 210 400 220 400 225 401 c 128
 230 402 240 402 251 402 c 0
 254 402 257 402 263 402 c 128
 269 402 274 398 274 393 c 0
 274 389 273 386 269 384 c 128
 265 382 260 380 255 379 c 256
 250 378 246 376 241 374 c 128
 236 372 235 367 235 362 c 0
 235 359 235 354 237 348 c 128
 239 342 242 336 247 330 c 2
 305 256 l 2
 308 251 312 251 315 256 c 2
 381 338 l 2
 384 341 386 345 387 349 c 128
 388 353 389 357 389 360 c 0
 389 368 385 373 376 376 c 0
 371 378 365 380 360 383 c 128
 355 386 353 389 353 394 c 0
 353 399 358 402 364 402 c 128
 370 402 375 403 378 403 c 0
 383 403 391 403 402 402 c 128
 413 401 422 400 431 400 c 0
 451 400 466 400 473 402 c 128
 480 404 489 405 499 405 c 0
 503 405 508 405 513 404 c 128
 518 403 520 400 520 396 c 0
 520 391 517 388 511 385 c 128
 505 382 500 380 494 378 c 0
 483 375 470 370 454 362 c 128
 438 354 425 344 415 331 c 2
 335 228 l 2
 334 227 334 224 334 222 c 128
 334 220 335 218 337 215 c 2
 454 65 l 2
 464 53 472 43 480 37 c 128
 488 31 498 26 509 23 c 0
 515 22 521 20 527 17 c 128
 533 14 535 10 535 5 c 0
 535 1 532 -1 527 -2 c 128
 522 -3 517 -4 513 -4 c 0
 499 -4 489 -4 483 -3 c 128
 477 -2 468 -2 461 -1 c 128
 454 0 448 0 431 0 c 0
 419 0 399 0 385 -1 c 128
 371 -2 358 -2 346 -2 c 0
 330 -2 322 1 322 8 c 0
 322 14 325 18 329 21 c 128
 333 24 339 26 347 28 c 0
 354 30 361 32 367 36 c 128
 373 40 375 45 375 52 c 0
 375 55 374 57 373 60 c 128
 372 63 370 67 368 70 c 2
 294 167 l 2
 292 169 290 169 288 167 c 2
 211 67 l 2
 210 66 208 64 207 60 c 128
 206 56 206 52 206 48 c 0
 206 43 208 38 210 34 c 128
 212 30 215 27 220 26 c 0
 225 24 231 22 236 20 c 128
 241 18 243 13 243 8 c 0
 243 3 238 1 232 0 c 128
 226 -1 221 -1 218 -1 c 0
 213 -1 205 -1 193 0 c 128
 181 1 169 1 161 1 c 0
 141 1 127 0 119 -2 c 128
 111 -4 101 -4 91 -4 c 0
EndSplineSet
EndChar

StartChar: y
Encoding: 121 121 50
Width: 600
GlyphClass: 2
Flags: W
LayerCount: 2
Fore
SplineSet
127 -285 m 0
 113 -285 100 -282 88 -276 c 128
 76 -270 70 -259 70 -244 c 0
 70 -232 73 -221 80 -212 c 128
 87 -203 95 -199 107 -199 c 0
 115 -199 123 -200 131 -202 c 128
 139 -204 145 -205 151 -205 c 0
 155 -205 160 -204 163 -202 c 128
 166 -200 171 -198 174 -194 c 0
 183 -182 192 -167 204 -149 c 128
 216 -131 227 -111 238 -88 c 128
 249 -65 259 -45 269 -20 c 0
 271 -14 273 -6 273 3 c 0
 273 8 273 13 272 18 c 128
 271 23 269 28 268 32 c 2
 137 329 l 2
 132 341 125 351 116 360 c 128
 107 369 98 375 87 378 c 0
 81 380 75 382 69 385 c 128
 63 388 61 391 61 396 c 0
 61 400 62 403 68 404 c 128
 74 405 79 405 82 405 c 0
 95 405 105 405 112 404 c 128
 119 403 124 403 131 402 c 128
 138 401 147 400 158 400 c 0
 170 400 179 401 186 402 c 128
 193 403 199 403 206 404 c 128
 213 405 223 405 236 405 c 0
 240 405 244 404 250 402 c 128
 256 400 258 398 258 394 c 0
 258 389 255 384 248 380 c 128
 241 376 235 373 229 372 c 0
 222 370 218 367 215 362 c 128
 212 357 209 349 209 340 c 0
 209 336 210 332 212 326 c 128
 214 320 216 315 217 312 c 2
 308 88 l 2
 310 84 312 82 315 82 c 0
 317 82 319 84 321 88 c 2
 412 295 l 2
 414 300 415 306 417 314 c 128
 419 322 419 327 419 332 c 0
 419 345 418 353 414 358 c 128
 410 363 405 367 399 370 c 0
 394 373 388 376 381 380 c 128
 374 384 370 389 370 394 c 0
 370 398 372 400 378 402 c 128
 384 404 388 405 391 405 c 0
 400 405 411 404 421 402 c 128
 431 400 446 400 466 400 c 0
 479 400 489 401 496 402 c 128
 503 403 506 403 510 404 c 128
 514 405 520 405 528 405 c 0
 531 405 536 405 542 404 c 128
 548 403 549 400 549 396 c 0
 549 391 548 388 542 385 c 128
 536 382 530 380 524 378 c 0
 513 375 500 367 488 354 c 128
 476 341 466 327 458 311 c 2
 306 -13 l 2
 305 -15 301 -24 294 -39 c 128
 287 -54 278 -73 268 -96 c 128
 258 -119 246 -143 234 -169 c 128
 222 -195 210 -220 199 -244 c 0
 192 -257 182 -267 170 -274 c 128
 158 -281 144 -285 127 -285 c 0
EndSplineSet
EndChar

StartChar: z
Encoding: 122 122 51
Width: 600
GlyphClass: 2
Flags: W
LayerCount: 2
Fore
SplineSet
127 -5 m 0
 124 -5 120 -2 117 2 c 128
 114 6 111 9 111 12 c 0
 111 14 114 18 119 25 c 128
 124 32 128 39 135 48 c 128
 142 57 147 64 153 70 c 0
 173 94 192 118 210 140 c 128
 228 162 247 184 265 206 c 128
 283 228 301 253 320 278 c 128
 339 303 358 329 380 358 c 0
 381 360 383 362 383 364 c 128
 383 366 378 368 370 368 c 2
 233 371 l 2
 224 371 215 370 207 365 c 128
 199 360 193 356 189 352 c 256
 185 348 182 344 178 339 c 128
 174 334 170 329 166 324 c 128
 162 319 159 313 155 308 c 128
 151 303 148 299 145 294 c 0
 141 290 135 289 129 292 c 128
 123 295 120 299 122 304 c 0
 124 310 126 318 129 330 c 128
 132 342 136 354 138 367 c 128
 140 380 141 390 141 398 c 0
 141 403 143 408 147 411 c 128
 151 414 154 416 156 416 c 0
 159 416 164 413 171 407 c 0
 174 404 182 403 190 402 c 128
 198 401 207 401 216 401 c 0
 223 401 230 402 237 402 c 128
 244 402 249 402 254 402 c 0
 289 402 348 402 381 403 c 128
 414 404 448 404 483 405 c 0
 485 405 488 404 489 403 c 128
 490 402 492 400 493 398 c 128
 494 396 492 394 491 393 c 0
 483 384 477 376 470 369 c 128
 463 362 456 353 448 343 c 2
 217 48 l 2
 214 43 214 40 216 37 c 128
 218 34 223 33 229 33 c 2
 386 33 l 2
 393 33 400 35 408 39 c 128
 416 43 425 49 432 56 c 0
 440 64 449 75 458 88 c 128
 467 101 478 114 488 129 c 0
 491 134 496 135 502 133 c 128
 508 131 510 127 510 122 c 0
 510 120 509 114 506 104 c 128
 503 94 500 81 496 68 c 128
 492 55 488 43 485 32 c 128
 482 21 480 13 479 9 c 0
 477 0 472 -5 463 -5 c 0
 448 -5 424 -4 388 -2 c 128
 352 0 281 0 218 0 c 0
 202 0 185 0 168 -2 c 128
 151 -4 137 -5 127 -5 c 0
EndSplineSet
EndChar

StartChar: zero
Encoding: 48 48 52
Width: 600
GlyphClass: 1
Flags: W
LayerCount: 2
Fore
SplineSet
322 12 m 0
 349 12 370 25 386 52 c 0
 402 79 415 115 422 158 c 0
 429 201 433 248 433 298 c 0
 433 357 426 408 413 460 c 0
 408 478 406 487 403 487 c 0
 400 487 397 479 391 464 c 2
 246 126 l 2
 239 109 234 97 234 86 c 0
 234 72 242 60 263 38 c 0
 280 20 299 12 322 12 c 0
305 -14 m 0
 271 -14 241 -5 216 14 c 0
 191 33 171 57 154 88 c 0
 137 119 125 154 117 191 c 0
 109 228 105 265 105 302 c 0
 105 340 109 378 117 417 c 0
 125 456 137 491 154 523 c 0
 171 555 193 580 220 600 c 0
 247 620 278 630 315 630 c 0
 349 630 379 621 404 602 c 0
 429 583 449 559 466 528 c 0
 483 497 495 463 503 426 c 0
 511 389 515 352 515 316 c 0
 515 279 511 241 503 202 c 0
 495 163 483 128 466 95 c 0
 449 62 426 36 400 16 c 0
 374 -4 342 -14 305 -14 c 0
224 194 m 2
 360 514 l 2
 368 533 373 543 373 551 c 0
 373 559 367 565 356 576 c 0
 339 593 319 602 296 602 c 0
 269 602 248 589 232 563 c 0
 216 537 205 503 198 460 c 0
 191 417 188 370 188 320 c 0
 188 283 190 246 196 209 c 0
 201 178 203 164 207 164 c 0
 210 164 216 174 224 194 c 2
EndSplineSet
Substitution2: "'onum' Oldstyle Figures-1" zero.oldstyle
Substitution2: "'ss01' Original glyphs-1" zero.ss01
EndChar

StartChar: one
Encoding: 49 49 53
Width: 600
GlyphClass: 1
Flags: W
LayerCount: 2
Fore
SplineSet
167 -3 m 0
 162 -3 159 -2 156 1 c 128
 153 4 152 6 152 9 c 0
 152 15 157 19 167 22 c 0
 192 29 214 34 230 40 c 128
 246 46 258 54 266 64 c 128
 274 74 277 90 277 109 c 2
 277 491 l 2
 277 504 273 513 265 520 c 128
 257 527 247 531 234 534 c 128
 221 537 208 538 193 539 c 0
 186 540 180 541 175 544 c 128
 170 547 167 551 167 556 c 0
 167 561 169 565 174 568 c 128
 179 571 185 573 192 574 c 0
 222 579 248 585 272 592 c 128
 296 599 319 613 342 636 c 0
 343 637 343 637 344 637 c 128
 346 637 346 637 347 637 c 0
 350 637 353 636 356 634 c 128
 359 632 360 631 359 628 c 0
 358 618 357 608 356 596 c 128
 355 584 355 571 355 557 c 2
 355 97 l 2
 355 80 358 68 364 59 c 128
 370 50 382 43 397 38 c 128
 412 33 434 28 461 21 c 0
 465 20 468 18 472 16 c 128
 476 14 478 11 478 8 c 0
 478 1 473 -3 464 -3 c 0
 445 -3 428 -3 412 -2 c 128
 396 -1 381 0 366 1 c 128
 351 2 335 2 317 2 c 256
 299 2 282 2 266 1 c 128
 250 0 234 -1 218 -2 c 128
 202 -3 185 -3 167 -3 c 0
EndSplineSet
Substitution2: "'onum' Oldstyle Figures-1" one.oldstyle
EndChar

StartChar: two
Encoding: 50 50 54
Width: 600
GlyphClass: 1
Flags: W
LayerCount: 2
Fore
SplineSet
479 -3 m 0
 474 -3 467 -3 457 -2 c 0
 447 -1 436 -1 423 0 c 0
 410 1 398 1 384 2 c 0
 370 3 357 3 344 3 c 256
 331 3 313 3 290 2 c 0
 267 1 242 0 216 0 c 0
 190 0 168 0 149 -1 c 0
 130 -2 117 -2 112 -2 c 0
 109 -2 105 0 100 4 c 0
 95 8 92 12 92 15 c 0
 92 18 93 21 94 22 c 0
 96 24 96 24 100 28 c 2
 271 205 l 2
 304 240 332 279 354 322 c 0
 376 365 387 408 387 452 c 0
 387 487 376 516 355 536 c 0
 334 556 309 566 280 566 c 0
 253 566 227 559 204 544 c 0
 181 529 162 509 148 485 c 0
 146 481 143 478 140 475 c 0
 137 472 134 471 131 471 c 0
 128 471 126 474 122 480 c 0
 118 486 116 492 116 501 c 0
 116 509 120 520 130 534 c 0
 140 548 154 562 171 577 c 0
 188 592 209 604 233 614 c 0
 257 624 283 630 311 630 c 0
 344 630 373 623 397 609 c 0
 421 595 439 576 452 551 c 0
 465 526 471 498 471 465 c 0
 471 447 468 428 462 407 c 0
 456 386 447 366 436 346 c 0
 425 326 412 307 398 290 c 0
 389 279 377 266 360 248 c 0
 343 230 324 211 304 191 c 0
 284 171 266 152 248 134 c 0
 230 116 216 102 205 90 c 0
 194 78 188 72 188 71 c 0
 188 68 193 65 202 64 c 0
 213 63 226 63 240 62 c 0
 254 61 271 61 290 61 c 0
 309 61 329 61 348 62 c 0
 367 63 386 63 404 64 c 0
 423 65 438 67 449 69 c 0
 460 71 469 76 476 82 c 0
 483 88 491 98 499 111 c 0
 502 115 506 120 510 126 c 0
 514 132 519 134 524 134 c 0
 527 134 529 133 530 130 c 0
 531 127 531 125 531 122 c 0
 531 119 530 112 526 102 c 0
 522 92 518 81 513 67 c 0
 508 53 504 38 501 21 c 0
 499 10 496 4 491 1 c 0
 486 -2 482 -3 479 -3 c 0
EndSplineSet
Substitution2: "'onum' Oldstyle Figures-1" two.oldstyle
EndChar

StartChar: three
Encoding: 51 51 55
Width: 600
GlyphClass: 1
Flags: W
LayerCount: 2
Fore
SplineSet
221 -38 m 0
 206 -38 189 -35 172 -30 c 0
 155 -25 140 -20 128 -13 c 0
 116 -6 110 0 110 5 c 0
 110 10 113 16 118 23 c 0
 123 30 129 36 136 42 c 0
 143 48 149 51 154 51 c 0
 161 51 168 49 174 45 c 0
 180 41 186 36 193 31 c 0
 202 24 212 17 223 10 c 0
 234 3 249 0 268 0 c 0
 293 0 316 6 338 19 c 0
 360 32 378 50 392 72 c 0
 406 94 414 119 414 146 c 0
 414 172 410 197 401 221 c 0
 392 245 379 264 362 280 c 0
 345 296 324 304 298 304 c 0
 291 304 280 304 268 302 c 0
 256 300 244 296 233 289 c 0
 230 287 226 288 222 290 c 0
 218 292 215 295 216 298 c 0
 219 307 223 314 228 320 c 0
 233 326 239 329 246 332 c 0
 252 335 262 340 275 348 c 0
 288 356 303 364 318 376 c 0
 333 388 345 401 356 416 c 0
 367 431 372 448 372 466 c 0
 372 493 364 517 346 538 c 0
 328 559 305 570 278 570 c 0
 252 570 232 565 216 556 c 0
 200 547 187 538 178 526 c 0
 169 514 162 503 157 494 c 0
 152 485 148 481 144 481 c 0
 141 481 138 483 134 487 c 0
 130 491 128 495 128 500 c 0
 128 509 132 520 139 534 c 0
 146 548 158 563 174 578 c 0
 190 593 210 605 234 615 c 0
 258 625 287 630 321 630 c 0
 343 630 364 626 384 616 c 0
 404 606 419 593 432 576 c 0
 445 559 451 539 451 516 c 0
 451 500 448 483 441 466 c 0
 434 449 423 431 408 414 c 0
 393 397 372 381 346 366 c 0
 344 365 343 364 343 362 c 0
 343 360 344 360 347 360 c 0
 376 360 401 352 424 338 c 0
 447 324 464 306 478 282 c 0
 492 258 499 232 499 203 c 0
 499 166 491 132 475 102 c 0
 459 72 438 47 411 26 c 0
 384 5 355 -11 322 -22 c 0
 289 -33 255 -38 221 -38 c 0
EndSplineSet
Substitution2: "'onum' Oldstyle Figures-1" three.oldstyle
EndChar

StartChar: four
Encoding: 52 52 56
Width: 600
GlyphClass: 1
Flags: W
LayerCount: 2
Fore
SplineSet
270 -3 m 0
 267 -3 262 -2 258 0 c 0
 254 2 252 5 252 10 c 0
 252 13 254 16 258 18 c 0
 262 20 266 21 270 22 c 0
 301 26 322 33 332 42 c 0
 342 51 347 64 347 80 c 2
 347 173 l 2
 347 176 345 179 340 180 c 0
 335 181 333 182 332 182 c 0
 305 182 280 181 256 180 c 0
 232 179 207 179 181 178 c 0
 155 177 124 176 89 175 c 0
 86 175 84 176 82 178 c 0
 80 180 79 183 79 185 c 0
 79 186 79 187 80 188 c 0
 89 199 95 206 99 210 c 0
 103 214 106 219 109 222 c 0
 112 225 115 229 119 235 c 2
 383 614 l 2
 387 620 392 626 398 632 c 0
 404 638 408 642 413 642 c 2
 434 642 l 2
 437 642 438 640 436 635 c 0
 432 628 432 628 432 628 c 1
 162 240 l 2
 161 239 161 236 160 234 c 0
 159 232 160 231 162 231 c 2
 335 231 l 2
 338 231 340 232 343 234 c 0
 346 236 347 237 347 239 c 2
 347 394 l 2
 347 401 347 406 348 409 c 0
 349 412 352 414 356 416 c 0
 366 421 377 424 388 426 c 0
 399 428 407 429 412 429 c 0
 419 429 424 424 425 413 c 0
 426 402 427 386 427 365 c 2
 427 236 l 2
 427 232 429 230 432 230 c 0
 439 229 446 229 453 229 c 0
 463 229 463 229 472 229 c 0
 481 229 490 230 500 230 c 0
 510 230 520 230 531 231 c 0
 538 231 542 228 542 223 c 256
 542 218 541 212 538 206 c 0
 535 200 531 195 528 191 c 0
 525 187 522 185 521 185 c 0
 514 185 506 186 497 186 c 0
 488 186 480 186 472 186 c 0
 466 186 460 186 455 186 c 0
 450 186 445 185 441 184 c 0
 438 183 435 182 432 181 c 0
 429 180 428 179 428 178 c 2
 428 84 l 2
 428 65 433 51 442 44 c 0
 451 37 468 29 495 22 c 0
 499 21 503 20 507 17 c 0
 511 14 513 11 513 8 c 0
 513 5 511 2 508 0 c 0
 505 -2 502 -3 498 -3 c 0
 479 -3 465 -3 454 -2 c 0
 443 -1 432 0 423 1 c 0
 414 2 401 2 385 2 c 0
 368 2 354 2 344 1 c 0
 334 0 324 -1 313 -2 c 0
 302 -3 288 -3 270 -3 c 0
EndSplineSet
Substitution2: "'onum' Oldstyle Figures-1" four.oldstyle
EndChar

StartChar: five
Encoding: 53 53 57
Width: 600
GlyphClass: 1
Flags: W
LayerCount: 2
Fore
SplineSet
169 -38 m 0
 162 -38 154 -38 145 -36 c 0
 136 -34 132 -31 132 -26 c 0
 132 -21 137 -16 146 -12 c 0
 155 -8 162 -7 168 -7 c 0
 221 -7 264 3 298 22 c 0
 332 41 359 64 376 93 c 0
 393 122 401 150 401 179 c 0
 401 205 393 228 378 248 c 0
 363 268 337 286 302 303 c 0
 267 320 220 336 161 351 c 1
 152 358 146 366 142 373 c 0
 138 380 137 388 137 397 c 0
 137 406 138 418 142 431 c 0
 146 444 151 459 156 474 c 0
 161 489 167 503 172 518 c 0
 177 533 182 545 185 556 c 0
 188 566 193 574 200 580 c 0
 207 586 215 589 226 592 c 0
 241 596 257 600 273 603 c 0
 289 606 306 609 323 612 c 0
 340 615 358 618 376 620 c 0
 394 622 414 625 433 627 c 0
 438 628 442 626 444 622 c 0
 446 618 447 615 444 610 c 0
 441 605 439 600 436 594 c 0
 433 588 430 582 427 577 c 0
 422 567 418 559 412 554 c 0
 406 549 399 546 390 545 c 0
 377 544 363 542 346 540 c 0
 321 538 321 538 296 536 c 0
 279 534 264 532 250 531 c 0
 236 530 225 528 218 527 c 0
 213 526 208 521 201 510 c 0
 194 499 188 486 183 474 c 0
 178 462 175 453 174 448 c 0
 173 443 174 439 176 436 c 0
 178 433 181 430 187 429 c 0
 224 418 258 407 289 396 c 0
 320 385 346 374 369 362 c 0
 406 343 434 320 452 294 c 0
 470 268 480 234 480 193 c 0
 480 156 469 122 447 90 c 0
 425 58 395 31 358 10 c 0
 340 0 321 -9 301 -16 c 0
 281 -23 260 -28 238 -32 c 0
 216 -36 193 -38 169 -38 c 0
EndSplineSet
Substitution2: "'onum' Oldstyle Figures-1" five.oldstyle
EndChar

StartChar: six
Encoding: 54 54 58
Width: 600
GlyphClass: 1
Flags: W
LayerCount: 2
Fore
SplineSet
312 -16 m 0
 278 -16 245 -8 214 7 c 0
 183 22 157 45 137 76 c 0
 117 107 107 146 107 193 c 0
 107 230 111 264 120 295 c 0
 129 326 140 352 153 376 c 0
 166 400 180 421 194 438 c 0
 208 455 219 468 228 477 c 0
 245 494 266 514 292 535 c 0
 318 556 348 577 382 596 c 0
 416 615 454 630 495 641 c 0
 501 642 506 642 510 640 c 0
 514 638 514 636 513 634 c 0
 510 628 506 623 500 620 c 0
 494 617 490 615 487 614 c 0
 442 595 404 573 372 548 c 0
 340 523 310 493 285 456 c 0
 274 440 262 418 247 390 c 0
 232 362 220 332 209 298 c 0
 198 264 193 230 193 195 c 0
 194 158 201 128 216 102 c 0
 231 76 248 56 270 43 c 0
 292 30 314 23 336 22 c 0
 363 21 387 30 408 50 c 0
 429 70 439 101 439 142 c 0
 439 163 436 182 428 200 c 0
 420 218 410 232 396 243 c 0
 382 254 366 260 348 260 c 0
 331 260 316 259 304 257 c 0
 292 255 279 251 268 245 c 0
 262 242 259 243 258 246 c 0
 257 249 258 252 261 256 c 0
 266 261 270 266 274 269 c 0
 278 272 283 276 288 280 c 0
 295 285 308 292 328 300 c 0
 348 308 367 313 386 313 c 0
 409 313 430 308 450 297 c 0
 470 286 486 272 498 254 c 0
 510 236 517 214 517 190 c 0
 517 159 511 130 499 105 c 0
 487 80 471 58 451 40 c 0
 431 22 408 8 384 -2 c 0
 360 -12 336 -16 312 -16 c 0
EndSplineSet
Substitution2: "'onum' Oldstyle Figures-1" six.oldstyle
EndChar

StartChar: seven
Encoding: 55 55 59
Width: 600
GlyphClass: 1
Flags: W
LayerCount: 2
Fore
SplineSet
187 -32 m 0
 180 -32 174 -29 171 -24 c 0
 168 -19 166 -13 166 -6 c 0
 166 -4 168 1 173 10 c 0
 178 19 182 27 187 35 c 2
 470 541 l 2
 471 543 472 545 472 547 c 0
 472 549 467 550 460 551 c 2
 204 551 l 2
 188 551 174 548 162 542 c 0
 150 536 138 524 127 505 c 0
 126 503 124 500 122 496 c 0
 120 492 116 488 113 485 c 0
 110 482 106 480 103 480 c 0
 100 480 99 482 98 485 c 0
 97 488 96 491 96 494 c 0
 96 497 97 502 98 506 c 0
 99 510 99 513 100 516 c 0
 103 531 107 548 110 567 c 0
 113 586 115 602 116 615 c 0
 117 620 118 623 120 624 c 0
 122 625 125 626 126 626 c 256
 127 626 137 625 154 622 c 0
 171 619 189 617 210 617 c 0
 225 617 224 617 238 617 c 0
 247 617 258 616 269 616 c 0
 280 616 294 616 309 616 c 0
 342 616 375 616 408 616 c 0
 441 616 470 617 494 618 c 0
 518 619 533 620 539 621 c 0
 540 621 542 619 543 616 c 0
 544 613 545 611 545 608 c 0
 545 603 543 595 538 586 c 0
 533 577 527 569 521 560 c 0
 515 551 510 544 507 538 c 2
 206 -5 l 2
 203 -10 200 -16 196 -22 c 0
 192 -28 189 -32 187 -32 c 0
EndSplineSet
Substitution2: "'onum' Oldstyle Figures-1" seven.oldstyle
EndChar

StartChar: eight
Encoding: 56 56 60
Width: 600
GlyphClass: 1
Flags: W
LayerCount: 2
Fore
SplineSet
302 -14 m 0
 271 -14 243 -7 216 6 c 0
 189 19 167 37 150 60 c 0
 133 83 125 110 125 141 c 0
 125 170 133 195 148 216 c 0
 163 237 181 254 202 268 c 0
 223 282 242 293 259 302 c 0
 264 305 265 307 264 308 c 0
 263 309 260 312 256 315 c 0
 236 332 218 348 200 364 c 0
 182 380 167 398 156 418 c 0
 145 438 140 461 140 489 c 0
 140 515 149 539 167 560 c 0
 185 581 208 598 236 611 c 0
 264 624 293 630 322 630 c 0
 349 630 374 625 398 614 c 0
 422 603 443 587 458 567 c 0
 473 547 481 523 481 496 c 0
 481 472 475 453 463 438 c 0
 451 423 439 410 428 400 c 0
 419 392 410 386 403 380 c 0
 396 374 386 367 375 358 c 0
 366 352 362 348 362 346 c 0
 362 344 365 340 370 337 c 0
 395 320 418 303 437 286 c 0
 456 269 471 251 482 232 c 0
 493 213 499 190 499 164 c 0
 499 129 489 99 470 72 c 0
 451 45 426 24 396 9 c 0
 366 -6 335 -14 302 -14 c 0
316 15 m 0
 345 15 370 26 390 48 c 0
 410 70 419 95 419 124 c 0
 419 145 414 164 402 183 c 0
 390 202 375 220 357 236 c 0
 339 252 320 267 301 280 c 0
 297 283 293 286 290 288 c 0
 287 290 284 290 281 290 c 0
 278 290 274 288 269 284 c 0
 248 267 232 250 221 232 c 0
 210 214 205 189 205 157 c 0
 205 134 209 112 218 90 c 0
 227 68 239 50 256 36 c 0
 273 22 293 15 316 15 c 0
348 358 m 0
 371 377 387 399 394 422 c 0
 401 445 404 472 404 503 c 0
 404 531 396 556 382 576 c 0
 368 596 346 606 317 606 c 0
 302 606 286 602 271 593 c 0
 256 584 242 573 232 558 c 0
 222 543 217 527 217 509 c 0
 217 484 222 464 232 449 c 0
 242 434 254 420 272 408 c 0
 290 396 311 380 334 361 c 0
 336 360 338 359 341 358 c 0
 344 357 346 357 348 358 c 0
EndSplineSet
Substitution2: "'onum' Oldstyle Figures-1" eight.oldstyle
EndChar

StartChar: nine
Encoding: 57 57 61
Width: 600
GlyphClass: 1
Flags: W
LayerCount: 2
Fore
SplineSet
127 -31 m 0
 122 -31 118 -30 116 -28 c 0
 114 -26 113 -25 113 -23 c 0
 113 -20 115 -18 118 -16 c 0
 121 -14 124 -13 127 -13 c 0
 147 -13 170 -7 196 6 c 0
 222 19 249 38 276 60 c 0
 303 82 328 107 349 134 c 0
 370 162 387 189 400 216 c 0
 413 243 423 270 429 298 c 0
 435 326 438 357 438 389 c 0
 438 413 434 437 426 461 c 0
 418 485 409 507 396 527 c 0
 383 547 367 563 350 575 c 0
 333 587 316 593 298 593 c 0
 277 593 259 588 244 576 c 0
 229 564 218 549 211 532 c 0
 204 515 200 499 200 482 c 0
 200 462 204 442 214 423 c 0
 224 404 237 388 253 376 c 0
 269 364 286 357 303 357 c 0
 324 357 339 360 349 366 c 0
 359 372 370 377 383 383 c 0
 386 384 388 383 390 380 c 0
 392 377 391 374 390 372 c 0
 387 365 382 358 375 352 c 0
 368 346 362 341 357 337 c 0
 352 334 345 329 335 324 c 0
 325 319 314 314 302 310 c 0
 290 306 278 304 265 304 c 0
 242 304 220 309 198 320 c 0
 176 331 160 347 146 366 c 0
 132 385 125 406 125 430 c 0
 125 453 130 476 140 499 c 0
 150 522 164 544 182 564 c 0
 200 584 223 599 248 611 c 0
 273 623 301 629 331 629 c 0
 355 629 379 623 402 610 c 0
 425 597 446 580 464 558 c 0
 482 536 496 511 507 484 c 0
 518 457 523 429 523 400 c 0
 523 359 517 321 506 286 c 0
 495 251 478 217 457 185 c 0
 436 153 410 120 379 87 c 0
 361 67 341 50 319 35 c 0
 297 20 275 8 252 -2 c 0
 229 -12 208 -19 186 -24 c 0
 164 -29 144 -31 127 -31 c 0
EndSplineSet
Substitution2: "'onum' Oldstyle Figures-1" nine.oldstyle
EndChar

StartChar: period
Encoding: 46 46 62
Width: 600
GlyphClass: 1
Flags: W
LayerCount: 2
Fore
SplineSet
300 -14 m 0
 285 -14 272 -9 261 2 c 128
 250 13 245 26 245 41 c 0
 245 56 250 69 261 80 c 128
 272 91 285 96 300 96 c 0
 315 96 328 91 339 80 c 128
 350 69 355 56 355 41 c 0
 355 26 350 13 339 2 c 128
 328 -9 315 -14 300 -14 c 0
EndSplineSet
EndChar

StartChar: comma
Encoding: 44 44 63
Width: 600
GlyphClass: 1
Flags: W
LayerCount: 2
Fore
SplineSet
223 -147 m 0
 211 -147 205 -143 205 -136 c 0
 205 -133 207 -130 209 -128 c 128
 211 -126 214 -125 219 -124 c 0
 234 -121 248 -115 263 -107 c 128
 278 -99 290 -87 300 -72 c 128
 310 -57 315 -38 315 -15 c 0
 315 -7 311 2 304 12 c 128
 297 22 287 28 276 29 c 0
 261 30 249 35 241 43 c 128
 233 51 229 60 229 71 c 0
 229 84 234 95 245 104 c 128
 256 113 269 117 284 117 c 0
 308 117 327 108 343 90 c 128
 359 72 367 48 367 20 c 0
 367 -5 362 -28 352 -48 c 128
 342 -68 329 -86 314 -101 c 128
 299 -116 283 -127 267 -135 c 128
 251 -143 236 -147 223 -147 c 0
EndSplineSet
EndChar

StartChar: exclam
Encoding: 33 33 66
Width: 600
GlyphClass: 1
Flags: W
LayerCount: 2
Fore
SplineSet
298 205 m 0
 293 205 290 208 287 214 c 128
 284 220 281 229 280 244 c 0
 277 273 274 304 271 338 c 128
 268 372 265 405 263 438 c 128
 261 471 259 502 257 529 c 128
 255 556 254 578 254 594 c 0
 254 609 258 621 267 632 c 128
 276 643 288 649 301 649 c 256
 314 649 325 643 333 632 c 128
 341 621 346 609 346 594 c 0
 346 578 345 556 343 529 c 128
 341 502 338 471 335 438 c 128
 332 405 329 371 326 337 c 128
 323 303 319 272 316 244 c 0
 315 233 314 224 311 216 c 128
 308 208 303 205 298 205 c 0
300 -14 m 256
 283 -14 269 -8 257 4 c 128
 245 16 240 29 240 46 c 256
 240 63 245 76 257 88 c 128
 269 100 283 106 300 106 c 256
 317 106 331 100 343 88 c 128
 355 76 360 63 360 46 c 256
 360 29 355 16 343 4 c 128
 331 -8 317 -14 300 -14 c 256
EndSplineSet
EndChar

StartChar: question
Encoding: 63 63 67
Width: 600
GlyphClass: 1
Flags: W
LayerCount: 2
Fore
SplineSet
248 181 m 0
 245 181 241 184 236 190 c 128
 231 196 228 202 226 210 c 0
 223 221 220 232 216 244 c 128
 212 256 210 274 210 297 c 0
 210 314 219 330 237 343 c 128
 255 356 280 371 311 387 c 0
 325 394 339 404 352 417 c 128
 365 430 372 443 372 458 c 0
 372 491 364 519 347 540 c 128
 330 561 305 572 271 573 c 0
 266 573 262 572 258 572 c 128
 254 572 251 572 248 571 c 256
 245 570 242 570 238 570 c 128
 234 570 229 569 224 569 c 0
 217 569 211 572 204 578 c 128
 197 584 192 590 188 599 c 128
 184 608 182 616 182 625 c 0
 182 634 187 643 196 650 c 128
 205 657 213 661 222 661 c 0
 239 661 257 656 276 648 c 128
 295 640 313 628 330 611 c 0
 349 592 365 572 379 548 c 128
 393 524 404 501 412 478 c 128
 420 455 423 435 423 418 c 0
 423 393 419 375 410 362 c 128
 401 349 391 339 381 334 c 0
 366 326 355 319 346 314 c 128
 337 309 329 304 322 300 c 128
 315 296 306 290 295 283 c 0
 281 274 272 263 269 249 c 128
 266 235 264 220 263 204 c 0
 263 199 262 194 260 189 c 128
 258 184 253 181 248 181 c 0
262 -14 m 256
 245 -14 232 -8 220 4 c 128
 208 16 202 29 202 46 c 256
 202 63 208 76 220 88 c 128
 232 100 245 106 262 106 c 256
 279 106 292 100 304 88 c 128
 316 76 322 63 322 46 c 256
 322 29 316 16 304 4 c 128
 292 -8 279 -14 262 -14 c 256
EndSplineSet
EndChar

StartChar: asterisk
Encoding: 42 42 68
Width: 600
GlyphClass: 1
Flags: W
LayerCount: 2
Fore
SplineSet
314 372 m 0
 309 372 305 374 302 378 c 128
 299 382 298 385 297 390 c 2
 284 482 l 1
 273 474 261 466 248 458 c 128
 235 450 220 441 205 432 c 0
 204 431 202 430 200 429 c 128
 198 428 196 428 194 428 c 0
 190 428 186 430 182 432 c 128
 178 434 176 437 176 442 c 0
 176 447 179 453 185 459 c 2
 258 517 l 1
 245 523 232 529 219 536 c 128
 206 543 191 550 176 559 c 0
 173 560 170 562 168 566 c 128
 166 570 164 574 164 577 c 0
 164 584 168 589 174 590 c 128
 180 591 185 591 189 590 c 0
 205 583 220 578 235 572 c 128
 250 566 263 560 276 555 c 1
 275 569 273 584 272 599 c 128
 271 614 271 631 270 648 c 0
 270 653 271 658 274 663 c 128
 277 668 281 670 287 670 c 0
 292 670 295 668 298 664 c 128
 301 660 303 657 304 652 c 2
 317 560 l 1
 328 568 341 576 354 584 c 128
 367 592 381 601 396 610 c 0
 397 611 399 612 401 613 c 128
 403 614 405 614 407 614 c 0
 411 614 415 613 419 611 c 128
 423 609 425 605 425 600 c 256
 425 595 422 589 416 583 c 2
 343 525 l 1
 356 519 369 512 382 506 c 128
 395 500 410 492 425 483 c 0
 428 482 432 480 434 476 c 128
 436 472 437 468 437 465 c 0
 437 458 434 454 428 452 c 128
 422 450 416 451 412 452 c 0
 396 459 380 466 366 471 c 128
 352 476 338 482 325 487 c 1
 326 473 327 458 328 443 c 128
 329 428 330 411 331 394 c 0
 331 389 330 384 327 379 c 128
 324 374 320 372 314 372 c 0
EndSplineSet
EndChar

StartChar: numbersign
Encoding: 35 35 69
Width: 600
GlyphClass: 1
Flags: W
LayerCount: 2
Fore
SplineSet
126 -79 m 0
 123 -79 121 -78 119 -75 c 128
 117 -72 116 -70 116 -67 c 2
 116 -64 l 1
 160 113 l 1
 97 110 l 2
 94 110 91 112 88 114 c 128
 85 116 83 119 83 122 c 256
 83 125 83 130 84 138 c 128
 85 146 88 153 92 160 c 128
 96 167 100 170 107 170 c 2
 174 173 l 1
 208 311 l 1
 144 308 l 2
 141 308 137 310 134 312 c 128
 131 314 130 317 130 320 c 256
 130 323 131 328 132 336 c 128
 133 344 134 351 138 358 c 128
 142 365 147 368 154 368 c 2
 223 371 l 1
 265 542 l 2
 266 549 271 554 278 556 c 128
 285 558 291 559 298 559 c 0
 301 559 303 558 304 556 c 128
 305 554 306 550 306 547 c 0
 306 546 306 546 306 545 c 128
 306 544 305 543 305 542 c 2
 264 373 l 1
 377 379 l 1
 420 553 l 2
 421 560 425 565 432 567 c 128
 439 569 446 570 453 570 c 0
 456 570 458 568 459 566 c 128
 460 564 461 561 461 558 c 0
 461 557 460 557 460 556 c 128
 460 555 460 554 460 553 c 2
 418 381 l 1
 477 384 l 2
 480 384 483 383 486 381 c 128
 489 379 490 376 490 373 c 256
 490 370 489 364 487 356 c 128
 485 348 482 342 477 335 c 128
 472 328 466 325 459 324 c 2
 403 321 l 1
 369 183 l 1
 430 186 l 2
 433 186 436 184 439 182 c 128
 442 180 443 177 443 174 c 256
 443 171 442 166 440 158 c 128
 438 150 435 142 430 136 c 128
 425 130 419 127 412 126 c 2
 354 123 l 1
 311 -53 l 2
 310 -60 306 -64 300 -66 c 128
 294 -68 288 -68 281 -68 c 0
 278 -68 276 -67 274 -64 c 128
 272 -61 271 -59 271 -56 c 2
 271 -53 l 1
 314 121 l 1
 200 115 l 1
 156 -64 l 2
 155 -71 151 -74 145 -76 c 128
 139 -78 133 -79 126 -79 c 0
215 175 m 1
 329 181 l 1
 362 319 l 1
 249 313 l 1
 215 175 l 1
EndSplineSet
EndChar

StartChar: slash
Encoding: 47 47 70
Width: 600
GlyphClass: 1
Flags: W
LayerCount: 2
Fore
SplineSet
136 -62 m 0
 129 -62 124 -61 121 -58 c 128
 118 -55 118 -51 120 -47 c 2
 417 648 l 2
 420 655 426 660 433 662 c 128
 440 664 447 665 456 665 c 0
 463 665 467 663 469 660 c 128
 471 657 471 653 469 648 c 2
 172 -47 l 2
 169 -54 164 -58 157 -60 c 128
 150 -62 143 -62 136 -62 c 0
EndSplineSet
EndChar

StartChar: backslash
Encoding: 92 92 71
Width: 600
GlyphClass: 1
Flags: W
LayerCount: 2
Fore
SplineSet
462 -62 m 0
 455 -62 449 -62 442 -60 c 128
 435 -58 429 -54 426 -47 c 2
 130 648 l 2
 128 653 128 657 130 660 c 128
 132 663 135 665 142 665 c 0
 151 665 159 664 166 662 c 128
 173 660 179 655 182 648 c 2
 478 -47 l 2
 480 -51 479 -55 476 -58 c 128
 473 -61 469 -62 462 -62 c 0
EndSplineSet
EndChar

StartChar: parenleft
Encoding: 40 40 72
Width: 600
GlyphClass: 1
Flags: W
LayerCount: 2
Fore
SplineSet
380 -214 m 256
 373 -214 368 -212 363 -207 c 0
 349 -193 333 -173 317 -147 c 128
 301 -121 285 -91 269 -58 c 128
 253 -25 238 10 225 48 c 128
 212 86 203 124 195 162 c 128
 187 200 183 235 183 269 c 0
 183 312 189 354 200 397 c 128
 211 440 226 480 244 518 c 128
 262 556 281 592 301 622 c 128
 321 652 341 676 359 694 c 0
 362 697 366 700 371 702 c 128
 376 704 381 705 386 705 c 0
 389 705 393 703 399 700 c 128
 405 697 408 694 408 689 c 0
 408 688 407 687 405 684 c 128
 403 681 401 679 399 676 c 128
 397 673 396 671 395 670 c 0
 375 647 355 615 335 576 c 128
 315 537 298 492 285 442 c 128
 272 392 266 338 266 281 c 0
 266 238 270 194 277 148 c 128
 284 102 294 58 306 16 c 128
 318 -26 332 -63 347 -96 c 128
 362 -129 377 -155 392 -173 c 0
 393 -174 395 -175 397 -178 c 128
 399 -181 401 -183 403 -186 c 128
 405 -189 407 -191 407 -192 c 0
 407 -199 405 -204 399 -208 c 128
 393 -212 387 -214 380 -214 c 256
EndSplineSet
EndChar

StartChar: parenright
Encoding: 41 41 73
Width: 600
GlyphClass: 1
Flags: W
LayerCount: 2
Fore
SplineSet
220 -214 m 256
 213 -214 208 -212 202 -208 c 128
 196 -204 193 -199 193 -192 c 0
 193 -191 194 -189 196 -186 c 128
 198 -183 201 -181 204 -178 c 128
 207 -175 208 -174 208 -173 c 0
 223 -155 239 -129 254 -96 c 128
 269 -63 282 -26 294 16 c 128
 306 58 316 102 323 148 c 128
 330 194 334 238 334 281 c 0
 334 338 327 392 314 442 c 128
 301 492 286 537 266 576 c 128
 246 615 226 647 205 670 c 0
 204 671 203 673 201 676 c 128
 199 679 197 681 195 684 c 128
 193 687 192 688 192 689 c 0
 192 694 194 697 200 700 c 128
 206 703 211 705 214 705 c 0
 219 705 225 704 230 702 c 128
 235 700 238 697 241 694 c 0
 259 676 278 652 298 622 c 128
 318 592 338 556 356 518 c 128
 374 480 389 440 400 397 c 128
 411 354 417 312 417 269 c 0
 417 235 414 200 406 162 c 128
 398 124 387 86 374 48 c 128
 361 10 347 -25 331 -58 c 128
 315 -91 298 -121 282 -147 c 128
 266 -173 251 -193 237 -207 c 0
 232 -212 227 -214 220 -214 c 256
EndSplineSet
EndChar

StartChar: braceleft
Encoding: 123 123 74
Width: 600
GlyphClass: 1
Flags: W
LayerCount: 2
Fore
SplineSet
447 -152 m 0
 416 -150 385 -145 356 -136 c 128
 327 -127 303 -114 284 -96 c 128
 265 -78 255 -52 255 -21 c 0
 255 14 258 46 262 72 c 128
 266 98 268 126 268 157 c 0
 268 176 264 193 255 208 c 128
 246 223 235 236 222 246 c 128
 209 256 196 262 181 265 c 0
 176 266 172 269 168 272 c 128
 164 275 162 278 162 282 c 0
 162 285 164 288 167 292 c 128
 170 296 176 299 183 301 c 0
 201 306 216 312 229 321 c 128
 242 330 251 340 258 354 c 128
 265 368 268 385 268 404 c 0
 268 435 266 464 262 490 c 128
 258 516 255 547 255 582 c 0
 255 613 265 639 284 658 c 128
 303 677 328 691 358 700 c 128
 388 709 419 714 450 715 c 0
 455 715 458 714 462 711 c 128
 466 708 468 705 468 700 c 0
 468 695 465 692 459 690 c 128
 453 688 447 687 442 686 c 0
 421 683 402 679 387 673 c 128
 372 667 360 657 352 644 c 128
 344 631 340 612 340 587 c 0
 340 564 342 543 344 524 c 128
 346 505 348 488 350 470 c 128
 352 452 353 433 353 414 c 0
 353 392 346 372 332 354 c 128
 318 336 303 322 284 310 c 128
 265 298 249 289 235 283 c 0
 233 282 233 282 234 281 c 128
 235 280 236 280 237 279 c 0
 245 277 255 272 268 264 c 128
 281 256 295 246 308 234 c 128
 321 222 331 209 340 194 c 128
 349 179 353 164 353 147 c 0
 353 128 352 110 350 92 c 128
 348 74 346 55 344 36 c 128
 342 17 340 -3 340 -26 c 0
 340 -50 344 -68 352 -82 c 128
 360 -96 370 -106 385 -112 c 128
 400 -118 418 -123 439 -125 c 0
 444 -126 450 -127 456 -128 c 128
 462 -129 465 -132 465 -137 c 0
 465 -142 464 -145 460 -148 c 128
 456 -151 452 -153 447 -152 c 0
EndSplineSet
EndChar

StartChar: braceright
Encoding: 125 125 75
Width: 600
GlyphClass: 1
Flags: W
LayerCount: 2
Fore
SplineSet
153 -152 m 0
 148 -153 144 -151 140 -148 c 128
 136 -145 135 -142 135 -137 c 0
 135 -132 138 -129 144 -128 c 128
 150 -127 156 -126 161 -125 c 0
 182 -123 200 -118 215 -112 c 128
 230 -106 240 -96 248 -82 c 128
 256 -68 260 -50 260 -26 c 0
 260 -3 259 17 257 36 c 128
 255 55 252 74 250 92 c 128
 248 110 247 128 247 147 c 0
 247 164 251 179 260 194 c 128
 269 209 279 222 292 234 c 128
 305 246 319 256 332 264 c 128
 345 272 355 277 363 279 c 0
 364 280 365 280 366 281 c 128
 367 282 367 282 365 283 c 0
 351 289 334 298 316 310 c 128
 298 322 282 336 268 354 c 128
 254 372 247 392 247 414 c 0
 247 433 248 452 250 470 c 128
 252 488 255 505 257 524 c 128
 259 543 260 564 260 587 c 0
 260 612 256 631 248 644 c 128
 240 657 228 667 213 673 c 128
 198 679 179 683 158 686 c 0
 153 687 147 688 141 690 c 128
 135 692 132 695 132 700 c 0
 132 705 134 708 138 711 c 128
 142 714 145 715 150 715 c 0
 181 714 212 709 242 700 c 128
 272 691 297 677 316 658 c 128
 335 639 345 613 345 582 c 0
 345 547 342 516 338 490 c 128
 334 464 332 435 332 404 c 0
 332 385 335 368 342 354 c 128
 349 340 359 330 372 321 c 128
 385 312 400 306 417 301 c 0
 424 299 430 296 433 292 c 128
 436 288 438 285 438 282 c 0
 438 278 436 275 432 272 c 128
 428 269 424 266 419 265 c 0
 405 262 391 256 378 246 c 128
 365 236 354 223 345 208 c 128
 336 193 332 176 332 157 c 0
 332 126 334 98 338 72 c 128
 342 46 345 14 345 -21 c 0
 345 -52 335 -78 316 -96 c 128
 297 -114 273 -127 244 -136 c 128
 215 -145 184 -150 153 -152 c 0
EndSplineSet
EndChar

StartChar: bracketleft
Encoding: 91 91 76
Width: 600
GlyphClass: 1
Flags: W
LayerCount: 2
Fore
SplineSet
275 -200 m 2
 268 -200 262 -199 257 -198 c 128
 252 -197 249 -195 247 -192 c 128
 245 -189 244 -183 244 -175 c 2
 244 668 l 2
 244 679 245 687 247 692 c 128
 249 697 253 699 258 700 c 128
 263 701 271 702 282 702 c 2
 427 701 l 2
 432 701 436 700 440 698 c 128
 444 696 445 693 445 688 c 0
 445 683 442 680 437 678 c 128
 432 676 426 674 419 673 c 2
 340 667 l 2
 335 666 330 663 325 658 c 128
 320 653 317 647 317 642 c 2
 317 -121 l 2
 317 -130 319 -137 324 -143 c 128
 329 -149 334 -153 340 -154 c 2
 419 -167 l 2
 426 -168 432 -169 437 -172 c 128
 442 -175 445 -179 445 -185 c 256
 445 -191 442 -195 436 -197 c 128
 430 -199 425 -200 419 -200 c 2
 275 -200 l 2
EndSplineSet
EndChar

StartChar: bracketright
Encoding: 93 93 77
Width: 600
GlyphClass: 1
Flags: W
LayerCount: 2
Fore
SplineSet
325 -200 m 2
 181 -200 l 2
 175 -200 169 -199 163 -197 c 128
 157 -195 155 -191 155 -185 c 256
 155 -179 158 -175 163 -172 c 128
 168 -169 174 -168 181 -167 c 2
 260 -154 l 2
 266 -153 271 -149 276 -143 c 128
 281 -137 283 -130 283 -121 c 2
 283 642 l 2
 283 647 280 653 275 658 c 128
 270 663 265 666 260 667 c 2
 181 673 l 2
 174 674 168 676 163 678 c 128
 158 680 155 683 155 688 c 0
 155 693 157 696 161 698 c 128
 165 700 168 701 173 701 c 2
 318 702 l 2
 329 702 337 701 342 700 c 128
 347 699 351 697 353 692 c 128
 355 687 356 679 356 668 c 2
 356 -175 l 2
 356 -183 355 -189 353 -192 c 128
 351 -195 347 -197 343 -198 c 128
 339 -199 333 -200 325 -200 c 2
EndSplineSet
EndChar

StartChar: hyphenminus
Encoding: 45 45 78
Width: 600
GlyphClass: 1
Flags: W
LayerCount: 2
Fore
SplineSet
64 222 m 2
 61 222 57 223 54 226 c 128
 51 229 50 231 50 234 c 0
 50 237 51 242 52 250 c 128
 53 258 54 265 58 272 c 128
 62 279 67 282 74 282 c 2
 537 282 l 2
 540 282 543 280 546 278 c 128
 549 276 550 273 550 270 c 0
 550 259 548 249 542 238 c 128
 536 227 528 222 519 222 c 2
 64 222 l 2
EndSplineSet
Substitution2: "'ss01' Original glyphs-1" hyphenminus.ss01
EndChar

StartChar: underscore
Encoding: 95 95 79
Width: 600
GlyphClass: 1
Flags: W
LayerCount: 2
Fore
SplineSet
537 -132 m 2
 540 -132 543 -133 546 -135 c 128
 549 -137 551 -140 551 -143 c 0
 551 -150 548 -158 541 -168 c 128
 534 -178 527 -182 519 -182 c 2
 64 -182 l 2
 61 -182 57 -181 54 -178 c 128
 51 -175 50 -173 50 -170 c 0
 50 -167 50 -162 52 -156 c 128
 54 -150 57 -145 60 -140 c 128
 63 -135 68 -132 74 -132 c 2
 537 -132 l 2
EndSplineSet
EndChar

StartChar: quotesingle
Encoding: 39 39 81
Width: 600
GlyphClass: 1
Flags: W
LayerCount: 2
Fore
SplineSet
272 444 m 256
 269 444 267 447 266 452 c 128
 265 457 265 462 265 467 c 0
 266 478 266 488 266 497 c 128
 266 511 266 511 266 524 c 0
 266 536 266 549 265 564 c 128
 264 579 264 593 263 604 c 128
 262 620 262 620 262 620 c 2
 262 627 264 634 268 640 c 128
 272 646 277 652 281 655 c 0
 289 662 296 666 302 670 c 128
 308 674 316 676 324 676 c 0
 329 676 333 672 335 666 c 128
 337 660 338 653 338 644 c 0
 338 627 336 607 330 584 c 128
 324 561 317 539 310 518 c 128
 303 497 296 481 291 469 c 0
 288 463 286 457 282 452 c 128
 278 447 275 444 272 444 c 256
EndSplineSet
EndChar

StartChar: dollar
Encoding: 36 36 83
Width: 600
GlyphClass: 1
Flags: W
LayerCount: 2
Fore
SplineSet
251 -82 m 0
 247 -82 243 -80 240 -77 c 128
 237 -74 235 -69 236 -62 c 2
 245 9 l 2
 246 12 245 15 243 16 c 128
 241 17 239 18 238 18 c 0
 219 21 202 27 186 34 c 128
 170 41 154 50 141 61 c 0
 139 64 136 67 134 70 c 128
 132 73 130 76 129 79 c 0
 126 92 124 107 123 126 c 128
 122 145 121 161 120 174 c 0
 120 182 126 186 138 186 c 0
 141 186 145 185 148 184 c 128
 151 183 152 180 153 176 c 0
 162 143 175 118 190 99 c 128
 205 80 222 67 241 60 c 0
 243 59 245 59 247 59 c 128
 249 59 250 60 250 62 c 2
 277 291 l 2
 278 294 277 296 276 299 c 128
 275 302 271 305 265 308 c 0
 244 321 223 334 203 349 c 128
 183 364 166 381 154 400 c 128
 142 419 136 441 136 466 c 0
 136 495 143 522 156 546 c 128
 169 570 188 590 214 606 c 128
 240 622 273 630 312 632 c 0
 319 632 322 634 322 638 c 2
 329 695 l 2
 330 702 334 706 340 708 c 128
 346 710 351 712 358 712 c 0
 361 712 364 710 367 707 c 128
 370 704 371 700 371 697 c 256
 371 694 370 688 369 680 c 128
 368 672 367 662 366 654 c 128
 365 646 365 640 364 637 c 0
 364 633 366 631 370 630 c 0
 383 627 395 624 406 620 c 128
 417 616 426 613 433 610 c 0
 438 609 443 606 446 602 c 128
 449 598 452 593 453 588 c 0
 456 575 460 560 465 544 c 128
 470 528 472 513 472 499 c 0
 472 495 471 492 468 491 c 128
 465 490 461 489 458 489 c 0
 452 489 446 490 441 492 c 128
 436 494 432 498 431 501 c 0
 422 524 412 542 400 556 c 128
 388 570 374 581 359 588 c 0
 356 588 355 586 355 583 c 2
 331 385 l 2
 330 381 331 378 332 377 c 128
 333 376 336 372 343 367 c 0
 365 354 386 340 407 325 c 128
 428 310 445 291 458 270 c 128
 471 249 478 224 478 194 c 0
 478 143 461 102 428 70 c 128
 395 38 350 19 294 16 c 0
 289 16 286 14 285 9 c 2
 276 -67 l 2
 275 -72 272 -76 267 -78 c 128
 262 -80 256 -82 251 -82 c 0
299 53 m 0
 328 55 352 66 371 84 c 128
 390 102 399 127 399 158 c 0
 399 189 392 212 378 228 c 128
 364 244 346 259 323 274 c 0
 318 277 316 275 316 269 c 2
 291 63 l 2
 291 56 294 53 299 53 c 0
283 404 m 0
 289 401 292 402 292 405 c 2
 314 587 l 2
 314 592 312 595 307 595 c 0
 281 593 259 585 241 571 c 128
 223 557 214 532 214 497 c 0
 214 478 220 462 233 447 c 128
 246 432 262 418 283 404 c 0
EndSplineSet
EndChar

StartChar: plus
Encoding: 43 43 84
Width: 600
GlyphClass: 1
Flags: W
LayerCount: 2
Fore
SplineSet
287 -8 m 0
 284 -8 282 -7 279 -4 c 128
 276 -1 275 3 275 6 c 2
 275 217 l 2
 275 220 274 222 271 222 c 2
 69 222 l 2
 66 222 62 223 59 226 c 128
 56 229 55 231 55 234 c 0
 55 237 55 242 57 248 c 128
 59 254 62 259 65 264 c 128
 68 269 73 272 79 272 c 2
 268 272 l 2
 271 272 273 273 274 274 c 128
 275 275 275 277 275 280 c 2
 275 451 l 2
 275 458 278 464 285 469 c 128
 292 474 299 477 307 479 c 128
 315 481 319 482 321 482 c 0
 324 482 328 481 331 478 c 128
 334 475 335 472 335 469 c 2
 335 278 l 2
 335 274 336 272 337 272 c 2
 542 272 l 2
 545 272 548 272 551 270 c 128
 554 268 555 265 555 262 c 0
 555 253 553 245 547 236 c 128
 541 227 533 222 524 222 c 2
 339 222 l 2
 336 222 335 221 335 218 c 2
 335 16 l 2
 335 9 332 4 325 0 c 128
 318 -4 311 -5 303 -6 c 128
 295 -7 290 -8 287 -8 c 0
EndSplineSet
EndChar

StartChar: equal
Encoding: 61 61 85
Width: 600
GlyphClass: 1
Flags: W
LayerCount: 2
Fore
SplineSet
81 314 m 2
 78 314 74 315 71 318 c 128
 68 321 67 323 67 326 c 0
 67 329 67 334 69 340 c 128
 71 346 74 351 77 356 c 128
 80 361 85 364 91 364 c 2
 519 364 l 2
 522 364 526 363 529 361 c 128
 532 359 533 356 533 353 c 0
 533 346 530 338 523 328 c 128
 516 318 509 314 501 314 c 2
 81 314 l 2
81 143 m 2
 78 143 74 144 71 147 c 128
 68 150 67 152 67 155 c 0
 67 158 67 163 69 169 c 128
 71 175 74 181 77 186 c 128
 80 191 85 193 91 193 c 2
 519 193 l 2
 522 193 526 192 529 190 c 128
 532 188 533 185 533 182 c 0
 533 173 530 165 523 156 c 128
 516 147 509 143 501 143 c 2
 81 143 l 2
EndSplineSet
EndChar

StartChar: greater
Encoding: 62 62 86
Width: 600
GlyphClass: 1
Flags: W
LayerCount: 2
Fore
SplineSet
93 467 m 2
 486 270 l 2
 495 266 504 261 513 256 c 128
 522 251 527 246 527 243 c 0
 527 238 524 230 518 220 c 128
 512 210 504 202 494 197 c 2
 91 -1 l 2
 88 -3 86 -4 83 -4 c 256
 80 -4 78 -3 76 -1 c 128
 74 1 74 3 74 6 c 0
 74 12 77 20 82 32 c 128
 87 44 95 52 105 57 c 2
 448 231 l 2
 449 232 450 233 450 234 c 128
 450 235 448 235 447 236 c 2
 97 410 l 2
 88 415 81 423 78 434 c 128
 75 445 73 453 73 458 c 0
 73 465 75 468 80 468 c 128
 85 468 90 468 93 467 c 2
EndSplineSet
EndChar

StartChar: less
Encoding: 60 60 87
Width: 600
GlyphClass: 1
Flags: W
LayerCount: 2
Fore
SplineSet
507 -2 m 2
 114 195 l 2
 105 199 96 204 87 210 c 128
 78 216 73 219 73 222 c 0
 73 227 76 234 82 245 c 128
 88 256 96 263 106 268 c 2
 509 466 l 2
 512 468 515 469 517 469 c 0
 520 469 523 468 524 466 c 128
 525 464 526 462 526 459 c 0
 526 453 523 444 518 433 c 128
 513 422 505 413 495 408 c 2
 152 234 l 2
 151 233 150 233 150 232 c 128
 150 231 152 230 153 229 c 2
 503 55 l 2
 512 50 519 42 522 31 c 128
 525 20 527 12 527 7 c 0
 527 0 525 -4 520 -4 c 128
 515 -4 510 -3 507 -2 c 2
EndSplineSet
EndChar

StartChar: asciitilde
Encoding: 126 126 88
Width: 600
GlyphClass: 1
Flags: W
LayerCount: 2
Fore
SplineSet
387 260 m 0
 370 260 353 263 338 270 c 128
 323 277 308 284 293 291 c 0
 280 298 266 305 252 311 c 128
 238 317 225 320 210 320 c 0
 193 320 179 315 166 306 c 128
 153 297 142 288 134 279 c 128
 126 270 121 265 119 265 c 0
 115 265 110 267 106 270 c 128
 102 273 100 276 100 279 c 0
 100 286 103 295 109 306 c 128
 115 317 123 329 134 340 c 128
 145 351 158 361 173 369 c 128
 188 377 204 381 221 381 c 256
 238 381 254 378 268 371 c 128
 282 364 296 357 309 350 c 0
 322 342 335 334 348 328 c 128
 361 322 374 319 387 319 c 0
 398 319 409 322 420 328 c 128
 431 334 440 342 448 350 c 128
 456 358 464 366 470 372 c 128
 476 378 479 382 480 382 c 0
 483 382 487 380 492 377 c 128
 497 374 500 369 500 362 c 0
 500 352 497 341 490 329 c 128
 483 317 473 306 462 296 c 128
 451 286 438 277 425 270 c 128
 412 263 399 260 387 260 c 0
EndSplineSet
EndChar

StartChar: asciicircum
Encoding: 94 94 89
Width: 600
GlyphClass: 1
Flags: W
LayerCount: 2
Fore
SplineSet
109 284 m 0
 106 284 104 286 102 288 c 128
 100 290 100 292 100 295 c 0
 100 299 101 302 103 305 c 2
 300 603 l 1
 303 603 l 1
 501 305 l 2
 504 301 505 297 504 292 c 128
 503 287 500 284 495 284 c 0
 488 284 480 286 472 290 c 128
 464 294 457 297 454 302 c 2
 306 514 l 2
 303 517 301 519 300 519 c 128
 299 519 298 517 296 514 c 2
 150 303 l 2
 146 297 140 292 131 289 c 128
 122 286 115 284 109 284 c 0
EndSplineSet
EndChar

StartChar: percent
Encoding: 37 37 90
Width: 600
GlyphClass: 1
Flags: W
LayerCount: 2
Fore
SplineSet
453 -17 m 0
 428 -17 406 -9 389 8 c 128
 372 25 358 46 348 73 c 128
 338 100 334 128 334 157 c 0
 334 189 339 219 350 246 c 128
 361 273 376 294 396 310 c 128
 416 326 439 335 466 335 c 0
 491 335 511 328 528 312 c 128
 545 296 559 276 568 250 c 128
 577 224 582 197 582 168 c 0
 582 135 576 104 566 76 c 128
 556 48 541 25 522 8 c 128
 503 -9 480 -17 453 -17 c 0
462 8 m 0
 478 8 490 16 498 31 c 128
 506 46 510 65 512 88 c 128
 514 111 516 134 516 156 c 0
 516 179 515 203 512 226 c 128
 509 249 502 268 494 284 c 128
 486 300 473 307 456 307 c 0
 441 307 430 300 422 286 c 128
 414 272 409 253 406 232 c 128
 403 211 401 189 401 168 c 0
 401 150 402 132 403 113 c 128
 404 94 408 78 412 62 c 128
 416 46 422 33 430 23 c 128
 438 13 448 8 462 8 c 0
460 646 m 2
 465 654 470 660 476 662 c 128
 482 664 490 665 499 665 c 0
 502 665 505 663 508 660 c 128
 511 657 513 654 513 650 c 0
 513 648 513 647 512 646 c 2
 128 -32 l 2
 124 -39 119 -44 112 -46 c 128
 105 -48 99 -48 92 -48 c 0
 88 -48 84 -47 80 -44 c 128
 76 -41 75 -38 75 -35 c 0
 75 -33 75 -33 75 -32 c 2
 460 646 l 2
136 263 m 0
 111 263 89 271 72 288 c 128
 55 305 42 326 32 353 c 128
 22 380 17 408 17 437 c 0
 17 469 22 499 33 526 c 128
 44 553 59 574 79 590 c 128
 99 606 122 615 149 615 c 0
 174 615 195 608 212 592 c 128
 229 576 242 556 251 530 c 128
 260 504 265 477 265 448 c 0
 265 415 260 384 250 356 c 128
 240 328 224 305 205 288 c 128
 186 271 163 263 136 263 c 0
145 288 m 0
 161 288 172 296 180 311 c 128
 188 326 194 345 196 368 c 128
 198 391 199 414 199 436 c 0
 199 459 197 483 194 506 c 128
 191 529 186 548 178 564 c 128
 170 580 156 587 139 587 c 0
 124 587 113 580 105 566 c 128
 97 552 91 533 88 512 c 128
 85 491 84 469 84 448 c 0
 84 430 85 412 86 393 c 128
 87 374 90 358 94 342 c 128
 98 326 104 313 112 303 c 128
 120 293 131 288 145 288 c 0
EndSplineSet
EndChar

StartChar: at
Encoding: 64 64 91
Width: 600
GlyphClass: 1
Flags: W
LayerCount: 2
Fore
SplineSet
306 -139 m 0
 270 -139 236 -132 203 -116 c 128
 170 -100 141 -78 116 -49 c 128
 91 -20 70 13 56 52 c 128
 42 91 35 135 35 182 c 0
 35 237 43 285 59 327 c 128
 75 369 96 404 124 432 c 128
 152 460 184 482 219 496 c 128
 254 510 291 517 330 517 c 0
 361 517 391 510 419 496 c 128
 447 482 472 462 494 436 c 128
 516 410 533 380 546 346 c 128
 559 312 565 277 565 238 c 0
 565 198 558 164 542 134 c 128
 526 104 505 80 480 64 c 128
 455 48 429 40 401 40 c 0
 389 40 380 44 374 50 c 128
 368 56 363 62 360 68 c 128
 357 74 355 78 352 78 c 0
 349 78 343 74 334 68 c 128
 325 62 314 55 301 48 c 128
 288 41 272 38 254 38 c 0
 227 38 203 48 184 68 c 128
 165 88 155 117 155 154 c 0
 155 197 164 234 180 266 c 128
 196 298 218 322 244 339 c 128
 270 356 298 365 329 365 c 0
 338 365 347 364 358 362 c 128
 369 360 377 358 382 356 c 256
 387 354 391 352 394 351 c 128
 397 350 400 349 402 349 c 0
 405 349 407 351 409 355 c 128
 411 359 413 363 415 366 c 128
 417 369 419 371 422 371 c 0
 423 371 426 371 429 370 c 128
 432 369 435 368 438 366 c 128
 441 364 442 363 441 362 c 0
 437 349 434 334 430 316 c 128
 426 298 423 285 422 276 c 2
 405 142 l 2
 404 138 404 134 404 130 c 128
 404 126 403 121 403 116 c 0
 403 109 404 102 406 96 c 128
 408 90 412 87 417 87 c 0
 436 87 452 93 468 104 c 128
 484 115 497 130 507 150 c 128
 517 170 522 195 522 222 c 0
 522 270 512 313 494 350 c 128
 476 387 451 416 420 438 c 128
 389 460 355 471 316 471 c 0
 285 471 255 465 226 452 c 128
 197 439 172 420 150 396 c 128
 128 372 111 342 98 308 c 128
 85 274 78 235 78 192 c 0
 78 152 84 114 97 80 c 128
 110 46 127 16 149 -10 c 128
 171 -36 196 -56 224 -70 c 128
 252 -84 283 -92 315 -92 c 0
 332 -92 352 -89 372 -82 c 128
 392 -75 411 -66 430 -55 c 128
 449 -44 466 -31 479 -18 c 0
 482 -15 486 -12 489 -10 c 128
 492 -8 495 -6 498 -6 c 0
 507 -6 512 -11 512 -20 c 0
 512 -27 505 -37 492 -50 c 128
 479 -63 463 -76 442 -90 c 128
 421 -104 399 -114 375 -124 c 128
 351 -134 328 -139 306 -139 c 0
284 79 m 0
 293 79 301 81 308 85 c 128
 315 89 323 94 331 101 c 0
 336 105 340 111 343 118 c 128
 346 125 349 136 351 151 c 2
 367 258 l 2
 368 259 368 261 368 263 c 128
 368 266 368 266 368 270 c 0
 368 289 363 303 352 314 c 128
 341 325 327 330 310 330 c 0
 295 330 281 324 267 312 c 128
 253 300 241 283 232 260 c 128
 223 237 219 210 219 177 c 0
 219 152 223 133 230 119 c 128
 237 105 244 94 254 88 c 128
 264 82 274 79 284 79 c 0
EndSplineSet
EndChar

StartChar: ampersand
Encoding: 38 38 92
Width: 600
GlyphClass: 1
Flags: W
LayerCount: 2
Fore
SplineSet
164 -15 m 0
 139 -15 117 -10 96 2 c 128
 75 14 58 30 46 52 c 128
 34 74 28 99 28 128 c 0
 28 177 40 219 63 254 c 128
 86 289 117 317 155 340 c 2
 170 349 l 1
 161 363 l 2
 156 370 150 379 142 390 c 128
 134 401 126 415 120 430 c 128
 114 445 110 462 110 481 c 0
 110 504 115 525 126 543 c 128
 137 561 152 574 170 584 c 128
 188 594 209 599 230 599 c 0
 253 599 272 594 288 582 c 128
 304 570 316 555 324 537 c 128
 332 519 336 501 336 482 c 0
 337 455 330 432 315 414 c 128
 300 396 280 381 254 369 c 2
 241 363 l 1
 253 346 l 2
 271 322 288 300 304 280 c 128
 320 260 334 237 349 211 c 2
 360 193 l 1
 373 210 l 2
 385 225 397 242 408 261 c 128
 419 280 428 296 435 312 c 128
 442 328 446 339 446 345 c 256
 446 351 444 357 440 363 c 128
 436 369 430 373 424 375 c 0
 422 376 419 378 416 380 c 128
 413 382 412 385 412 388 c 0
 412 394 415 398 420 399 c 128
 425 400 429 401 432 401 c 256
 435 401 440 401 448 400 c 128
 456 399 464 397 473 396 c 128
 482 395 488 395 493 395 c 0
 502 395 511 396 522 399 c 128
 533 402 542 405 552 408 c 128
 562 411 570 412 577 412 c 0
 579 412 581 410 584 408 c 128
 587 406 588 404 588 402 c 0
 588 397 586 393 581 388 c 128
 576 383 572 381 567 380 c 0
 554 378 542 374 531 366 c 128
 520 358 511 350 504 341 c 0
 501 338 495 330 486 318 c 128
 477 306 466 292 454 276 c 128
 442 260 430 245 419 230 c 128
 408 215 398 202 389 191 c 128
 380 180 375 174 373 171 c 1
 386 147 l 2
 403 118 418 95 434 77 c 128
 450 59 467 50 486 50 c 0
 496 50 506 52 516 54 c 128
 526 56 537 60 546 66 c 0
 548 67 550 69 553 70 c 128
 556 71 558 72 561 72 c 0
 564 72 567 72 569 70 c 128
 571 68 572 64 572 59 c 0
 572 52 567 43 556 31 c 128
 545 19 531 8 514 -1 c 128
 497 -10 480 -15 462 -15 c 0
 442 -15 426 -12 412 -4 c 128
 398 4 385 16 374 32 c 128
 363 48 351 67 338 92 c 2
 327 113 l 1
 322 107 l 2
 306 84 290 64 274 45 c 128
 258 26 242 12 224 1 c 128
 206 -10 187 -15 164 -15 c 0
197 60 m 0
 218 60 238 65 255 76 c 128
 272 87 290 103 307 126 c 2
 313 134 l 1
 303 153 l 2
 289 179 273 205 254 231 c 128
 235 257 215 285 194 314 c 2
 184 328 l 1
 169 319 l 2
 150 309 136 296 126 280 c 128
 116 264 111 248 108 230 c 128
 105 212 103 194 103 176 c 0
 103 143 112 115 129 93 c 128
 146 71 169 60 197 60 c 0
229 382 m 1
 238 389 l 2
 251 397 260 410 266 428 c 128
 272 446 274 465 274 484 c 0
 274 506 270 526 262 544 c 128
 254 562 243 570 226 570 c 0
 213 570 201 564 190 552 c 128
 179 540 174 527 174 510 c 0
 174 495 176 481 178 470 c 128
 180 459 184 448 190 437 c 128
 196 426 205 414 216 400 c 2
 229 382 l 1
EndSplineSet
EndChar

StartChar: bar
Encoding: 124 124 93
Width: 600
GlyphClass: 1
Flags: W
LayerCount: 2
Fore
SplineSet
282 -289 m 0
 279 -289 277 -287 274 -284 c 0
 271 -281 270 -278 270 -275 c 2
 270 676 l 2
 270 681 272 686 276 690 c 0
 280 694 284 698 290 700 c 0
 296 702 301 704 306 705 c 0
 311 706 315 707 316 707 c 0
 319 707 323 706 326 703 c 0
 329 700 330 697 330 694 c 2
 330 -265 l 2
 330 -270 328 -275 324 -278 c 0
 320 -281 316 -282 310 -284 c 0
 304 -286 298 -287 293 -288 c 0
 288 -289 284 -289 282 -289 c 0
EndSplineSet
EndChar

StartChar: grave
Encoding: 96 96 94
Width: 600
GlyphClass: 1
Flags: W
LayerCount: 2
Fore
SplineSet
371 457 m 0
 364 457 354 464 340 478 c 0
 331 487 320 499 306 515 c 128
 292 531 278 547 264 564 c 128
 250 581 240 596 232 607 c 0
 229 612 227 615 225 618 c 128
 223 621 222 624 222 628 c 0
 222 635 227 641 237 644 c 128
 247 647 258 649 271 649 c 0
 276 649 281 647 286 644 c 128
 291 641 295 636 298 631 c 0
 303 622 312 609 322 590 c 128
 332 571 342 552 352 532 c 128
 362 512 370 497 375 484 c 0
 376 480 377 477 378 474 c 128
 379 471 379 468 379 466 c 0
 379 460 376 457 371 457 c 0
EndSplineSet
EndChar

StartChar: hyphenminus.ss01
Encoding: 65536 -1 95
Width: 600
Flags: W
LayerCount: 2
Fore
SplineSet
198 170 m 0
 194 170 192 172 192 176 c 0
 192 187 194 199 197 211 c 128
 200 223 203 229 208 230 c 0
 240 235 272 240 304 244 c 128
 336 248 368 252 400 255 c 0
 402 255 403 255 405 254 c 128
 407 253 408 251 408 249 c 0
 408 236 406 225 403 214 c 128
 400 203 395 196 387 195 c 0
 357 190 326 186 295 182 c 128
 264 178 232 173 198 170 c 0
EndSplineSet
EndChar

StartChar: zero.ss01
Encoding: 65537 -1 96
Width: 600
Flags: W
LayerCount: 2
Fore
SplineSet
305 -14 m 0
 271 -14 241 -5 216 14 c 128
 191 33 171 57 154 88 c 128
 137 119 125 154 117 191 c 128
 109 228 105 265 105 302 c 0
 105 340 109 378 117 417 c 128
 125 456 137 491 154 523 c 128
 171 555 193 580 220 600 c 128
 247 620 278 630 315 630 c 0
 349 630 379 621 404 602 c 128
 429 583 449 559 466 528 c 128
 483 497 495 463 503 426 c 128
 511 389 515 352 515 316 c 0
 515 279 511 241 503 202 c 128
 495 163 483 128 466 95 c 128
 449 62 426 36 400 16 c 128
 374 -4 342 -14 305 -14 c 0
322 12 m 0
 349 12 370 25 386 52 c 128
 402 79 415 115 422 158 c 128
 429 201 433 248 433 298 c 0
 433 335 430 372 424 408 c 128
 418 444 410 477 398 506 c 128
 386 535 373 559 356 576 c 128
 339 593 319 602 296 602 c 0
 269 602 248 589 232 563 c 128
 216 537 205 503 198 460 c 128
 191 417 188 370 188 320 c 0
 188 283 190 246 196 209 c 128
 202 172 211 140 222 110 c 128
 233 80 246 56 263 38 c 128
 280 20 299 12 322 12 c 0
EndSplineSet
EndChar

StartChar: l.ss01
Encoding: 65538 -1 97
Width: 600
Flags: W
LayerCount: 2
Fore
SplineSet
219 -3 m 0
 216 -3 211 -3 206 -2 c 128
 201 -1 199 2 199 6 c 0
 199 11 201 16 206 18 c 128
 211 20 217 22 222 24 c 0
 232 27 242 32 251 36 c 128
 260 40 265 49 265 62 c 2
 265 566 l 2
 265 585 261 601 254 614 c 128
 247 627 236 636 219 639 c 0
 214 640 211 645 211 652 c 0
 211 659 213 663 218 664 c 0
 235 668 250 672 263 676 c 128
 276 680 287 685 298 690 c 128
 309 695 320 699 331 703 c 0
 334 704 336 705 337 705 c 256
 338 705 339 704 340 702 c 128
 341 700 342 699 342 698 c 0
 342 692 340 680 338 660 c 128
 336 640 335 607 335 562 c 2
 335 62 l 2
 335 49 340 40 349 36 c 128
 358 32 368 27 378 24 c 0
 383 22 389 20 394 18 c 128
 399 16 401 11 401 6 c 0
 401 2 399 -1 394 -2 c 128
 389 -3 384 -3 381 -3 c 0
 368 -3 358 -3 350 -2 c 128
 342 -1 335 0 328 1 c 128
 321 2 312 2 300 2 c 0
 289 2 279 2 272 1 c 128
 265 0 257 -1 250 -2 c 128
 243 -3 232 -3 219 -3 c 0
EndSplineSet
EndChar

StartChar: exclamdown
Encoding: 161 161 99
Width: 600
Flags: W
LayerCount: 2
Fore
SplineSet
298 275 m 0
 303 275 307 271 310 264 c 128
 313 257 315 247 316 236 c 0
 319 208 323 177 326 143 c 128
 329 109 333 75 336 42 c 128
 339 9 341 -22 343 -49 c 128
 345 -76 346 -98 346 -114 c 0
 346 -129 342 -141 334 -152 c 128
 326 -163 314 -169 301 -169 c 256
 288 -169 277 -163 268 -152 c 128
 259 -141 254 -129 254 -114 c 0
 254 -98 254 -76 256 -49 c 128
 258 -22 260 9 262 42 c 128
 264 75 268 108 271 142 c 128
 274 176 277 207 280 236 c 0
 281 251 283 260 286 266 c 128
 289 272 293 275 298 275 c 0
300 494 m 256
 317 494 330 488 342 476 c 128
 354 464 360 451 360 434 c 256
 360 417 354 404 342 392 c 128
 330 380 317 374 300 374 c 256
 283 374 270 380 258 392 c 128
 246 404 240 417 240 434 c 256
 240 451 246 464 258 476 c 128
 270 488 283 494 300 494 c 256
EndSplineSet
EndChar

StartChar: cent
Encoding: 162 162 100
Width: 600
Flags: W
LayerCount: 2
Fore
SplineSet
291 -13 m 256
 286 -13 282 -12 279 -9 c 128
 276 -6 274 -3 275 2 c 2
 283 78 l 1
 255 83 228 95 204 114 c 128
 180 133 161 157 146 186 c 128
 131 215 124 245 124 278 c 0
 124 316 133 351 150 384 c 128
 167 417 191 444 222 465 c 128
 253 486 288 499 327 502 c 1
 331 562 l 2
 332 567 334 571 338 574 c 128
 342 577 348 579 353 579 c 0
 357 579 360 578 363 574 c 128
 366 570 367 566 366 562 c 2
 362 503 l 1
 381 502 401 498 420 491 c 128
 439 484 456 472 469 455 c 0
 472 452 473 448 473 443 c 0
 473 436 469 429 460 421 c 128
 451 413 443 409 436 409 c 0
 425 409 418 412 415 419 c 0
 408 432 401 442 392 451 c 128
 383 460 371 466 358 469 c 1
 324 136 l 1
 327 135 330 135 332 135 c 128
 336 135 335 135 339 135 c 0
 360 135 382 137 403 142 c 128
 424 147 441 159 454 178 c 0
 456 181 459 183 463 183 c 0
 472 183 476 179 476 171 c 0
 476 170 476 170 476 169 c 128
 476 168 476 168 475 167 c 0
 456 136 434 114 409 100 c 128
 384 86 353 77 317 76 c 1
 310 2 l 2
 309 -3 308 -6 304 -9 c 128
 300 -12 296 -13 291 -13 c 256
289 143 m 1
 324 474 l 1
 322 474 l 2
 295 474 272 466 252 449 c 128
 232 432 218 412 207 387 c 128
 196 362 191 337 191 312 c 0
 191 269 200 233 218 204 c 128
 236 175 260 154 289 143 c 1
EndSplineSet
EndChar

StartChar: sterling
Encoding: 163 163 101
Width: 600
Flags: W
LayerCount: 2
Fore
SplineSet
101 297 m 2
 98 297 95 298 92 301 c 128
 89 304 87 306 87 309 c 0
 87 314 89 318 94 323 c 128
 99 328 104 330 111 331 c 2
 407 351 l 2
 410 351 413 350 416 347 c 128
 419 344 420 342 420 339 c 0
 420 336 417 331 410 326 c 128
 403 321 396 318 389 317 c 2
 101 297 l 2
375 -36 m 0
 344 -36 318 -30 295 -19 c 128
 272 -8 247 7 220 26 c 0
 213 31 205 36 196 40 c 128
 187 44 179 48 172 51 c 128
 165 54 159 55 156 55 c 0
 154 55 150 53 145 48 c 128
 140 43 134 37 128 30 c 128
 122 23 117 15 112 6 c 0
 101 -15 86 -25 69 -24 c 0
 62 -24 56 -21 52 -16 c 128
 48 -11 46 -4 46 6 c 0
 46 20 51 33 60 44 c 128
 69 55 80 66 95 74 c 128
 110 82 125 88 142 91 c 0
 145 92 148 94 149 96 c 128
 150 98 152 100 153 103 c 0
 160 116 166 134 170 160 c 128
 174 186 177 215 180 247 c 128
 183 279 185 310 186 341 c 0
 188 374 193 408 202 442 c 128
 211 476 225 506 242 534 c 128
 259 562 281 586 308 603 c 128
 335 620 368 629 406 629 c 0
 440 629 466 620 482 603 c 128
 498 586 506 568 506 549 c 0
 506 539 504 529 501 520 c 128
 498 511 493 504 486 499 c 128
 479 494 471 491 462 491 c 0
 457 491 454 492 452 494 c 128
 450 496 450 500 450 505 c 0
 450 508 450 512 450 516 c 128
 450 520 451 523 451 527 c 0
 450 546 444 563 433 578 c 128
 422 593 407 600 388 600 c 0
 364 600 344 590 329 570 c 128
 314 550 302 518 293 478 c 128
 284 438 278 388 273 328 c 0
 271 296 266 264 256 232 c 128
 246 200 235 174 223 150 c 128
 211 126 200 110 191 102 c 0
 190 101 190 100 190 97 c 128
 190 94 192 93 195 93 c 0
 222 93 247 89 268 82 c 128
 289 75 308 68 327 60 c 0
 344 53 361 47 378 41 c 128
 395 35 412 32 431 32 c 0
 450 32 465 37 475 46 c 128
 485 55 490 65 490 77 c 0
 490 86 489 95 486 104 c 128
 483 113 481 121 478 129 c 128
 475 137 474 143 474 148 c 256
 474 153 476 157 479 161 c 128
 482 165 486 167 491 167 c 0
 504 167 514 162 521 150 c 128
 528 138 531 125 531 111 c 0
 531 93 527 75 519 58 c 128
 511 41 500 25 486 11 c 128
 472 -3 455 -14 436 -23 c 128
 417 -32 396 -36 375 -36 c 0
EndSplineSet
EndChar

StartChar: currency
Encoding: 164 164 102
Width: 600
Flags: W
LayerCount: 2
Fore
SplineSet
117 57 m 0
 110 57 104 60 97 67 c 128
 90 74 87 80 87 87 c 0
 87 90 88 93 90 95 c 2
 147 152 l 1
 134 169 125 187 118 207 c 128
 111 227 108 248 108 270 c 256
 108 292 111 313 118 333 c 128
 125 353 134 371 147 387 c 1
 90 444 l 2
 88 446 87 448 87 451 c 0
 87 458 91 465 98 472 c 128
 105 479 111 482 118 482 c 0
 121 482 124 481 126 479 c 2
 181 424 l 1
 198 437 216 447 236 454 c 128
 256 461 277 465 300 465 c 256
 323 465 344 461 364 454 c 128
 384 447 402 437 418 424 c 1
 474 480 l 2
 476 482 479 483 482 483 c 0
 488 483 495 480 502 474 c 128
 509 468 512 460 512 453 c 0
 512 449 511 446 508 443 c 2
 453 388 l 1
 466 371 475 353 482 333 c 128
 489 313 492 292 492 270 c 256
 492 248 489 227 482 207 c 128
 475 187 466 169 453 152 c 1
 510 95 l 2
 512 93 513 91 513 88 c 0
 513 81 509 75 502 68 c 128
 495 61 489 57 482 57 c 0
 479 57 476 58 474 60 c 2
 418 116 l 1
 385 89 345 75 300 75 c 0
 277 75 256 79 236 86 c 128
 216 93 198 103 182 116 c 1
 125 60 l 2
 123 58 120 57 117 57 c 0
300 125 m 0
 327 125 351 132 372 145 c 128
 393 158 410 176 423 198 c 128
 436 220 442 244 442 270 c 0
 442 297 436 320 423 342 c 128
 410 364 393 382 372 395 c 128
 351 408 327 415 300 415 c 0
 274 415 250 408 228 395 c 128
 206 382 190 364 177 342 c 128
 164 320 158 297 158 270 c 0
 158 244 164 220 177 198 c 128
 190 176 206 158 228 145 c 128
 250 132 274 125 300 125 c 0
EndSplineSet
EndChar

StartChar: yen
Encoding: 165 165 103
Width: 600
Flags: W
LayerCount: 2
Fore
SplineSet
197 -5 m 0
 188 -5 181 -4 176 -2 c 128
 171 0 168 2 168 6 c 0
 168 11 171 14 176 17 c 128
 181 20 190 22 201 24 c 0
 226 29 246 38 259 52 c 128
 272 66 279 84 279 108 c 2
 280 197 l 1
 154 197 l 2
 151 197 147 198 144 201 c 128
 141 204 140 206 140 209 c 0
 140 214 142 219 147 224 c 128
 152 229 157 232 164 232 c 2
 280 232 l 1
 280 256 l 2
 280 261 280 265 280 269 c 128
 280 273 279 277 278 280 c 1
 154 280 l 2
 151 280 147 281 144 284 c 128
 141 287 140 289 140 292 c 0
 140 297 142 302 147 307 c 128
 152 312 157 315 164 315 c 2
 270 315 l 1
 137 522 l 2
 130 532 122 544 112 558 c 128
 102 572 91 586 80 598 c 128
 69 610 59 617 48 620 c 0
 37 623 30 627 24 630 c 128
 18 633 15 637 15 642 c 0
 15 646 18 648 23 650 c 128
 28 652 35 653 44 653 c 0
 59 653 77 653 97 652 c 128
 117 651 138 650 161 650 c 0
 176 650 190 650 204 651 c 128
 218 652 230 652 241 652 c 0
 250 652 257 652 262 650 c 128
 267 648 270 645 270 641 c 0
 270 636 267 633 262 630 c 128
 257 627 248 624 237 621 c 0
 232 619 226 615 219 610 c 128
 212 605 209 598 209 588 c 0
 209 584 210 580 211 575 c 128
 212 570 215 565 218 560 c 2
 311 395 l 2
 326 369 336 356 341 356 c 0
 345 356 349 359 354 366 c 128
 359 373 365 382 372 395 c 2
 372 395 372 394 381 408 c 128
 387 417 395 429 404 443 c 128
 413 457 422 472 431 488 c 128
 440 504 448 520 455 534 c 0
 460 544 462 555 462 568 c 256
 462 581 459 592 454 602 c 128
 449 612 441 617 432 620 c 0
 425 622 418 625 410 628 c 128
 402 631 399 635 399 640 c 0
 399 644 402 646 407 648 c 128
 412 650 419 651 428 651 c 0
 443 651 456 650 466 650 c 128
 476 650 488 650 503 650 c 0
 522 650 539 651 556 652 c 128
 573 653 588 653 599 653 c 0
 608 653 615 652 620 650 c 128
 625 648 628 646 628 642 c 0
 628 637 625 633 620 630 c 128
 615 627 606 625 595 622 c 0
 584 620 571 614 558 602 c 128
 545 590 533 577 522 563 c 128
 511 549 502 537 495 526 c 0
 482 505 468 485 455 464 c 128
 442 443 429 424 418 406 c 128
 407 388 398 373 392 362 c 128
 382 346 383 346 383 346 c 2
 379 340 375 334 372 329 c 128
 369 324 366 319 365 315 c 1
 487 315 l 2
 490 315 493 314 496 312 c 128
 499 310 500 307 500 304 c 0
 500 299 497 294 490 288 c 128
 483 282 476 280 469 280 c 2
 360 280 l 1
 360 232 l 1
 486 232 l 2
 489 232 492 232 495 230 c 128
 498 228 499 225 499 221 c 0
 499 216 496 212 489 206 c 128
 482 200 475 197 468 197 c 2
 360 197 l 1
 360 108 l 2
 360 85 366 66 380 52 c 128
 394 38 413 29 438 24 c 0
 449 22 458 20 463 17 c 128
 468 14 471 11 471 6 c 0
 471 2 468 0 463 -2 c 128
 458 -4 451 -5 442 -5 c 0
 424 -5 410 -5 398 -4 c 128
 386 -3 375 -2 364 -1 c 128
 353 0 340 0 325 0 c 0
 308 0 294 0 282 -1 c 128
 270 -2 257 -3 244 -4 c 128
 231 -5 215 -5 197 -5 c 0
EndSplineSet
EndChar

StartChar: brokenbar
Encoding: 166 166 104
Width: 600
Flags: W
LayerCount: 2
Fore
SplineSet
282 -290 m 0
 279 -290 277 -289 274 -286 c 128
 271 -283 270 -279 270 -276 c 2
 270 156 l 2
 270 159 272 161 276 164 c 128
 280 167 284 170 290 172 c 128
 296 174 301 176 306 177 c 128
 311 178 315 179 316 179 c 0
 319 179 323 177 326 172 c 128
 329 167 330 162 330 157 c 2
 330 -266 l 2
 330 -271 328 -275 324 -278 c 128
 320 -281 316 -284 310 -286 c 128
 304 -288 298 -288 293 -289 c 128
 288 -290 284 -290 282 -290 c 0
282 276 m 0
 279 276 277 279 274 284 c 128
 271 289 270 294 270 299 c 2
 270 674 l 2
 270 679 272 684 276 688 c 128
 280 692 284 696 290 698 c 128
 296 700 301 702 306 703 c 128
 311 704 315 705 316 705 c 0
 319 705 323 704 326 701 c 128
 329 698 330 695 330 692 c 2
 330 297 l 2
 330 294 328 292 324 290 c 128
 320 288 316 285 310 283 c 128
 304 281 298 279 293 278 c 128
 288 277 284 276 282 276 c 0
EndSplineSet
EndChar

StartChar: section
Encoding: 167 167 105
Width: 600
Flags: W
LayerCount: 2
Fore
SplineSet
224 -148 m 0
 207 -148 192 -144 180 -138 c 128
 168 -132 162 -125 162 -116 c 0
 162 -111 164 -104 168 -93 c 128
 172 -82 179 -73 190 -64 c 0
 193 -61 198 -62 202 -64 c 128
 206 -66 209 -68 212 -70 c 0
 221 -77 231 -84 244 -88 c 128
 257 -92 270 -94 281 -94 c 0
 298 -94 311 -86 320 -72 c 128
 329 -58 333 -38 333 -12 c 0
 333 5 328 22 316 40 c 128
 304 58 290 76 272 94 c 128
 254 112 236 131 219 149 c 0
 188 180 165 210 149 240 c 128
 133 270 125 300 125 329 c 0
 125 359 128 384 134 406 c 128
 140 428 147 447 157 464 c 128
 167 481 178 498 191 513 c 1
 196 532 205 552 218 572 c 128
 231 592 247 607 266 620 c 128
 285 633 307 640 330 640 c 0
 343 640 356 638 370 634 c 128
 384 630 395 626 400 621 c 0
 403 618 406 616 408 613 c 128
 410 610 412 607 412 603 c 0
 412 602 410 598 407 590 c 128
 404 582 400 574 394 567 c 128
 388 560 381 556 374 556 c 0
 369 556 365 558 361 562 c 0
 351 571 341 579 330 586 c 128
 319 593 308 596 299 596 c 0
 279 596 264 589 254 576 c 128
 244 563 238 549 238 533 c 0
 238 521 243 506 252 490 c 128
 261 474 273 457 289 439 c 128
 305 421 323 403 342 385 c 0
 370 360 392 336 407 312 c 128
 422 288 432 265 438 240 c 128
 444 215 447 188 447 159 c 0
 447 120 439 82 424 44 c 128
 409 6 388 -30 363 -62 c 128
 338 -94 309 -118 278 -137 c 0
 271 -142 262 -145 252 -146 c 128
 242 -147 233 -148 224 -148 c 0
387 51 m 0
 388 48 390 48 392 48 c 128
 394 48 396 49 397 51 c 0
 400 64 403 77 405 88 c 128
 407 99 408 111 408 124 c 0
 408 159 401 190 386 218 c 128
 371 246 348 274 318 305 c 0
 304 320 289 336 272 354 c 128
 255 372 238 390 224 408 c 128
 210 426 200 443 195 458 c 0
 194 461 193 462 190 462 c 128
 187 462 186 460 185 458 c 0
 182 445 179 433 177 422 c 128
 175 411 174 398 174 385 c 0
 174 350 181 319 196 292 c 128
 211 265 234 235 264 204 c 0
 278 190 293 174 310 156 c 128
 327 138 344 120 358 102 c 128
 372 84 382 66 387 51 c 0
EndSplineSet
EndChar

StartChar: dieresis
Encoding: 168 168 106
Width: 600
Flags: W
LayerCount: 2
Fore
SplineSet
389 508 m 260
 376 508 364 514 354 524 c 132
 344 534 339 545 339 558 c 260
 339 571 344 582 354 592 c 132
 364 602 376 608 389 608 c 260
 402 608 414 602 424 592 c 132
 434 582 439 571 439 558 c 260
 439 545 434 534 424 524 c 132
 414 514 402 508 389 508 c 260
212 508 m 260
 199 508 188 514 178 524 c 132
 168 534 162 545 162 558 c 260
 162 571 168 582 178 592 c 132
 188 602 199 608 212 608 c 260
 225 608 236 602 246 592 c 132
 256 582 262 571 262 558 c 260
 262 545 256 534 246 524 c 132
 236 514 225 508 212 508 c 260
EndSplineSet
EndChar

StartChar: copyright
Encoding: 169 169 107
Width: 600
Flags: W
LayerCount: 2
Fore
SplineSet
308 21 m 256
 271 21 235 29 202 45 c 128
 169 61 140 83 115 111 c 128
 90 139 70 171 56 208 c 128
 42 245 35 285 35 327 c 0
 35 370 42 409 56 446 c 128
 70 483 91 515 116 543 c 128
 141 571 169 593 202 609 c 128
 235 625 271 633 308 633 c 256
 345 633 381 625 414 609 c 128
 447 593 477 571 502 543 c 128
 527 515 546 483 560 446 c 128
 574 409 581 370 581 327 c 0
 581 285 574 245 560 208 c 128
 546 171 526 139 501 111 c 128
 476 83 447 61 414 45 c 128
 381 29 345 21 308 21 c 256
320 148 m 0
 290 148 262 156 238 173 c 128
 214 190 194 211 180 238 c 128
 166 265 159 295 159 326 c 0
 159 359 167 389 183 415 c 128
 199 441 221 461 248 476 c 128
 275 491 304 499 337 499 c 0
 350 499 364 497 378 494 c 128
 392 491 404 488 415 483 c 0
 420 482 422 480 424 479 c 128
 426 478 427 474 428 469 c 0
 430 459 432 448 432 436 c 128
 432 424 432 414 431 405 c 0
 431 402 430 398 428 395 c 128
 426 392 422 390 419 391 c 0
 416 391 414 393 412 396 c 128
 410 399 408 402 407 406 c 0
 404 413 401 420 398 426 c 128
 395 432 390 437 385 442 c 0
 378 448 371 452 362 456 c 128
 353 460 342 462 331 462 c 0
 300 462 277 450 260 424 c 128
 243 398 234 367 234 331 c 0
 234 306 238 282 245 260 c 128
 252 238 263 220 278 206 c 128
 293 192 311 185 334 185 c 0
 352 185 368 189 381 196 c 128
 394 203 405 215 412 233 c 0
 415 239 418 243 421 245 c 128
 424 247 427 248 429 248 c 0
 433 247 435 242 435 233 c 0
 435 226 434 217 431 208 c 128
 428 199 426 190 423 181 c 0
 420 176 419 172 418 172 c 128
 417 172 414 170 409 166 c 0
 398 161 386 156 370 153 c 128
 354 150 337 148 320 148 c 0
308 61 m 256
 340 61 370 68 398 82 c 128
 426 96 452 116 473 140 c 128
 494 164 511 192 523 224 c 128
 535 256 541 291 541 327 c 0
 541 362 535 396 523 428 c 128
 511 460 494 488 473 512 c 128
 452 536 427 556 399 570 c 128
 371 584 341 591 308 591 c 256
 276 591 246 584 218 570 c 128
 190 556 165 536 144 512 c 128
 123 488 106 460 94 428 c 128
 82 396 76 362 76 327 c 0
 76 291 82 256 94 224 c 128
 106 192 122 164 143 140 c 128
 164 116 190 96 218 82 c 128
 246 68 276 61 308 61 c 256
EndSplineSet
EndChar

StartChar: ordfeminine
Encoding: 170 170 108
Width: 600
Flags: W
LayerCount: 2
Fore
SplineSet
410 196 m 2
 413 196 417 195 420 193 c 128
 423 191 424 188 424 185 c 0
 424 184 424 184 424 184 c 128
 424 184 423 183 423 182 c 0
 420 175 415 170 410 166 c 128
 405 162 399 161 392 161 c 2
 194 161 l 2
 191 161 187 162 184 165 c 128
 181 168 180 170 180 173 c 0
 180 178 182 183 187 188 c 128
 192 193 197 196 204 196 c 2
 410 196 l 2
246 268 m 0
 237 268 229 271 220 278 c 128
 211 285 204 293 199 302 c 128
 194 311 191 320 191 327 c 0
 191 340 194 350 198 358 c 128
 202 366 212 374 228 380 c 2
 304 408 l 2
 313 411 318 414 320 416 c 128
 322 418 322 424 322 432 c 2
 322 455 l 2
 322 465 318 473 312 480 c 128
 306 487 297 491 285 491 c 0
 277 491 268 490 259 488 c 128
 250 486 244 483 242 478 c 0
 241 475 240 471 240 466 c 128
 240 459 240 459 240 453 c 0
 240 450 237 448 232 446 c 128
 227 444 221 441 214 439 c 128
 207 437 200 435 195 434 c 0
 193 433 191 434 190 436 c 128
 189 438 190 441 191 444 c 0
 194 451 197 458 200 464 c 128
 203 470 208 475 216 482 c 0
 223 488 231 494 242 500 c 128
 253 506 266 512 278 517 c 128
 290 522 302 524 313 524 c 0
 328 524 343 519 356 508 c 128
 369 497 376 485 375 471 c 2
 372 347 l 2
 372 338 374 330 376 321 c 128
 378 312 384 308 393 308 c 0
 398 308 401 308 403 310 c 128
 405 312 407 313 409 314 c 0
 410 315 412 316 413 317 c 128
 414 318 416 318 417 318 c 0
 420 318 422 316 424 313 c 128
 426 310 427 306 427 303 c 0
 427 302 426 301 424 298 c 128
 422 295 420 292 417 289 c 0
 412 284 407 280 400 275 c 128
 393 270 385 268 378 268 c 0
 361 268 349 273 342 282 c 128
 335 291 330 296 329 299 c 1
 325 299 l 1
 318 293 308 286 296 279 c 128
 284 272 267 268 246 268 c 0
274 308 m 0
 283 308 290 310 297 314 c 128
 304 318 309 323 314 327 c 0
 317 329 318 331 319 334 c 128
 320 337 320 343 321 350 c 2
 322 379 l 2
 322 385 320 389 318 390 c 128
 316 391 312 391 307 390 c 0
 282 383 265 375 256 366 c 128
 247 357 242 349 242 342 c 0
 242 331 246 322 253 316 c 128
 260 310 267 308 274 308 c 0
EndSplineSet
EndChar

StartChar: logicalnot
Encoding: 172 172 110
Width: 600
Flags: W
LayerCount: 2
Fore
SplineSet
502 43 m 0
 499 43 497 45 494 48 c 128
 491 51 490 54 490 57 c 2
 490 304 l 2
 490 316 485 322 476 322 c 2
 64 322 l 2
 61 322 57 323 54 326 c 128
 51 329 50 331 50 334 c 0
 50 337 51 342 52 350 c 128
 53 358 54 365 58 372 c 128
 62 379 67 382 74 382 c 2
 537 382 l 2
 540 382 543 381 546 378 c 128
 549 375 550 371 550 368 c 2
 550 67 l 2
 550 60 547 56 540 52 c 128
 533 48 526 45 518 44 c 128
 510 43 505 43 502 43 c 0
EndSplineSet
EndChar

StartChar: registered
Encoding: 174 174 112
Width: 600
Flags: W
LayerCount: 2
Fore
SplineSet
308 21 m 0
 270 21 235 29 202 45 c 128
 169 61 141 83 116 111 c 128
 91 139 71 171 57 208 c 128
 43 245 36 285 36 327 c 0
 36 370 44 409 58 446 c 128
 72 483 91 515 116 543 c 128
 141 571 170 593 203 609 c 128
 236 625 271 633 309 633 c 0
 346 633 381 625 414 609 c 128
 447 593 476 571 501 543 c 128
 526 515 546 483 560 446 c 128
 574 409 581 370 581 327 c 0
 581 285 574 245 560 208 c 128
 546 171 526 139 501 111 c 128
 476 83 447 61 414 45 c 128
 381 29 345 21 308 21 c 0
308 61 m 256
 340 61 370 68 398 82 c 128
 426 96 451 116 472 140 c 128
 493 164 510 192 522 224 c 128
 534 256 541 291 541 327 c 0
 541 362 534 396 522 428 c 128
 510 460 493 486 472 510 c 128
 451 534 426 552 398 566 c 128
 370 580 340 587 309 587 c 0
 277 587 246 580 218 566 c 128
 190 552 165 534 144 510 c 128
 123 486 106 460 94 428 c 128
 82 396 77 362 77 327 c 0
 77 291 82 256 94 224 c 128
 106 192 123 164 144 140 c 128
 165 116 190 96 218 82 c 128
 246 68 276 61 308 61 c 256
428 172 m 0
 417 172 406 176 395 185 c 128
 384 194 373 204 362 218 c 128
 351 232 342 246 333 262 c 128
 324 278 317 292 312 305 c 0
 311 309 308 312 304 315 c 128
 300 318 294 319 286 319 c 0
 283 319 281 318 278 316 c 128
 275 314 274 312 274 309 c 2
 274 230 l 2
 274 219 278 212 284 208 c 128
 290 204 297 201 306 198 c 0
 310 197 313 194 316 192 c 128
 319 190 321 187 321 183 c 0
 321 180 320 176 317 174 c 128
 314 172 312 171 309 171 c 0
 296 171 285 172 276 173 c 128
 267 174 256 175 245 175 c 0
 237 175 230 175 224 174 c 128
 216 173 216 173 208 172 c 128
 202 171 195 171 186 171 c 0
 183 171 181 172 178 175 c 128
 175 178 173 180 173 183 c 0
 173 187 175 190 178 192 c 128
 181 194 184 197 188 198 c 0
 196 201 202 204 206 208 c 128
 210 212 212 219 212 230 c 2
 212 430 l 2
 212 442 211 451 210 456 c 128
 209 461 207 464 204 465 c 128
 201 466 196 468 190 470 c 0
 180 473 175 478 175 485 c 0
 175 493 180 496 190 495 c 0
 200 494 209 493 217 492 c 128
 225 491 234 490 243 490 c 0
 256 490 268 491 280 492 c 128
 292 493 306 494 321 495 c 0
 348 496 372 490 391 476 c 128
 410 462 420 443 420 416 c 0
 420 395 414 377 403 364 c 128
 392 351 379 342 365 336 c 0
 362 335 361 333 362 330 c 128
 363 327 363 325 364 322 c 0
 372 301 382 282 394 264 c 128
 406 246 418 233 430 222 c 128
 442 211 453 206 462 206 c 0
 465 206 465 206 469 206 c 128
 472 206 473 204 473 201 c 0
 473 192 469 185 460 180 c 128
 451 175 440 172 428 172 c 0
296 349 m 0
 313 349 328 354 340 366 c 128
 352 378 358 393 358 410 c 0
 358 427 352 440 342 450 c 128
 332 460 319 464 304 464 c 0
 292 464 284 462 280 457 c 128
 276 452 273 446 273 437 c 2
 273 368 l 2
 273 360 275 354 280 352 c 128
 285 350 290 349 296 349 c 0
EndSplineSet
EndChar

StartChar: macron
Encoding: 175 175 113
Width: 600
Flags: W
LayerCount: 2
Fore
SplineSet
194 500 m 6
 191 500 187 501 184 504 c 132
 181 507 180 509 180 512 c 4
 180 515 181 520 182 527 c 132
 183 534 186 540 190 546 c 132
 194 552 198 555 204 555 c 6
 407 555 l 6
 410 555 413 554 416 552 c 132
 419 550 420 546 420 543 c 4
 420 532 417 523 412 514 c 132
 407 505 400 500 389 500 c 6
 194 500 l 6
EndSplineSet
EndChar

StartChar: degree
Encoding: 176 176 114
Width: 600
Flags: W
LayerCount: 2
Fore
SplineSet
300 402 m 0
 279 402 260 408 242 420 c 128
 224 432 208 447 197 466 c 128
 186 485 180 505 180 526 c 256
 180 547 186 567 197 585 c 128
 208 603 224 617 242 628 c 128
 260 639 279 645 300 645 c 0
 321 645 341 640 359 629 c 128
 377 618 392 604 403 586 c 128
 414 568 420 549 420 528 c 256
 420 507 414 486 403 467 c 128
 392 448 377 432 359 420 c 128
 341 408 321 402 300 402 c 0
300 444 m 0
 321 444 339 452 354 468 c 128
 369 484 377 502 377 523 c 0
 377 545 369 564 354 579 c 128
 339 594 321 602 300 602 c 0
 279 602 261 594 246 579 c 128
 231 564 223 545 223 523 c 0
 223 502 231 484 246 468 c 128
 261 452 279 444 300 444 c 0
EndSplineSet
EndChar

StartChar: plusminus
Encoding: 177 177 115
Width: 600
Flags: W
LayerCount: 2
Fore
SplineSet
287 121 m 0
 284 121 282 123 279 126 c 128
 276 129 275 132 275 135 c 2
 275 346 l 2
 275 349 274 351 271 351 c 2
 69 351 l 2
 66 351 63 352 60 355 c 128
 57 358 55 360 55 363 c 0
 55 368 56 376 60 386 c 128
 64 396 70 401 79 401 c 2
 268 401 l 2
 271 401 273 402 274 403 c 128
 275 404 275 406 275 409 c 2
 275 580 l 2
 275 587 278 592 283 596 c 128
 288 600 294 604 300 607 c 128
 306 610 309 611 311 611 c 0
 314 611 317 610 320 607 c 128
 323 604 325 601 325 598 c 2
 325 407 l 2
 325 404 325 402 326 402 c 128
 327 402 328 401 329 401 c 2
 532 401 l 2
 535 401 539 400 542 398 c 128
 545 396 546 393 546 390 c 0
 546 383 543 376 536 366 c 128
 529 356 522 351 514 351 c 2
 329 351 l 2
 326 351 325 350 325 347 c 2
 325 145 l 2
 325 136 320 130 310 126 c 128
 300 122 292 121 287 121 c 0
69 38 m 2
 66 38 63 39 60 42 c 128
 57 45 55 47 55 50 c 0
 55 53 56 58 58 64 c 128
 60 70 62 75 65 80 c 128
 68 85 73 88 79 88 c 2
 532 88 l 2
 535 88 539 87 542 85 c 128
 545 83 546 80 546 77 c 0
 546 70 543 62 536 52 c 128
 529 42 522 38 514 38 c 2
 69 38 l 2
EndSplineSet
EndChar

StartChar: uni00B2
Encoding: 178 178 116
Width: 600
Flags: W
LayerCount: 2
Fore
SplineSet
389 437 m 4
 375 437 362 437 349 438 c 132
 336 439 325 439 314 440 c 132
 303 441 291 441 280 441 c 4
 270 441 259 440 246 440 c 132
 233 440 221 440 210 440 c 132
 199 440 190 439 183 439 c 4
 180 439 178 440 175 442 c 132
 172 444 171 447 171 449 c 260
 171 451 174 454 179 459 c 6
 218 494 l 6
 232 507 248 522 265 541 c 132
 282 560 297 580 310 601 c 132
 323 622 329 642 329 660 c 4
 329 681 324 698 314 709 c 132
 304 720 290 726 273 726 c 4
 256 726 241 723 230 717 c 132
 219 711 207 700 193 685 c 4
 190 681 187 679 184 679 c 4
 182 679 180 681 179 684 c 132
 178 687 177 690 177 693 c 4
 177 699 181 709 190 722 c 132
 199 735 212 748 230 760 c 132
 248 772 269 777 294 777 c 4
 325 777 347 768 362 750 c 132
 377 732 385 709 385 684 c 4
 385 671 381 656 374 640 c 132
 367 624 357 609 345 594 c 4
 336 583 328 573 319 563 c 132
 310 553 302 544 294 535 c 132
 286 526 278 519 271 512 c 132
 264 505 259 500 254 497 c 4
 252 495 253 494 256 493 c 132
 259 492 262 492 264 492 c 6
 337 492 l 6
 352 492 366 497 376 506 c 132
 386 515 396 527 407 542 c 4
 410 545 412 548 414 550 c 132
 416 552 418 553 422 553 c 4
 425 553 426 552 426 550 c 132
 426 547 426 547 426 545 c 260
 426 544 423 533 416 514 c 132
 409 495 403 473 398 450 c 4
 397 445 396 442 394 440 c 132
 392 438 390 437 389 437 c 4
EndSplineSet
EndChar

StartChar: uni00B3
Encoding: 179 179 117
Width: 600
Flags: W
LayerCount: 2
Fore
SplineSet
255 434 m 4
 240 434 226 437 211 444 c 132
 196 451 189 461 189 475 c 4
 189 482 190 489 194 494 c 132
 198 499 202 501 207 501 c 4
 210 501 214 500 217 498 c 132
 220 496 222 495 223 494 c 4
 234 485 244 478 253 473 c 132
 262 468 273 465 286 465 c 4
 303 465 316 472 326 486 c 132
 336 500 340 517 340 538 c 4
 340 551 334 564 322 578 c 132
 310 592 295 599 277 599 c 4
 272 599 265 598 258 596 c 132
 251 594 244 592 238 592 c 4
 235 592 233 593 230 595 c 132
 227 597 225 599 225 601 c 4
 225 606 229 611 238 616 c 132
 247 621 258 624 268 628 c 132
 278 632 285 635 288 636 c 4
 301 642 312 649 320 658 c 132
 328 667 331 678 331 693 c 4
 331 706 326 716 316 724 c 132
 306 732 295 737 282 737 c 4
 267 737 254 734 242 728 c 132
 230 722 220 711 211 698 c 4
 210 697 210 696 208 694 c 132
 206 692 204 691 201 691 c 4
 199 691 196 693 194 697 c 132
 192 701 191 704 191 706 c 4
 191 714 196 723 206 734 c 132
 216 745 230 755 246 764 c 132
 262 773 279 777 296 777 c 4
 317 777 337 771 355 758 c 132
 373 745 382 727 382 706 c 4
 382 687 376 673 366 664 c 132
 356 655 343 646 326 637 c 4
 324 636 323 635 323 634 c 132
 323 633 324 633 326 632 c 4
 344 626 360 618 375 606 c 132
 390 594 397 579 397 560 c 4
 397 535 390 513 377 494 c 132
 364 475 346 461 324 450 c 132
 302 439 280 434 255 434 c 4
EndSplineSet
EndChar

StartChar: acute
Encoding: 180 180 118
Width: 600
Flags: W
LayerCount: 2
Fore
SplineSet
230 457 m 4
 225 457 222 460 222 466 c 4
 222 468 222 471 223 474 c 132
 224 477 225 480 226 484 c 4
 231 497 238 512 248 532 c 132
 258 552 270 571 280 590 c 132
 290 609 298 622 303 631 c 4
 306 636 311 641 316 644 c 132
 321 647 325 649 330 649 c 4
 343 649 354 647 364 644 c 132
 374 641 379 635 379 628 c 4
 379 624 378 621 376 618 c 132
 374 615 372 612 369 607 c 4
 361 596 350 581 336 564 c 132
 322 547 309 531 295 515 c 132
 281 499 270 487 261 478 c 4
 247 464 237 457 230 457 c 4
EndSplineSet
EndChar

StartChar: paragraph
Encoding: 182 182 120
Width: 600
Flags: W
LayerCount: 2
Fore
SplineSet
284 -289 m 0
 263 -289 243 -285 224 -276 c 128
 205 -267 190 -254 178 -238 c 128
 166 -222 160 -202 160 -179 c 256
 160 -156 165 -136 176 -118 c 128
 187 -100 201 -86 218 -76 c 128
 235 -66 252 -61 270 -61 c 0
 293 -61 309 -66 320 -76 c 128
 331 -86 336 -99 336 -114 c 0
 336 -129 332 -141 323 -150 c 128
 314 -159 304 -163 293 -163 c 0
 286 -163 281 -162 276 -159 c 128
 271 -156 267 -153 264 -150 c 0
 258 -145 258 -145 252 -140 c 128
 248 -137 243 -135 238 -135 c 0
 230 -135 222 -140 214 -148 c 128
 206 -156 202 -169 202 -186 c 0
 202 -205 210 -221 228 -234 c 128
 246 -247 266 -254 288 -254 c 0
 305 -254 321 -250 336 -241 c 128
 351 -232 363 -217 373 -196 c 128
 383 -175 388 -147 388 -112 c 2
 388 94 l 2
 388 99 388 104 386 110 c 128
 384 116 380 119 375 119 c 0
 330 119 288 124 248 135 c 128
 208 146 174 162 144 184 c 128
 114 206 90 233 73 266 c 128
 56 299 47 338 47 383 c 0
 47 446 62 497 91 536 c 128
 120 575 162 603 216 621 c 128
 270 639 334 648 409 648 c 0
 428 648 446 648 466 647 c 128
 486 646 504 645 519 644 c 128
 534 643 544 643 549 642 c 0
 554 641 558 639 560 635 c 128
 562 631 564 627 564 622 c 256
 564 617 563 612 560 604 c 128
 557 596 554 592 550 592 c 0
 547 592 535 595 514 600 c 128
 493 605 470 608 445 608 c 0
 440 608 436 606 432 602 c 128
 428 598 427 595 427 590 c 2
 427 -112 l 2
 427 -154 420 -188 406 -214 c 128
 392 -240 374 -259 352 -271 c 128
 330 -283 307 -289 284 -289 c 0
EndSplineSet
EndChar

StartChar: cedilla
Encoding: 184 184 122
Width: 600
Flags: W
LayerCount: 2
Fore
SplineSet
253 -274 m 4
 242 -274 235 -271 230 -265 c 132
 225 -259 223 -248 223 -233 c 4
 223 -227 224 -222 226 -219 c 132
 228 -216 232 -214 236 -214 c 4
 241 -214 248 -216 255 -220 c 132
 262 -224 274 -225 289 -225 c 4
 302 -225 312 -221 318 -212 c 132
 324 -203 328 -193 328 -180 c 4
 328 -161 322 -146 310 -137 c 132
 298 -128 285 -123 269 -123 c 4
 262 -123 258 -124 254 -126 c 132
 250 -128 246 -129 243 -129 c 260
 240 -129 236 -128 232 -125 c 132
 228 -122 225 -119 225 -114 c 4
 225 -111 227 -108 230 -103 c 6
 318 8 l 5
 349 8 l 5
 311 -42 l 6
 308 -47 306 -50 306 -52 c 4
 306 -56 310 -60 317 -63 c 4
 333 -70 348 -80 360 -94 c 132
 372 -108 378 -122 378 -139 c 4
 378 -159 373 -177 364 -194 c 132
 355 -211 343 -224 329 -236 c 132
 315 -248 302 -257 288 -264 c 132
 274 -271 262 -274 253 -274 c 4
EndSplineSet
EndChar

StartChar: uni00B9
Encoding: 185 185 123
Width: 600
Flags: W
LayerCount: 2
Fore
SplineSet
218 440 m 4
 215 440 212 441 209 444 c 132
 206 447 205 451 205 455 c 4
 205 458 206 462 208 466 c 132
 210 470 214 471 218 471 c 4
 227 472 236 473 245 474 c 132
 254 475 261 479 267 485 c 132
 273 491 276 501 276 514 c 6
 276 664 l 6
 276 677 271 688 260 696 c 132
 249 704 236 708 223 710 c 4
 219 711 216 712 213 715 c 132
 210 718 209 720 209 723 c 4
 209 731 212 736 219 737 c 4
 244 740 265 746 282 756 c 132
 299 766 311 774 316 780 c 4
 317 781 319 782 321 783 c 132
 323 784 324 784 325 784 c 4
 332 784 335 779 334 770 c 4
 333 763 332 754 330 742 c 132
 328 730 328 716 328 700 c 6
 328 514 l 6
 328 497 331 486 338 482 c 132
 345 478 360 474 382 471 c 4
 386 470 389 468 391 465 c 132
 393 462 394 458 394 455 c 260
 394 452 393 448 391 445 c 132
 389 442 386 440 382 440 c 4
 363 440 350 440 342 441 c 132
 334 442 329 442 324 442 c 132
 319 442 311 443 300 443 c 260
 289 443 281 442 276 442 c 132
 271 442 264 442 256 441 c 132
 248 440 236 440 218 440 c 4
EndSplineSet
EndChar

StartChar: ordmasculine
Encoding: 186 186 124
Width: 600
Flags: W
LayerCount: 2
Fore
SplineSet
416 196 m 2
 419 196 423 195 426 193 c 128
 429 191 430 188 430 185 c 0
 430 184 430 184 430 184 c 128
 430 184 429 183 429 182 c 0
 426 175 421 170 416 166 c 128
 411 162 405 161 398 161 c 2
 184 161 l 2
 181 161 177 162 174 165 c 128
 171 168 170 170 170 173 c 0
 170 178 172 183 177 188 c 128
 182 193 187 196 194 196 c 2
 416 196 l 2
293 268 m 0
 271 268 251 273 232 283 c 128
 213 293 198 307 187 325 c 128
 176 343 170 364 170 388 c 0
 170 413 176 435 188 456 c 128
 200 477 218 494 238 506 c 128
 258 518 280 524 305 524 c 0
 327 524 347 519 366 508 c 128
 385 497 400 482 412 464 c 128
 424 446 429 426 429 404 c 0
 429 381 424 359 414 338 c 128
 404 317 388 301 368 288 c 128
 348 275 323 268 293 268 c 0
305 297 m 256
 320 297 331 301 340 310 c 128
 349 319 356 330 360 344 c 128
 364 358 366 373 366 389 c 0
 366 406 364 423 358 439 c 128
 352 455 344 468 333 478 c 128
 322 488 309 493 294 493 c 0
 279 493 267 489 258 480 c 128
 249 471 243 460 239 446 c 128
 235 432 233 417 233 402 c 0
 233 384 236 367 242 351 c 128
 248 335 256 322 267 312 c 128
 278 302 290 297 305 297 c 256
EndSplineSet
EndChar

StartChar: onequarter
Encoding: 188 188 126
Width: 600
Flags: W
LayerCount: 2
Fore
SplineSet
480 -8 m 0
 474 -8 471 -5 470 0 c 2
 470 89 l 2
 470 91 468 93 466 94 c 128
 464 95 463 95 462 95 c 0
 439 95 418 95 399 94 c 128
 380 93 356 92 329 91 c 0
 328 91 326 92 324 93 c 128
 322 94 322 96 322 97 c 256
 322 98 322 100 322 100 c 128
 323 100 l 1
 344 128 364 156 386 184 c 128
 408 212 429 240 450 267 c 0
 456 275 464 285 474 297 c 128
 484 309 495 321 506 333 c 0
 509 336 513 339 516 342 c 128
 519 345 522 346 525 346 c 0
 526 346 528 345 528 343 c 128
 528 341 528 339 528 337 c 2
 528 139 l 2
 528 134 530 132 535 132 c 2
 553 132 l 2
 561 132 562 132 568 132 c 128
 572 132 577 132 583 133 c 0
 587 133 589 131 589 126 c 0
 589 121 587 115 584 108 c 128
 581 101 578 97 575 97 c 2
 539 97 l 2
 535 97 532 97 530 96 c 128
 528 95 528 93 528 90 c 2
 528 22 l 2
 528 17 524 13 517 8 c 128
 510 3 502 -1 494 -4 c 128
 486 -7 482 -8 480 -8 c 0
383 133 m 2
 464 133 l 2
 465 133 467 133 468 134 c 128
 469 135 470 137 470 138 c 2
 470 243 l 2
 470 244 470 246 469 246 c 128
 468 246 467 245 466 244 c 0
 456 232 446 220 436 207 c 128
 426 194 417 182 408 171 c 128
 399 160 390 149 382 138 c 0
 381 135 381 133 383 133 c 2
498 646 m 2
 503 654 508 660 515 662 c 128
 522 664 529 665 538 665 c 0
 542 665 545 663 548 660 c 128
 551 657 552 654 552 650 c 0
 552 648 552 647 551 646 c 2
 158 -32 l 2
 154 -39 149 -44 142 -46 c 128
 135 -48 128 -48 121 -48 c 0
 117 -48 114 -47 110 -44 c 128
 106 -41 104 -38 104 -35 c 0
 104 -34 104 -33 105 -32 c 2
 498 646 l 2
44 278 m 0
 41 278 38 279 36 282 c 128
 34 285 32 288 32 291 c 0
 32 295 34 299 36 302 c 128
 38 305 41 306 44 307 c 0
 53 308 60 308 67 310 c 128
 74 312 79 315 83 320 c 128
 87 325 89 333 89 344 c 2
 89 505 l 2
 89 519 85 530 76 537 c 128
 67 544 57 549 46 551 c 0
 42 552 38 553 36 555 c 128
 34 557 33 560 33 563 c 0
 33 572 37 577 44 578 c 0
 67 581 86 586 102 594 c 128
 118 602 130 610 139 617 c 0
 140 618 141 619 143 620 c 128
 145 621 146 621 147 621 c 0
 154 621 156 617 155 609 c 0
 155 603 154 595 153 585 c 128
 152 575 151 563 151 548 c 2
 151 345 l 2
 151 330 153 322 158 318 c 128
 163 314 174 310 193 307 c 0
 197 306 200 304 202 301 c 128
 204 298 204 295 204 292 c 256
 204 289 204 285 202 282 c 128
 200 279 197 278 194 278 c 0
 180 278 169 278 161 279 c 128
 153 280 146 280 140 280 c 128
 134 280 127 281 119 281 c 256
 110 281 102 280 96 280 c 128
 90 280 84 280 76 279 c 128
 68 278 57 278 44 278 c 0
EndSplineSet
EndChar

StartChar: onehalf
Encoding: 189 189 127
Width: 600
Flags: W
LayerCount: 2
Fore
SplineSet
547 -17 m 0
 538 -17 527 -17 516 -16 c 128
 500 -15 500 -15 484 -14 c 128
 473 -13 461 -13 450 -13 c 0
 441 -13 430 -14 418 -14 c 128
 406 -14 396 -14 386 -14 c 128
 376 -14 369 -15 365 -15 c 0
 363 -15 360 -14 358 -12 c 128
 356 -10 355 -8 355 -6 c 0
 355 -3 357 0 361 4 c 2
 393 41 l 2
 406 57 420 74 434 93 c 128
 448 112 460 132 470 152 c 128
 480 172 485 191 485 210 c 256
 485 229 480 244 472 254 c 128
 464 264 453 269 440 269 c 256
 427 269 416 266 407 259 c 128
 398 252 389 242 379 229 c 0
 376 224 373 221 369 221 c 0
 367 221 365 223 364 226 c 128
 363 229 362 232 362 236 c 0
 362 243 366 254 374 268 c 128
 382 282 394 295 409 306 c 128
 424 317 443 323 464 323 c 0
 490 323 510 314 524 296 c 128
 538 278 545 256 545 231 c 0
 545 218 542 203 536 188 c 128
 530 173 521 158 511 143 c 0
 505 134 498 124 490 114 c 128
 482 104 474 95 466 86 c 128
 458 77 450 69 444 62 c 128
 438 55 433 51 430 48 c 0
 429 47 429 46 432 45 c 128
 435 44 437 44 439 44 c 2
 506 44 l 2
 518 44 528 49 536 58 c 128
 544 67 553 78 561 91 c 0
 563 94 565 97 566 99 c 128
 567 101 570 102 573 102 c 256
 576 102 578 100 578 98 c 128
 578 96 579 94 578 92 c 0
 576 84 572 70 567 50 c 128
 562 30 558 13 555 -3 c 0
 554 -8 553 -12 552 -14 c 128
 551 -16 549 -17 547 -17 c 0
453 646 m 2
 458 654 462 660 468 662 c 128
 474 664 481 665 489 665 c 0
 492 665 495 663 498 660 c 128
 501 657 502 654 502 650 c 0
 502 648 502 647 501 646 c 2
 144 -32 l 2
 140 -39 135 -44 129 -46 c 128
 123 -48 117 -48 110 -48 c 0
 106 -48 102 -47 99 -44 c 128
 96 -41 94 -38 94 -35 c 0
 94 -34 94 -33 95 -32 c 2
 453 646 l 2
40 278 m 0
 37 278 34 279 32 282 c 128
 30 285 29 288 29 291 c 0
 29 295 30 299 32 302 c 128
 34 305 37 306 40 307 c 0
 48 308 55 308 61 310 c 128
 67 312 72 315 76 320 c 128
 80 325 81 333 81 344 c 2
 81 505 l 2
 81 519 76 530 68 537 c 128
 60 544 51 549 42 551 c 0
 39 552 36 553 34 555 c 128
 32 557 30 560 30 563 c 0
 30 572 33 577 40 578 c 0
 61 581 79 586 93 594 c 128
 107 602 118 610 126 617 c 0
 127 618 128 619 130 620 c 128
 132 621 133 621 134 621 c 0
 140 621 142 617 141 609 c 0
 141 603 140 595 139 585 c 128
 138 575 137 563 137 548 c 2
 137 345 l 2
 137 330 140 322 144 318 c 128
 148 314 158 310 175 307 c 0
 178 306 181 304 183 301 c 128
 185 298 186 295 186 292 c 256
 186 289 186 285 184 282 c 128
 182 279 179 278 176 278 c 0
 163 278 153 278 146 279 c 128
 139 280 132 280 127 280 c 128
 122 280 115 281 108 281 c 256
 100 281 94 280 88 280 c 128
 82 280 75 280 68 279 c 128
 61 278 52 278 40 278 c 0
EndSplineSet
EndChar

StartChar: threequarters
Encoding: 190 190 128
Width: 600
Flags: W
LayerCount: 2
Fore
SplineSet
479 -8 m 0
 473 -8 470 -5 469 0 c 2
 469 89 l 2
 469 91 468 93 466 94 c 128
 464 95 462 95 461 95 c 0
 438 95 416 95 397 94 c 128
 378 93 354 92 326 91 c 0
 325 91 323 92 321 93 c 128
 319 94 318 96 318 97 c 256
 318 98 318 100 318 100 c 128
 319 100 l 1
 340 128 362 156 384 184 c 128
 406 212 428 240 449 267 c 0
 455 275 463 285 473 297 c 128
 483 309 494 321 506 333 c 0
 509 336 513 339 516 342 c 128
 519 345 522 346 524 346 c 0
 525 346 526 345 527 343 c 128
 528 341 528 339 528 337 c 2
 528 139 l 2
 528 134 530 132 535 132 c 2
 553 132 l 2
 561 132 561 132 568 132 c 128
 573 132 578 132 584 133 c 0
 588 133 590 131 590 126 c 0
 590 121 588 115 585 108 c 128
 582 101 579 97 576 97 c 2
 539 97 l 2
 534 97 531 97 530 96 c 128
 529 95 528 93 528 90 c 2
 528 22 l 2
 528 17 524 13 517 8 c 128
 510 3 502 -1 494 -4 c 128
 486 -7 481 -8 479 -8 c 0
381 133 m 2
 463 133 l 2
 464 133 466 133 467 134 c 128
 468 135 469 137 469 138 c 2
 469 243 l 2
 469 244 469 246 468 246 c 128
 467 246 466 245 465 244 c 0
 455 232 444 220 434 207 c 128
 424 194 415 182 406 171 c 128
 397 160 388 149 380 138 c 0
 379 135 379 133 381 133 c 2
496 646 m 2
 501 654 506 660 513 662 c 128
 520 664 528 665 537 665 c 0
 541 665 544 663 547 660 c 128
 550 657 551 654 551 650 c 0
 551 647 551 647 551 646 c 2
 151 -32 l 2
 146 -39 140 -44 134 -46 c 128
 128 -48 121 -48 114 -48 c 0
 109 -48 106 -47 102 -44 c 128
 98 -41 96 -38 96 -35 c 0
 96 -34 96 -33 97 -32 c 2
 496 646 l 2
90 274 m 0
 76 274 62 278 49 284 c 128
 36 290 29 299 29 312 c 0
 29 319 31 326 34 332 c 128
 37 338 41 341 46 341 c 0
 49 341 52 340 54 338 c 128
 56 336 59 335 60 333 c 0
 69 325 77 318 85 312 c 128
 93 306 103 304 114 304 c 0
 129 304 141 310 150 324 c 128
 159 338 164 356 164 378 c 0
 164 392 158 406 148 420 c 128
 138 434 125 440 109 440 c 0
 101 440 94 439 88 436 c 128
 82 433 76 431 72 431 c 0
 69 431 66 432 63 434 c 128
 60 436 59 437 59 440 c 0
 59 445 63 450 70 455 c 128
 77 460 84 464 92 467 c 128
 100 470 107 473 110 475 c 0
 126 483 138 492 145 501 c 128
 152 510 156 522 156 536 c 0
 156 547 152 556 143 564 c 128
 134 572 124 575 113 575 c 0
 100 575 88 572 78 566 c 128
 68 560 59 552 50 541 c 0
 48 538 48 538 46 535 c 128
 45 533 43 532 41 532 c 0
 38 532 36 534 34 538 c 128
 32 542 31 545 31 547 c 0
 31 554 35 563 44 574 c 128
 53 585 65 594 80 603 c 128
 95 612 112 616 131 616 c 0
 152 616 171 610 188 597 c 128
 205 584 214 568 214 547 c 0
 214 530 209 516 200 506 c 128
 191 496 177 487 159 479 c 0
 158 478 157 477 157 476 c 128
 157 475 158 475 159 474 c 0
 178 470 194 462 208 450 c 128
 222 438 230 420 230 399 c 0
 230 374 224 353 210 334 c 128
 196 315 179 301 158 290 c 128
 137 279 114 274 90 274 c 0
EndSplineSet
EndChar

StartChar: questiondown
Encoding: 191 191 129
Width: 600
Flags: W
LayerCount: 2
Fore
SplineSet
353 299 m 0
 356 299 360 296 365 290 c 128
 370 284 373 278 375 270 c 0
 378 259 382 248 386 236 c 128
 390 224 391 206 391 183 c 0
 391 166 382 152 364 138 c 128
 346 124 321 109 290 93 c 0
 276 86 262 77 249 64 c 128
 236 51 229 37 229 22 c 0
 229 -11 237 -38 254 -60 c 128
 271 -82 296 -92 330 -93 c 0
 335 -93 338 -92 342 -92 c 128
 346 -92 350 -92 353 -91 c 256
 356 -90 360 -90 364 -90 c 128
 368 -90 372 -89 377 -89 c 0
 384 -89 392 -92 398 -98 c 128
 404 -104 409 -110 413 -118 c 128
 417 -126 419 -136 419 -145 c 256
 419 -154 415 -163 406 -170 c 128
 397 -177 388 -181 379 -181 c 0
 362 -181 344 -176 325 -168 c 128
 306 -160 288 -148 271 -131 c 0
 252 -112 236 -92 222 -68 c 128
 208 -44 198 -21 190 2 c 128
 182 25 178 45 178 62 c 0
 178 87 183 105 192 118 c 128
 201 131 210 141 220 146 c 0
 235 154 246 161 255 166 c 128
 264 171 272 175 279 180 c 128
 286 185 295 190 306 197 c 0
 320 206 329 218 332 232 c 128
 335 246 337 260 338 276 c 0
 338 281 339 287 342 292 c 128
 345 297 348 299 353 299 c 0
339 494 m 256
 356 494 370 488 382 476 c 128
 394 464 399 451 399 434 c 256
 399 417 394 404 382 392 c 128
 370 380 356 374 339 374 c 256
 322 374 308 380 296 392 c 128
 284 404 279 417 279 434 c 256
 279 451 284 464 296 476 c 128
 308 488 322 494 339 494 c 256
EndSplineSet
EndChar

StartChar: AE
Encoding: 198 198 130
Width: 600
Flags: W
LayerCount: 2
Fore
SplineSet
16 -5 m 0
 11 -5 6 -4 2 -2 c 128
 -2 0 -3 3 -3 8 c 0
 -3 13 -1 17 2 20 c 128
 5 23 10 27 17 30 c 0
 29 35 41 46 53 62 c 128
 65 78 75 97 84 118 c 2
 274 595 l 2
 276 599 276 603 274 606 c 128
 272 609 269 610 265 611 c 2
 218 624 l 2
 215 625 212 627 211 630 c 128
 210 633 209 636 209 639 c 0
 209 648 212 652 218 652 c 0
 233 652 250 651 270 650 c 128
 290 649 310 649 331 649 c 0
 350 649 370 650 392 650 c 128
 414 650 434 650 454 651 c 128
 474 652 492 652 507 652 c 128
 522 652 533 653 540 653 c 0
 543 653 545 652 548 650 c 128
 551 648 553 646 554 641 c 0
 557 620 558 600 560 582 c 128
 562 564 563 546 563 529 c 0
 563 525 562 522 560 520 c 128
 558 518 556 516 554 516 c 256
 552 516 550 517 548 519 c 128
 546 521 545 524 544 528 c 0
 541 543 538 556 535 566 c 128
 532 576 529 584 524 590 c 0
 518 599 511 606 504 610 c 128
 497 614 488 615 479 615 c 2
 404 615 l 2
 398 615 392 613 386 608 c 128
 380 603 376 595 376 584 c 2
 376 357 l 2
 376 351 378 346 380 342 c 128
 382 338 385 335 389 335 c 0
 402 335 414 336 424 336 c 128
 434 336 443 336 452 336 c 0
 460 337 467 340 472 346 c 128
 477 352 481 359 485 367 c 0
 490 374 493 382 496 390 c 128
 499 398 502 402 506 402 c 0
 508 402 510 400 512 397 c 128
 514 394 515 389 514 384 c 0
 513 371 512 360 512 349 c 128
 512 338 512 328 512 318 c 0
 512 306 512 294 512 282 c 128
 512 270 513 257 514 242 c 0
 515 235 514 230 513 227 c 128
 512 224 510 222 508 222 c 0
 504 222 501 225 498 230 c 128
 495 235 493 240 492 245 c 0
 489 262 484 274 478 282 c 128
 472 290 465 295 459 295 c 0
 446 296 434 297 424 297 c 128
 408 297 409 297 391 297 c 0
 386 297 383 295 380 291 c 128
 377 287 376 281 376 274 c 2
 376 107 l 2
 376 88 380 72 386 58 c 128
 392 44 402 38 417 38 c 2
 484 38 l 2
 487 38 491 38 498 40 c 128
 505 42 511 44 518 47 c 128
 525 50 531 53 534 57 c 0
 541 65 548 76 553 90 c 128
 558 104 563 117 566 128 c 0
 567 133 569 136 570 138 c 128
 571 140 573 141 576 140 c 0
 582 139 585 135 585 128 c 0
 585 109 583 90 580 69 c 128
 577 48 574 29 571 11 c 0
 570 7 570 3 568 0 c 128
 566 -3 563 -5 559 -5 c 0
 544 -5 528 -5 511 -4 c 128
 494 -3 475 -3 456 -2 c 128
 437 -1 418 -1 398 0 c 128
 378 1 358 1 339 1 c 0
 329 1 320 1 312 -0 c 128
 304 -1 295 -3 286 -4 c 128
 277 -5 266 -5 255 -5 c 0
 250 -5 246 -4 242 -2 c 128
 238 0 237 3 237 7 c 0
 237 16 244 22 258 26 c 0
 274 31 286 38 293 48 c 128
 300 58 304 74 304 96 c 2
 304 258 l 2
 304 263 303 266 302 270 c 128
 301 274 297 276 290 276 c 2
 195 276 l 2
 190 276 187 274 184 270 c 128
 181 266 178 261 176 254 c 0
 168 232 160 209 152 186 c 128
 144 163 134 138 125 111 c 0
 122 100 120 90 120 81 c 0
 120 66 124 55 133 48 c 128
 142 41 152 35 164 31 c 0
 177 26 184 19 184 11 c 0
 184 6 182 4 179 2 c 128
 176 0 171 -1 166 -1 c 0
 157 -1 148 -1 136 0 c 128
 124 1 112 1 99 1 c 0
 84 1 70 0 56 -2 c 128
 42 -4 28 -5 16 -5 c 0
216 323 m 2
 294 323 l 2
 298 323 301 324 302 326 c 128
 303 328 304 332 304 337 c 2
 304 569 l 2
 304 579 303 585 302 586 c 128
 301 587 298 582 294 571 c 2
 207 339 l 2
 205 334 204 331 205 328 c 0
 205 326 206 325 208 324 c 128
 210 323 213 323 216 323 c 2
EndSplineSet
EndChar

StartChar: Eth
Encoding: 208 208 131
Width: 600
Flags: W
LayerCount: 2
Fore
SplineSet
47 313 m 2
 42 313 38 316 36 321 c 128
 34 326 33 331 33 335 c 0
 33 341 36 346 40 350 c 128
 44 354 49 357 54 357 c 2
 295 357 l 2
 298 357 301 356 304 353 c 128
 307 350 308 347 308 343 c 0
 308 342 308 342 308 342 c 128
 308 342 307 341 307 340 c 0
 305 333 302 326 298 321 c 128
 294 316 287 313 280 313 c 2
 47 313 l 2
297 -7 m 0
 287 -7 272 -6 253 -5 c 128
 234 -4 214 -3 192 -2 c 128
 170 -1 151 0 134 0 c 0
 123 0 113 0 104 -1 c 128
 95 -2 85 -2 75 -3 c 128
 65 -4 53 -4 40 -4 c 0
 34 -4 30 -3 26 -1 c 128
 22 1 20 4 20 9 c 0
 20 14 22 18 26 20 c 128
 30 22 35 25 43 27 c 0
 63 32 76 39 84 49 c 128
 92 59 96 75 96 98 c 2
 96 550 l 2
 96 573 92 588 84 598 c 128
 76 608 63 616 43 621 c 0
 35 623 30 625 26 628 c 128
 22 631 20 635 20 640 c 0
 20 645 22 648 26 650 c 128
 30 652 35 654 40 654 c 0
 53 654 65 654 75 653 c 128
 85 652 94 652 104 652 c 128
 114 652 125 651 137 651 c 0
 146 651 157 651 170 652 c 128
 183 653 197 654 212 655 c 128
 227 656 240 657 253 658 c 128
 266 659 275 659 282 659 c 0
 331 659 373 651 410 635 c 128
 447 619 477 597 501 568 c 128
 525 539 543 505 556 466 c 128
 569 427 575 385 575 340 c 0
 575 293 568 250 554 208 c 128
 540 166 521 128 496 96 c 128
 471 64 442 38 408 20 c 128
 374 2 338 -7 297 -7 c 0
287 34 m 0
 326 34 360 46 389 70 c 128
 418 94 440 127 456 170 c 128
 472 213 480 263 480 319 c 0
 480 366 474 409 463 446 c 128
 452 483 437 514 418 540 c 128
 399 566 378 586 354 600 c 128
 330 614 303 620 276 620 c 0
 255 620 238 620 224 618 c 128
 210 616 198 611 191 604 c 128
 184 597 180 584 180 567 c 2
 180 125 l 2
 180 100 184 81 194 68 c 128
 204 55 217 46 234 41 c 128
 251 36 268 34 287 34 c 0
EndSplineSet
EndChar

StartChar: multiply
Encoding: 215 215 132
Width: 600
Flags: W
LayerCount: 2
Fore
SplineSet
456 60 m 0
 452 60 449 61 446 64 c 2
 304 207 l 2
 302 210 300 210 297 207 c 2
 154 64 l 2
 151 61 148 60 144 60 c 128
 140 60 138 61 136 63 c 0
 133 66 129 71 123 79 c 128
 117 87 114 95 114 102 c 0
 114 107 116 111 119 114 c 2
 253 248 l 2
 255 250 256 252 256 253 c 128
 256 254 254 256 252 258 c 2
 123 386 l 2
 120 389 118 394 118 400 c 0
 118 408 120 416 125 425 c 128
 130 434 133 439 134 441 c 0
 137 444 140 445 144 445 c 128
 148 445 150 444 153 441 c 2
 296 299 l 2
 299 296 300 295 301 296 c 128
 302 297 302 297 303 298 c 2
 447 441 l 2
 450 444 454 446 457 446 c 0
 461 446 464 444 466 441 c 0
 469 434 473 427 477 420 c 128
 481 413 483 407 483 401 c 0
 483 396 481 391 476 386 c 2
 345 255 l 2
 344 254 344 252 345 250 c 2
 481 114 l 2
 484 111 486 107 486 102 c 0
 486 93 482 84 475 74 c 128
 468 64 461 60 456 60 c 0
EndSplineSet
EndChar

StartChar: Oslash
Encoding: 216 216 133
Width: 600
Flags: W
LayerCount: 2
Fore
SplineSet
56 -14 m 0
 50 -14 44 -11 38 -6 c 128
 32 -1 30 5 30 11 c 0
 30 20 33 28 39 36 c 2
 539 657 l 2
 542 662 547 663 552 662 c 128
 557 661 560 658 562 653 c 0
 563 650 563 647 564 644 c 128
 565 641 565 637 565 634 c 0
 565 630 565 626 564 622 c 128
 563 618 561 614 558 611 c 2
 66 -10 l 2
 65 -11 64 -11 62 -12 c 128
 60 -13 58 -14 56 -14 c 0
293 -14 m 0
 258 -14 225 -6 194 10 c 128
 163 26 135 47 110 76 c 128
 85 105 66 140 52 180 c 128
 38 220 30 266 30 315 c 0
 30 360 36 404 48 446 c 128
 60 488 78 524 100 557 c 128
 122 590 150 616 184 635 c 128
 218 654 257 664 300 664 c 0
 335 664 368 656 400 640 c 128
 432 624 460 603 484 574 c 128
 508 545 528 510 542 470 c 128
 556 430 564 384 564 335 c 0
 564 290 558 247 546 205 c 128
 534 163 518 126 495 93 c 128
 472 60 444 34 410 15 c 128
 376 -4 337 -14 293 -14 c 0
306 28 m 0
 343 28 373 38 397 60 c 128
 421 82 440 112 452 151 c 128
 464 190 470 234 470 285 c 0
 470 330 466 372 458 412 c 128
 450 452 439 488 424 520 c 128
 409 552 391 576 368 594 c 128
 345 612 318 620 287 620 c 0
 252 620 222 609 198 588 c 128
 174 567 156 537 144 499 c 128
 132 461 125 417 125 366 c 0
 125 321 129 278 136 238 c 128
 143 198 155 162 170 130 c 128
 185 98 203 74 226 56 c 128
 249 38 275 28 306 28 c 0
EndSplineSet
EndChar

StartChar: Thorn
Encoding: 222 222 134
Width: 600
Flags: W
LayerCount: 2
Fore
SplineSet
72 -5 m 0
 63 -5 56 -4 51 -2 c 128
 46 0 43 2 43 6 c 0
 43 14 54 20 76 24 c 0
 101 29 120 36 134 47 c 128
 148 58 155 75 155 99 c 2
 155 549 l 2
 155 568 152 584 146 596 c 128
 140 608 123 617 98 622 c 0
 76 626 65 633 65 642 c 0
 65 646 68 648 73 650 c 128
 78 652 85 653 94 653 c 0
 112 653 126 653 136 652 c 128
 146 651 155 650 164 650 c 128
 173 650 185 650 198 650 c 0
 213 650 227 650 238 650 c 128
 249 650 260 651 272 652 c 128
 284 653 299 653 317 653 c 0
 326 653 333 652 338 650 c 128
 343 648 346 646 346 642 c 0
 346 637 343 633 338 630 c 128
 333 627 324 624 313 622 c 0
 288 617 270 610 256 600 c 128
 242 590 235 573 235 549 c 2
 235 532 l 2
 235 527 235 522 236 518 c 128
 237 514 238 512 241 512 c 0
 242 512 245 513 248 514 c 128
 251 515 254 515 258 516 c 128
 264 517 264 517 264 517 c 2
 273 520 284 521 297 522 c 128
 310 523 323 524 336 524 c 0
 374 524 409 517 440 502 c 128
 471 487 495 466 513 438 c 128
 531 410 540 377 540 337 c 0
 540 288 528 249 503 218 c 128
 478 187 446 164 406 150 c 128
 366 136 323 129 277 129 c 0
 270 129 264 129 258 130 c 128
 252 131 248 132 243 132 c 0
 238 132 235 129 235 123 c 2
 235 96 l 2
 235 75 242 59 256 48 c 128
 270 37 289 29 314 24 c 0
 325 22 334 20 339 17 c 128
 344 14 347 11 347 6 c 0
 347 2 344 0 339 -2 c 128
 334 -4 327 -5 318 -5 c 0
 300 -5 286 -5 274 -4 c 128
 262 -3 251 -2 240 -1 c 128
 229 0 216 0 201 0 c 0
 184 0 170 0 157 -1 c 128
 144 -2 131 -3 118 -4 c 128
 105 -5 90 -5 72 -5 c 0
286 158 m 0
 339 158 381 174 410 207 c 128
 439 240 454 282 454 335 c 0
 454 364 449 390 440 414 c 128
 431 438 416 459 396 474 c 128
 376 489 351 496 320 496 c 0
 297 496 278 494 266 490 c 128
 254 486 246 479 242 468 c 128
 238 457 235 441 235 420 c 2
 235 216 l 2
 235 195 240 181 251 172 c 128
 262 163 273 158 286 158 c 0
EndSplineSet
EndChar

StartChar: germandbls
Encoding: 223 223 135
Width: 600
Flags: W
LayerCount: 2
Fore
SplineSet
363 -15 m 0
 344 -15 327 -12 312 -4 c 128
 297 4 290 16 290 33 c 0
 290 46 292 58 296 67 c 128
 300 76 305 81 314 81 c 0
 318 81 324 79 330 76 c 128
 336 73 341 69 345 66 c 0
 357 56 368 49 377 46 c 128
 386 43 399 41 414 41 c 0
 427 41 440 45 452 54 c 128
 464 63 471 78 471 98 c 0
 471 110 468 122 462 132 c 128
 456 142 447 154 434 167 c 128
 421 180 404 197 383 217 c 0
 357 242 338 261 325 274 c 128
 312 287 304 298 300 306 c 128
 296 314 294 325 294 336 c 0
 294 352 299 366 310 378 c 128
 321 390 336 404 352 416 c 128
 368 428 384 442 399 458 c 0
 410 470 420 485 428 502 c 128
 436 519 440 537 440 555 c 0
 440 586 431 612 412 633 c 128
 393 654 363 665 321 665 c 0
 288 665 261 651 240 622 c 128
 219 593 208 544 208 475 c 2
 208 69 l 2
 208 55 213 44 222 38 c 128
 231 32 240 27 250 24 c 0
 255 22 261 20 266 18 c 128
 271 16 273 11 273 6 c 0
 273 1 270 -1 264 -2 c 128
 258 -3 253 -3 250 -3 c 0
 237 -3 227 -3 220 -2 c 128
 213 -1 207 0 201 1 c 128
 195 2 186 2 174 2 c 0
 163 2 154 2 147 1 c 128
 140 0 133 -1 126 -2 c 128
 119 -3 109 -3 96 -3 c 0
 93 -3 88 -3 82 -2 c 128
 76 -1 73 1 73 6 c 0
 73 11 75 16 80 18 c 128
 85 20 91 22 96 24 c 0
 106 27 115 32 124 38 c 128
 133 44 138 55 138 69 c 2
 138 350 l 1
 131 350 124 350 115 350 c 128
 106 350 97 351 86 352 c 0
 84 353 82 354 79 358 c 128
 76 362 75 366 75 369 c 256
 75 372 76 375 79 376 c 0
 94 380 106 384 114 388 c 128
 122 392 129 397 138 402 c 1
 138 460 146 509 160 548 c 128
 174 587 193 618 216 641 c 128
 239 664 263 681 290 691 c 128
 317 701 342 706 367 706 c 0
 394 706 418 700 438 688 c 128
 458 676 474 658 486 638 c 128
 498 618 503 596 503 572 c 0
 503 550 498 530 487 512 c 128
 476 494 455 470 424 443 c 0
 407 428 395 416 386 406 c 128
 377 396 373 383 373 364 c 0
 373 355 376 347 380 340 c 128
 384 333 391 324 402 313 c 128
 413 302 429 287 450 266 c 0
 471 246 486 229 496 215 c 128
 506 201 514 188 518 177 c 128
 522 166 523 153 523 140 c 0
 523 119 518 100 509 81 c 128
 500 62 487 46 472 32 c 128
 457 18 439 6 420 -2 c 128
 401 -10 382 -15 363 -15 c 0
EndSplineSet
EndChar

StartChar: ae
Encoding: 230 230 136
Width: 600
Flags: W
LayerCount: 2
Fore
SplineSet
144 -14 m 0
 131 -14 117 -10 104 -2 c 128
 91 6 80 16 71 28 c 128
 62 40 58 52 58 65 c 0
 58 86 64 104 76 118 c 128
 88 132 106 144 131 155 c 2
 235 202 l 2
 248 208 257 213 260 216 c 128
 263 219 264 225 264 233 c 2
 264 299 l 2
 264 316 259 332 248 345 c 128
 237 358 223 365 204 365 c 0
 192 365 180 361 168 354 c 128
 156 347 147 339 143 332 c 0
 140 327 139 321 139 313 c 0
 139 310 140 308 140 306 c 128
 140 304 140 302 140 299 c 0
 140 294 136 289 126 284 c 128
 116 279 105 274 94 270 c 128
 83 266 76 264 71 264 c 0
 68 264 66 266 65 268 c 128
 64 270 63 272 63 273 c 0
 63 296 76 319 103 342 c 0
 114 351 128 362 144 373 c 128
 160 384 178 394 197 402 c 128
 216 410 235 414 252 414 c 0
 262 414 274 410 288 403 c 128
 302 396 311 388 315 381 c 0
 317 378 319 376 320 376 c 0
 321 376 323 377 327 380 c 0
 339 389 356 396 377 403 c 128
 398 410 417 413 434 413 c 0
 451 413 469 410 487 403 c 128
 505 396 520 386 532 372 c 128
 544 358 551 340 551 318 c 0
 551 307 548 300 544 296 c 128
 540 292 534 287 527 284 c 0
 524 282 514 277 498 270 c 128
 482 263 464 255 443 246 c 128
 422 237 403 229 384 221 c 128
 365 213 352 207 343 203 c 0
 340 202 338 199 336 195 c 128
 334 191 332 188 332 185 c 2
 332 129 l 2
 332 107 336 90 345 78 c 128
 354 66 365 58 378 53 c 128
 391 48 405 46 420 46 c 0
 440 46 459 49 478 56 c 128
 497 63 515 75 531 94 c 0
 534 97 537 98 540 98 c 0
 549 98 553 94 553 87 c 0
 553 86 553 86 553 85 c 128
 553 84 553 84 552 83 c 0
 530 51 506 26 482 10 c 128
 458 -6 427 -14 389 -14 c 0
 370 -14 351 -11 332 -4 c 128
 313 3 295 13 280 26 c 0
 279 27 277 30 274 33 c 128
 271 36 268 38 267 38 c 0
 264 38 262 37 259 34 c 0
 254 30 246 24 237 16 c 128
 228 8 215 2 200 -4 c 128
 185 -10 167 -13 144 -14 c 0
187 32 m 0
 200 32 212 34 222 40 c 128
 232 46 241 52 249 59 c 0
 252 62 255 66 258 70 c 128
 261 74 263 83 263 96 c 2
 263 148 l 2
 263 156 263 162 262 166 c 128
 261 170 259 172 255 172 c 0
 252 172 247 171 240 169 c 0
 229 166 216 162 200 154 c 128
 184 146 170 137 158 126 c 128
 146 115 139 102 138 87 c 0
 138 68 144 55 156 46 c 128
 168 37 178 32 187 32 c 0
348 244 m 0
 373 254 398 263 423 272 c 128
 448 281 466 288 475 292 c 0
 478 293 480 295 481 298 c 128
 482 301 482 303 482 306 c 0
 482 325 475 342 461 356 c 128
 447 370 429 378 408 378 c 0
 403 378 394 376 382 371 c 128
 370 366 359 360 349 352 c 128
 339 344 334 333 333 321 c 2
 333 254 l 2
 333 249 334 246 338 245 c 128
 342 244 345 243 348 244 c 0
EndSplineSet
EndChar

StartChar: eth
Encoding: 240 240 137
Width: 600
Flags: W
LayerCount: 2
Fore
SplineSet
288 -14 m 256
 251 -14 216 -6 185 11 c 128
 154 28 129 51 110 81 c 128
 91 111 82 146 82 186 c 0
 82 227 93 265 114 300 c 128
 135 335 164 362 199 383 c 128
 234 404 272 414 313 414 c 0
 329 414 344 412 358 408 c 128
 372 404 386 398 400 391 c 0
 405 389 407 388 408 390 c 128
 409 392 409 395 408 400 c 0
 400 429 391 457 380 484 c 128
 369 511 355 534 340 552 c 1
 185 472 l 2
 181 470 178 470 175 472 c 128
 172 474 171 477 171 480 c 0
 171 485 171 492 172 500 c 128
 173 508 175 513 179 515 c 2
 311 584 l 1
 284 610 254 630 224 646 c 128
 194 662 166 673 141 678 c 0
 137 679 133 681 128 683 c 128
 123 685 121 688 121 693 c 256
 121 698 124 700 129 702 c 128
 134 704 140 705 147 705 c 0
 178 705 213 696 252 680 c 128
 291 664 329 641 366 612 c 1
 467 665 l 2
 471 668 476 669 482 670 c 128
 488 671 492 669 492 664 c 0
 492 655 491 648 489 640 c 128
 487 632 482 626 474 622 c 2
 399 583 l 1
 418 563 437 538 454 509 c 128
 471 480 485 444 496 402 c 128
 507 360 513 309 513 250 c 0
 513 221 508 191 499 160 c 128
 490 129 476 100 457 74 c 128
 438 48 414 26 386 10 c 128
 358 -6 325 -14 288 -14 c 256
309 16 m 0
 332 16 353 25 372 44 c 128
 391 63 407 88 418 119 c 128
 429 150 435 183 435 219 c 0
 435 242 433 263 428 282 c 128
 423 301 414 316 402 329 c 0
 388 344 371 357 352 366 c 128
 333 375 314 380 293 380 c 0
 265 380 241 372 222 355 c 128
 203 338 190 317 180 291 c 128
 170 265 165 238 165 210 c 0
 165 177 171 146 184 116 c 128
 197 86 214 63 236 44 c 128
 258 25 282 16 309 16 c 0
EndSplineSet
EndChar

StartChar: divide
Encoding: 247 247 138
Width: 600
Flags: W
LayerCount: 2
Fore
SplineSet
89 231 m 2
 86 231 83 232 80 234 c 128
 77 236 75 238 75 241 c 256
 75 244 75 248 76 255 c 128
 77 262 80 268 83 274 c 128
 86 280 91 282 98 282 c 2
 516 282 l 2
 519 282 521 281 524 279 c 128
 527 277 528 275 528 272 c 0
 528 263 525 253 520 244 c 128
 515 235 507 231 498 231 c 2
 89 231 l 2
299 67 m 0
 286 67 275 72 266 81 c 128
 257 90 252 101 252 114 c 0
 252 127 257 139 266 148 c 128
 275 157 286 161 299 161 c 0
 312 161 323 157 332 148 c 128
 341 139 346 127 346 114 c 0
 346 101 341 90 332 81 c 128
 323 72 312 67 299 67 c 0
298 352 m 0
 285 352 274 357 265 366 c 128
 256 375 251 386 251 399 c 0
 251 412 256 423 265 432 c 128
 274 441 285 446 298 446 c 0
 311 446 323 441 332 432 c 128
 341 423 345 412 345 399 c 0
 345 386 341 375 332 366 c 128
 323 357 311 352 298 352 c 0
EndSplineSet
EndChar

StartChar: oslash
Encoding: 248 248 139
Width: 600
Flags: W
LayerCount: 2
Fore
SplineSet
107 -15 m 0
 101 -15 95 -12 90 -8 c 128
 85 -4 83 0 83 5 c 0
 83 13 86 20 93 25 c 2
 495 411 l 2
 498 414 501 415 506 415 c 0
 515 415 520 410 520 400 c 0
 520 395 519 391 517 386 c 128
 515 381 512 377 509 374 c 2
 114 -12 l 2
 113 -13 112 -13 111 -14 c 128
 110 -15 108 -15 107 -15 c 0
291 -14 m 0
 254 -14 220 -5 190 12 c 128
 160 29 136 54 118 84 c 128
 100 114 92 148 92 187 c 0
 92 215 97 242 108 269 c 128
 119 296 135 320 155 342 c 128
 175 364 198 381 225 394 c 128
 252 407 280 414 311 414 c 0
 350 414 385 405 416 386 c 128
 447 367 472 342 490 312 c 128
 508 282 517 249 517 213 c 0
 517 174 509 138 492 103 c 128
 475 68 449 40 416 18 c 128
 383 -4 341 -14 291 -14 c 0
312 16 m 0
 335 16 355 20 373 29 c 128
 391 38 405 52 415 71 c 0
 423 86 428 105 431 127 c 128
 434 149 435 170 435 189 c 0
 435 221 430 252 418 282 c 128
 406 312 389 335 368 354 c 128
 347 373 323 383 294 383 c 0
 276 383 260 380 246 374 c 128
 232 368 218 358 206 343 c 0
 193 326 184 306 180 282 c 128
 176 258 174 234 174 210 c 0
 174 177 180 146 192 116 c 128
 204 86 220 63 241 44 c 128
 262 25 285 16 312 16 c 0
EndSplineSet
EndChar

